<svg width="121" height="122" viewBox="0 0 121 122" fill="none" xmlns="http://www.w3.org/2000/svg">
<g filter="url(#filter0_d_1672_195)">
<path d="M85.5 56C85.5 69.531 78.0309 82 64.5 82C50.969 82 36 72.031 36 58.5C36 44.969 42.469 31.5 56 31.5C69.5309 31.5 85.5 42.469 85.5 56Z" fill="#E489A8"/>
</g>
<path d="M73.7103 81.153C73.5159 80.8622 73.5146 80.6205 73.5508 80.3285C73.577 80.1259 73.6006 79.9232 73.6206 79.7206C73.7676 78.2227 73.5969 76.7501 73.3912 75.2623C73.1632 73.6172 72.6921 72.0917 71.6875 70.7876C68.7474 66.9726 64.7679 65.695 60.1464 66.1431C59.1382 66.2413 58.1486 66.5496 57.1428 66.7624C57.574 66.5358 58.0077 66.3067 58.4427 66.0789C60.033 65.2469 61.6109 64.3948 62.9881 63.2166C64.6756 61.7716 65.5119 59.9528 65.411 57.6998C65.3648 56.6727 64.9822 55.7501 64.6632 54.7972C63.428 51.1218 59.1307 48.9519 55.5001 50.242C54.5517 50.5794 53.6069 50.9922 52.7519 51.5209C50.1907 53.1018 47.6744 54.757 45.1381 56.3781C44.9723 56.4839 44.7829 56.6236 44.6047 56.6236C44.1871 56.6261 43.9266 56.7545 43.8207 57.1913C43.792 57.3083 43.6088 57.4027 43.4792 57.4757C42.5681 57.9868 41.6471 58.4802 40.7398 58.9987C38.3954 60.338 36.0785 61.7213 33.9447 63.3941C31.6216 65.2167 30.6956 67.5956 31.0869 70.5334C31.6851 75.0244 36.238 77.9874 40.5304 76.6695C42.2055 76.156 43.6724 75.2371 45.1206 74.2843C47.3242 72.8343 49.5102 71.3566 51.7075 69.8965C51.9742 69.719 52.2783 69.5982 52.5426 69.4182C53.0934 69.0456 53.6281 68.6504 54.1703 68.264C54.1977 68.3055 54.2264 68.3483 54.2538 68.3898C54.1989 68.4414 54.1478 68.4993 54.0868 68.5434C51.6788 70.2741 50.5871 72.8078 49.9589 75.5883C49.7707 76.4203 49.7869 77.3064 49.7645 78.1686C49.7047 80.4808 50.1309 82.6986 51.4047 84.6458C53.6431 88.067 56.9783 89.5963 60.9017 89.9437C64.3316 90.247 67.5011 89.3043 70.4673 87.6189C72.1973 86.6358 73.4037 85.2047 73.8574 83.2109C74.0157 82.5161 74.1278 81.7811 73.7103 81.153ZM51.3124 68.1268C48.6939 69.7945 46.099 71.5026 43.468 73.1502C41.864 74.1546 40.1839 75.0156 38.2733 75.2761C37.9804 75.3164 37.685 75.3277 37.2887 75.3617C35.1936 75.2938 33.769 74.0326 32.8006 72.2112C31.3686 69.5189 31.917 66.6491 34.3324 64.6251C35.6896 63.4885 37.2014 62.5193 38.717 61.5979C40.7136 60.3833 42.7887 59.2983 44.8165 58.1353C45.1692 57.9326 45.4434 57.9717 45.7625 58.1605C47.4625 59.1624 48.7113 60.6061 49.7209 62.2802C50.6967 63.8988 51.2788 65.6623 51.5393 67.5364C51.5729 67.7832 51.5692 67.9644 51.3124 68.128V68.1268ZM52.5737 67.3565C52.2534 65.2469 51.5866 63.306 50.4687 61.5413C49.3569 59.7867 47.986 58.2876 46.0492 57.1522C47.9498 55.8986 49.7545 54.6726 51.5966 53.5046C53.0311 52.5945 54.5105 51.7512 56.1445 51.2427C58.3567 50.5542 61.2008 51.4793 62.7164 53.3623C64.1646 55.1622 64.4264 57.8206 63.3358 59.8295C62.6429 61.1083 61.5772 62.036 60.3783 62.7824C58.5524 63.919 56.6791 64.9763 54.8234 66.0625C54.0992 66.4867 53.3676 66.8996 52.5737 67.3565ZM53.2829 70.9009C54.9829 68.9122 57.1665 67.7731 59.7015 67.359C63.3433 66.7649 66.6772 67.5213 69.5251 69.9708C71.3099 71.5064 72.3319 73.4687 72.4104 75.8778C72.4141 76.0037 72.4079 76.1295 72.4017 76.2541C72.4004 76.2831 72.3792 76.3095 72.3431 76.3913C65.4758 75.5694 58.5923 74.745 51.6639 73.9155C51.9842 72.7562 52.5363 71.7719 53.2816 70.8997L53.2829 70.9009ZM51.2987 75.7104C51.3049 75.4637 51.3486 75.2182 51.3797 74.9124C58.3368 75.7431 65.2539 76.5688 72.1998 77.397C71.791 79.4688 70.7515 81.0875 69.1849 82.3575C66.7707 84.3148 63.969 85.0474 60.9242 84.8183C58.0115 84.5993 55.4515 83.5218 53.4324 81.3292C51.9817 79.7533 51.2401 77.8804 51.2987 75.7104ZM67.4101 87.1318C63.1115 89.1922 58.9425 88.9632 54.9904 86.2079C53.1607 84.9316 52.1101 83.1191 51.6689 80.934C51.6552 80.8647 51.6676 80.7892 51.6676 80.6835C56.2055 87.9096 68.5517 87.5887 72.5874 79.9925C72.1923 83.4375 70.3539 85.7195 67.4113 87.1305L67.4101 87.1318Z" fill="white"/>
<path d="M58.3118 48.5227C58.7319 48.5365 58.8291 48.2369 58.8353 47.8958C58.8453 47.3621 58.8378 46.8272 58.8378 46.2935H58.8365C58.8365 45.7284 58.849 45.1619 58.8316 44.5968C58.8203 44.2355 58.6284 43.9926 58.2495 44.0002C57.8918 44.0077 57.7822 44.2771 57.7797 44.5855C57.7722 45.6856 57.7722 46.7857 57.7784 47.8858C57.7809 48.2382 57.918 48.5101 58.3131 48.5239L58.3118 48.5227Z" fill="white"/>
<path d="M54.9231 48.7517C55.1038 49.0664 55.3805 49.2061 55.7058 49.0261C56.041 48.8411 56.0473 48.5252 55.8753 48.2118C55.5437 47.6088 55.2147 47.0034 54.852 46.4206C54.7411 46.2432 54.5217 46.1349 54.427 46.0569C53.8724 46.0758 53.6481 46.4647 53.8637 46.8712C54.2002 47.5069 54.5654 48.1274 54.9231 48.7517Z" fill="white"/>
<path d="M60.6811 49.2628C60.8394 49.2955 61.1136 49.1809 61.2046 49.0425C61.6321 48.3917 62.0135 47.7095 62.4123 47.0387C62.5918 46.7378 62.6603 46.4307 62.3101 46.2255C61.9524 46.0166 61.7355 46.2646 61.5635 46.5515C61.1946 47.167 60.8269 47.7838 60.4643 48.4031C60.3957 48.5214 60.3533 48.6561 60.2648 48.8612C60.3995 48.9997 60.5203 49.2288 60.6811 49.2628Z" fill="white"/>
<path d="M43.2225 69.7392C43.1352 69.8059 43.0467 69.8688 42.9558 69.9292C41.8054 70.7109 40.5777 71.3037 39.1719 71.4082C37.7448 71.5139 36.481 71.1048 35.5189 70.006C35.211 69.6536 35.0415 69.1727 34.8359 68.7385C34.7038 68.4591 34.5193 68.2967 34.2177 68.376C33.8936 68.4603 33.7628 68.707 33.8588 69.0293C33.9572 69.3578 34.0519 69.7001 34.2214 69.9922C35.2085 71.6914 36.7478 72.4202 38.9376 72.5284C39.3887 72.4328 40.1565 72.3824 40.832 72.1017C41.859 71.675 42.8249 71.096 43.8082 70.5661C44.1136 70.4012 44.222 70.0954 44.0338 69.8059C43.8257 69.4836 43.5129 69.5176 43.2212 69.7404L43.2225 69.7392Z" fill="white"/>
<path d="M45.775 68.4414C45.3811 68.4314 45.1119 68.6529 45.1156 68.9953C45.1194 69.3829 45.3724 69.4887 45.7002 69.4975C46.1077 69.505 46.3645 69.2974 46.3582 68.95C46.352 68.5673 46.104 68.449 45.7737 68.4402L45.775 68.4414Z" fill="white"/>
<defs>
<filter id="filter0_d_1672_195" x="0.599968" y="0.0999985" width="120.3" height="121.3" filterUnits="userSpaceOnUse" color-interpolation-filters="sRGB">
<feFlood flood-opacity="0" result="BackgroundImageFix"/>
<feColorMatrix in="SourceAlpha" type="matrix" values="0 0 0 0 0 0 0 0 0 0 0 0 0 0 0 0 0 0 127 0" result="hardAlpha"/>
<feOffset dy="4"/>
<feGaussianBlur stdDeviation="17.7"/>
<feComposite in2="hardAlpha" operator="out"/>
<feColorMatrix type="matrix" values="0 0 0 0 0.929412 0 0 0 0 0.141176 0 0 0 0 0.329412 0 0 0 0.52 0"/>
<feBlend mode="normal" in2="BackgroundImageFix" result="effect1_dropShadow_1672_195"/>
<feBlend mode="normal" in="SourceGraphic" in2="effect1_dropShadow_1672_195" result="shape"/>
</filter>
</defs>
</svg>
