<svg width="120" height="123" viewBox="0 0 120 123" fill="none" xmlns="http://www.w3.org/2000/svg">
<g filter="url(#filter0_d_1672_186)">
<path d="M47.0937 35.8677C58.9278 29.3071 73.4545 29.7937 80.0151 41.6278C86.5758 53.4619 85.1148 71.3872 73.2807 77.9479C61.4466 84.5085 46.5302 85.3813 39.9696 73.5472C33.4089 61.7131 35.2596 42.4283 47.0937 35.8677Z" fill="#E489A8"/>
</g>
<path d="M56.1452 91.0707C55.7879 90.9373 55.6351 90.6712 55.5483 90.3091C55.0829 88.3722 54.5944 86.441 54.1139 84.5079L54.0049 84.0695C53.1736 84.2761 52.3753 84.4819 51.5732 84.6728C49.7727 85.0994 48.0495 84.8987 46.4356 84.0272C44.6663 83.0727 43.4843 81.6273 42.9977 79.6999C41.5381 73.9175 40.0968 68.1316 38.6805 62.3384C37.7859 58.6747 40.1211 54.9022 43.8591 53.9543C48.34 52.8186 52.8271 51.7033 57.3183 50.6091C61.0651 49.6967 64.8925 51.9322 65.8193 55.5922C67.283 61.3735 68.7212 67.1602 70.1345 72.9541C71.0303 76.6228 68.6933 80.3706 64.9594 81.3437C64.1454 81.5554 63.3273 81.7504 62.4526 81.9678L62.5527 82.3706C63.0364 84.3166 63.5118 86.2636 64.0103 88.2049C64.1031 88.5655 64.0904 88.8716 63.8394 89.1573L56.145 91.0697L56.1452 91.0707ZM62.176 80.7817C63.0204 80.5718 63.8366 80.3774 64.6495 80.1659C67.7435 79.3602 69.667 76.2645 68.9213 73.221C67.5071 67.4536 66.0735 61.6899 64.624 55.9312C63.8588 52.8915 60.7039 51.0371 57.6002 51.7949C53.1218 52.8891 48.6468 54.0013 44.1773 55.1311C41.0615 55.9181 39.1467 59.0399 39.9006 62.1033C41.3169 67.8577 42.7392 73.6106 44.1938 79.3554C44.693 81.3248 45.9895 82.6369 47.9243 83.349C49.9146 84.0819 51.7831 83.3564 53.6813 82.8836L52.8094 79.3757C52.7679 79.3723 52.7551 79.3682 52.7431 79.3712C52.4027 79.4526 52.0642 79.5368 51.7231 79.6153C51.2848 79.7158 50.9526 79.5457 50.8719 79.1863C50.7943 78.8397 50.9996 78.5424 51.4178 78.4384C54.9741 77.5514 58.5311 76.6673 62.0888 75.7862C62.5251 75.6777 62.8598 75.8535 62.9408 76.2139C63.0184 76.5605 62.8106 76.8522 62.3952 76.9628C62.0359 77.0583 61.6729 77.1433 61.296 77.237L62.1775 80.7834L62.176 80.7817ZM62.684 88.1718L60.0504 77.5759L54.0629 79.0641L56.6965 89.66L62.684 88.1718Z" fill="white"/>
<path d="M55.5839 72.3774C53.0447 73.0085 50.5054 73.6396 47.9661 74.2707C47.3252 74.43 47.0896 74.2915 46.9338 73.6645C45.8195 69.1812 44.7052 64.6978 43.5911 60.2153C43.4348 59.5864 43.5773 59.355 44.2182 59.1957C49.2967 57.9334 54.3753 56.6712 59.4529 55.4092C60.0937 55.2499 60.3303 55.3882 60.4861 56.0151C61.6005 60.4985 62.7148 64.9819 63.8289 69.4643C63.9849 70.0922 63.8406 70.3252 63.202 70.485C60.6627 71.1161 58.1235 71.7472 55.5842 72.3783L55.5839 72.3774ZM62.4998 69.3858L59.3519 56.7205L44.9173 60.3082L48.0652 72.9735L62.4998 69.3858Z" fill="white"/>
<path d="M58.5112 84.2064C59.5095 83.953 60.534 84.5538 60.7742 85.533C61.0104 86.4964 60.3955 87.4963 59.4155 87.7461C58.4182 87.9992 57.3924 87.3977 57.1533 86.4183C56.9168 85.4539 57.5302 84.4565 58.5122 84.2062L58.5112 84.2064ZM58.8185 85.387C58.492 85.4681 58.2842 85.8028 58.3627 86.1229C58.4419 86.4418 58.7823 86.6445 59.1077 86.5636C59.4322 86.483 59.6415 86.1458 59.5633 85.8266C59.484 85.5077 59.144 85.3061 58.8172 85.3862L58.8185 85.387Z" fill="white"/>
<path d="M57.2985 65.3374C57.7261 67.0447 56.8186 68.74 55.1486 69.3344C53.5257 69.9117 51.6822 69.1497 50.9862 67.572C50.5289 66.5367 50.5915 65.4414 50.7917 64.3528C51.0273 63.0667 51.4941 61.8541 52.1273 60.704C52.3824 60.2412 52.7222 60.1316 53.1494 60.3954C54.8728 61.4578 56.2903 62.7964 57.0736 64.691C57.1601 64.9011 57.2234 65.1213 57.2983 65.3365L57.2985 65.3374ZM52.9979 61.7445C52.4347 62.5994 51.9038 64.4192 51.8985 65.582C51.8972 65.9597 51.93 66.3457 52.0128 66.713C52.2781 67.8925 53.387 68.553 54.5614 68.259C55.7258 67.9675 56.4015 66.8509 56.0883 65.6896C55.6199 63.9516 54.3982 62.7813 52.9976 61.7435L52.9979 61.7445Z" fill="white"/>
<defs>
<filter id="filter0_d_1672_186" x="0.820183" y="0.247948" width="118.471" height="121.862" filterUnits="userSpaceOnUse" color-interpolation-filters="sRGB">
<feFlood flood-opacity="0" result="BackgroundImageFix"/>
<feColorMatrix in="SourceAlpha" type="matrix" values="0 0 0 0 0 0 0 0 0 0 0 0 0 0 0 0 0 0 127 0" result="hardAlpha"/>
<feOffset dy="4"/>
<feGaussianBlur stdDeviation="17.7"/>
<feComposite in2="hardAlpha" operator="out"/>
<feColorMatrix type="matrix" values="0 0 0 0 0.929412 0 0 0 0 0.141176 0 0 0 0 0.329412 0 0 0 0.52 0"/>
<feBlend mode="normal" in2="BackgroundImageFix" result="effect1_dropShadow_1672_186"/>
<feBlend mode="normal" in="SourceGraphic" in2="effect1_dropShadow_1672_186" result="shape"/>
</filter>
</defs>
</svg>
