<svg width="124" height="120" viewBox="0 0 124 120" fill="none" xmlns="http://www.w3.org/2000/svg">
<g filter="url(#filter0_d_1672_177)">
<path d="M78.1041 36.1948C88.2575 45.1388 92.6769 58.9855 83.7329 69.1389C74.7889 79.2923 57.4137 83.9352 47.2603 74.9912C37.1069 66.0471 31.2761 52.2898 40.2201 42.1364C49.1641 31.983 67.9507 27.2507 78.1041 36.1948Z" fill="#E489A8"/>
</g>
<path d="M53.1187 57.6863C54.2848 57.5946 55.0312 58.0429 55.2502 58.9502C55.4605 59.8228 55.008 60.5915 54.0185 61.0082C54.0885 61.287 54.1309 61.5806 54.2366 61.8496C54.4129 62.2981 54.7854 62.4981 55.2559 62.554C57.1589 62.7789 58.853 63.4985 60.3646 64.6615C66.2375 69.1762 65.211 78.5582 58.4915 81.7581C53.2235 84.2668 47.1017 82.092 44.6593 76.8441C42.6846 72.6004 44.0082 67.4129 47.8318 64.567C48.7686 63.87 48.8295 63.4494 48.4688 62.3989C47.9323 62.4821 47.3899 62.4287 46.9978 62.0295C46.7384 61.7651 46.5097 61.4124 46.4142 61.0592C46.1864 60.2105 46.6796 59.4869 47.7109 59.0452C47.5668 57.9723 47.4209 56.8921 47.276 55.8117C46.9916 53.7039 46.7044 51.5967 46.4227 49.4882C46.3756 49.1327 46.5337 48.9044 46.8931 48.8102C47.5925 48.6268 48.2937 48.4507 48.9959 48.2822C49.3718 48.1917 49.6064 48.3223 49.7434 48.6884C50.7892 51.4837 51.8334 54.2804 52.8782 57.076C52.9525 57.2741 53.032 57.4699 53.1168 57.6867L53.1187 57.6863ZM49.5731 62.1196C49.6606 62.468 49.7815 62.7817 49.8124 63.1035C49.9094 64.1259 49.4001 64.8283 48.5892 65.41C45.2168 67.8296 43.9525 72.4337 45.5993 76.2027C47.706 81.0226 53.2871 83.0766 58.0489 80.6979C61.0901 79.179 62.7932 76.6343 63.0469 73.2716C63.301 69.8912 61.9403 67.1837 59.1764 65.2038C57.9449 64.3214 56.5426 63.8473 55.0363 63.6569C54.0094 63.527 53.3212 62.9086 53.0691 61.9357C53.0137 61.7231 52.9618 61.5087 52.9051 61.2829L49.5731 62.1196ZM52.0037 57.9857C50.9377 55.1333 49.8855 52.3201 48.8333 49.5031L47.6169 49.8085C48.022 52.8065 48.4251 55.7885 48.8293 58.7829L52.0046 57.9855L52.0037 57.9857ZM50.7169 59.4889C49.8433 59.7082 48.9696 59.9267 48.0962 60.147C47.6383 60.262 47.4317 60.5354 47.5291 60.8842C47.6223 61.2205 47.923 61.353 48.3635 61.2424C50.1 60.8083 51.8348 60.3716 53.5706 59.9348C54.0268 59.8202 54.2356 59.5442 54.1385 59.1963C54.0441 58.8594 53.745 58.7294 53.3043 58.8391C52.4414 59.0539 51.5803 59.2721 50.7178 59.4886L50.7169 59.4889Z" fill="white"/>
<path d="M61.8521 45.0499C66.2681 43.9546 70.3063 46.0937 71.6914 49.8896C73.2003 54.0218 71.0421 58.5499 66.8549 60.0378C62.8098 61.4755 58.3573 59.4569 56.7912 55.4868C56.7353 55.3463 56.5765 55.2132 56.4322 55.1454C55.3296 54.6321 54.2207 54.1329 53.1096 53.6362C52.8338 53.5131 52.6003 53.3637 52.619 53.0246C52.6379 52.6903 52.8684 52.5547 53.1646 52.4589C54.1225 52.1503 55.0738 51.8191 56.0317 51.5105C56.2736 51.4323 56.3737 51.3041 56.4328 51.0521C57.1838 47.8639 59.1995 45.8657 61.8521 45.0499ZM54.7605 53.1187C54.9113 53.1965 54.9985 53.2474 55.0902 53.2886C55.768 53.5966 56.44 53.9168 57.1262 54.2033C57.4805 54.3505 57.6878 54.5754 57.8232 54.9351C59.1724 58.529 63.0358 60.265 66.6559 58.9175C70.2409 57.5828 72.0259 53.3942 70.4887 49.9214C69.2147 47.0444 66.3628 45.4627 63.1255 45.9354C60.304 46.3475 57.9025 48.6156 57.4715 51.6933C57.4143 52.1013 57.2207 52.3133 56.8297 52.4299C56.1545 52.6315 55.491 52.872 54.7591 53.1171L54.7605 53.1187Z" fill="white"/>
<path d="M60.6255 70.9548C60.1188 69.175 59.1069 67.7669 57.5007 66.8163C55.9038 65.8711 54.1857 65.6493 52.3613 66.0491L52.1025 65.0186C55.4981 63.9084 60.5025 65.9206 61.7045 70.6839L60.6255 70.9548Z" fill="white"/>
<path d="M66.649 52.9025C66.9017 54.0103 66.6761 54.8397 65.8817 55.4757C65.1638 56.0496 64.1814 56.1281 63.3826 55.6697C62.4656 55.1428 62.0802 54.2947 62.1943 53.2902C62.3486 51.9383 62.6002 50.5959 62.8442 49.2545C62.8761 49.0774 63.0864 48.8457 63.2566 48.802C63.4269 48.7583 63.725 48.8574 63.8366 48.9975C64.6926 50.0734 65.5239 51.1681 66.3427 52.2718C66.5068 52.4921 66.5874 52.7741 66.6481 52.9027L66.649 52.9025ZM63.718 50.8032C63.5798 51.7156 63.4123 52.6247 63.317 53.54C63.2778 53.9104 63.4315 54.281 63.7411 54.5464C64.1568 54.9028 64.7508 54.9237 65.1815 54.5949C65.6459 54.2402 65.8115 53.5502 65.4513 53.0011C64.9468 52.2326 64.3589 51.518 63.8074 50.7807L63.718 50.8032Z" fill="white"/>
<defs>
<filter id="filter0_d_1672_177" x="0.409569" y="0.0653305" width="123.55" height="119.083" filterUnits="userSpaceOnUse" color-interpolation-filters="sRGB">
<feFlood flood-opacity="0" result="BackgroundImageFix"/>
<feColorMatrix in="SourceAlpha" type="matrix" values="0 0 0 0 0 0 0 0 0 0 0 0 0 0 0 0 0 0 127 0" result="hardAlpha"/>
<feOffset dy="4"/>
<feGaussianBlur stdDeviation="17.7"/>
<feComposite in2="hardAlpha" operator="out"/>
<feColorMatrix type="matrix" values="0 0 0 0 0.929412 0 0 0 0 0.141176 0 0 0 0 0.329412 0 0 0 0.52 0"/>
<feBlend mode="normal" in2="BackgroundImageFix" result="effect1_dropShadow_1672_177"/>
<feBlend mode="normal" in="SourceGraphic" in2="effect1_dropShadow_1672_177" result="shape"/>
</filter>
</defs>
</svg>
