<svg width="120" height="122" viewBox="0 0 120 122" fill="none" xmlns="http://www.w3.org/2000/svg">
<g filter="url(#filter0_d_1672_189)">
<path d="M66.9609 80.6507C53.8234 83.8902 39.9288 79.6236 36.6893 66.4862C33.4498 53.3487 39.5451 36.4283 52.6826 33.1888C65.82 29.9493 80.4461 33.0055 83.6856 46.143C86.9251 59.2804 80.0983 77.4112 66.9609 80.6507Z" fill="#E489A8"/>
</g>
<path d="M67.6873 82.0315L38.7581 76.9314C37.7756 76.2934 37.6077 75.897 37.8168 74.7107C38.6105 70.2085 39.4029 65.7067 40.2009 61.2053C40.2366 61.0031 40.2944 60.7977 40.3812 60.6121C41.0584 59.1619 41.7434 57.715 42.4296 56.2682C42.881 55.316 43.4566 55.0195 44.4903 55.2011C46.1107 55.4855 47.7312 55.7724 49.3512 56.0581C49.4684 56.0787 49.585 56.0993 49.6954 56.1187C49.7161 56.0518 49.7278 56.0323 49.728 56.0132C49.7356 53.0699 49.7433 50.1265 49.749 47.1834C49.7499 46.6553 49.9982 46.4225 50.504 46.511C52.6994 46.8949 54.8937 47.2817 57.088 47.6718C57.5302 47.7497 57.6866 47.9807 57.6155 48.4272C57.5722 48.7018 57.5196 48.9748 57.4713 49.2486C57.5472 49.262 57.5882 49.2749 57.6287 49.2757C60.7381 49.3299 63.8483 49.3836 66.9579 49.4366C67.4809 49.4455 67.7282 49.7815 67.5543 50.2627C66.7594 52.4633 65.9608 54.6633 65.1653 56.8638C64.9443 57.4752 64.7274 58.0886 64.4983 58.7284C64.6592 58.7568 64.7813 58.7783 64.9034 58.7998C66.5445 59.0892 68.1856 59.3747 69.8257 59.6695C70.7409 59.8341 71.2034 60.3453 71.2904 61.2691C71.3711 62.1283 71.4459 62.9876 71.5305 63.8461C71.6121 64.6711 71.7028 65.4945 71.7896 66.3184L69.2072 80.9669C68.8953 81.5998 68.3882 81.9548 67.6867 82.0314L67.6873 82.0315ZM41.1289 61.662C41.1658 61.9399 41.1538 62.1737 41.2328 62.3713C41.3635 62.6976 41.525 63.0185 41.7218 63.3088C42.657 64.6879 43.9677 65.6355 45.4006 66.4278C47.7817 67.7452 50.3583 68.5173 52.9989 69.1024C54.9199 69.5282 56.8546 69.8978 58.7616 70.3771C60.8891 70.9117 62.9114 71.7368 64.7836 72.8971C66.267 73.8172 67.5716 74.9334 68.5329 76.4132C68.6259 76.5561 68.7162 76.7004 68.8292 76.878L70.5959 66.8569L41.1289 61.662ZM40.3236 66.623L40.277 66.8875C39.7961 69.6153 39.3152 72.343 38.8344 75.0707C38.7279 75.6743 38.8628 75.8685 39.4641 75.9745C48.724 77.6069 57.9839 79.2394 67.2438 80.8719C67.34 80.8889 67.438 80.896 67.5587 80.9109C67.5267 80.7571 67.5103 80.6334 67.4737 80.5164C67.4213 80.3482 67.3633 80.1797 67.2918 80.0189C66.7004 78.6922 65.7029 77.7172 64.5456 76.8908C62.6666 75.5493 60.5561 74.6947 58.345 74.111C56.5653 73.6415 54.7542 73.2886 52.9513 72.9109C50.8387 72.4686 48.7606 71.9172 46.757 71.105C45.0033 70.3947 43.3326 69.5337 41.9121 68.2642C41.3506 67.7628 40.8598 67.1816 40.3241 66.6238L40.3236 66.623ZM56.4935 48.6636L50.8296 47.6651C50.8226 47.7662 50.8126 47.8483 50.8121 47.9303C50.8035 51.5283 50.7987 55.1263 50.7831 58.7244C50.7822 58.9493 50.8476 59.0256 51.066 59.0635C54.7897 59.713 58.5122 60.3692 62.2334 61.0323C62.4554 61.0714 62.5385 61.0149 62.6134 60.8068C63.6677 57.8706 64.7322 54.9381 65.7931 52.0043C65.9714 51.5119 66.1439 51.0172 66.329 50.4935C63.2896 50.439 60.299 50.3854 57.2805 50.3313C57.2575 50.4614 57.2381 50.5717 57.2186 50.6821C56.9367 52.2815 56.6552 53.8816 56.3726 55.4809C56.2934 55.9304 56.0671 56.139 55.7303 56.0835C55.3899 56.0273 55.2445 55.7556 55.3224 55.3097C55.5001 54.2946 55.6804 53.2794 55.8593 52.2645C56.0689 51.0757 56.2785 49.8864 56.4942 48.6631L56.4935 48.6636ZM64.128 59.7464C63.9436 60.2587 63.7686 60.7428 63.5891 61.2414C63.7811 61.2956 63.944 61.3275 64.0955 61.3879C64.3534 61.4906 64.4832 61.7423 64.4246 61.9882C64.3646 62.2421 64.1449 62.403 63.8665 62.3876C63.7526 62.3808 63.6395 62.359 63.5266 62.3391C58.8186 61.5091 54.1101 60.679 49.4021 59.849C49.2892 59.8291 49.1753 59.8116 49.0661 59.7783C48.7992 59.6982 48.6478 59.4713 48.6782 59.2122C48.7078 58.9612 48.9152 58.7695 49.1927 58.7606C49.3558 58.7556 49.5197 58.7814 49.7206 58.7964C49.7205 58.2592 49.7202 57.7379 49.7203 57.2071C49.5982 57.1855 49.5168 57.1712 49.4354 57.1568C47.7123 56.8531 45.9894 56.5487 44.2655 56.2454C43.7654 56.1572 43.6243 56.2328 43.4072 56.6923C42.9719 57.6137 42.5362 58.5343 42.1027 59.4566C41.9239 59.8364 41.7491 60.2182 41.5666 60.6113L70.6358 65.7361C70.4931 64.2049 70.3576 62.7048 70.2104 61.2059C70.1825 60.9206 69.9858 60.7772 69.7087 60.7297C69.1032 60.6261 68.4981 60.5162 67.8931 60.4096C66.6529 60.1909 65.4127 59.9723 64.1275 59.7457L64.128 59.7464ZM68.3617 79.5623C68.5694 79.0662 68.3984 78.5751 68.1919 78.0911C67.5776 76.6523 66.5534 75.5435 65.3317 74.6072C63.1193 72.9127 60.5749 71.9224 57.9079 71.245C56.1234 70.7918 54.3023 70.4848 52.5041 70.0845C49.9061 69.5063 47.377 68.7209 45.0224 67.4476C43.4143 66.578 41.9569 65.5244 40.8844 64.0086C40.8707 63.989 40.8337 63.9857 40.8278 63.9833C40.552 64.538 40.7204 65.0395 41.0024 65.5246C41.0912 65.6776 41.1812 65.8308 41.2823 65.9751C42.2359 67.3397 43.5434 68.2873 44.9774 69.0767C47.3893 70.404 50.0001 71.1732 52.671 71.7598C54.1452 72.0833 55.6324 72.3505 57.1058 72.6783C59.0204 73.1042 60.8786 73.709 62.6548 74.5485C64.3523 75.3507 65.9299 76.3319 67.1436 77.7938C67.6031 78.3472 67.9657 78.9807 68.3624 79.5624L68.3617 79.5623Z" fill="white"/>
<path d="M63.9288 67.8341C63.4373 67.7474 62.9444 67.6688 62.4553 67.5718C62.0916 67.4994 61.9105 67.2787 61.9388 66.981C61.971 66.6504 62.2333 66.4614 62.6172 66.5234C63.2943 66.6326 63.9691 66.7579 64.6444 66.8769C64.9824 66.9365 65.3216 66.9887 65.6569 67.0599C65.9909 67.1309 66.1654 67.3606 66.1303 67.6494C66.0945 67.9463 65.84 68.1494 65.4962 68.1015C64.9717 68.0287 64.4518 67.9225 63.9295 67.8304L63.9288 67.8341Z" fill="white"/>
<path d="M68.3288 67.5398C68.5231 67.5741 68.7219 67.5933 68.9116 67.6464C69.1738 67.7206 69.3348 67.9689 69.2818 68.219C69.2275 68.4764 69.0661 68.6781 68.7894 68.6497C68.3579 68.6047 67.9259 68.5305 67.5063 68.4216C67.2425 68.3528 67.152 68.1156 67.2019 67.8472C67.2509 67.5838 67.4612 67.4295 67.7455 67.4364C67.7765 67.4374 67.8084 67.4367 67.8392 67.4421C68.0035 67.4698 68.1673 67.4999 68.3314 67.5289L68.3293 67.5406L68.3288 67.5398Z" fill="white"/>
<path d="M41.6319 71.4691C41.5724 71.8064 41.5185 72.1446 41.4518 72.48C41.3836 72.8201 41.1327 73.0092 40.8374 72.9603C40.5447 72.9113 40.3552 72.6477 40.4086 72.305C40.5151 71.6289 40.6334 70.9542 40.7653 70.282C40.8327 69.9391 41.0948 69.7692 41.396 69.828C41.7003 69.8874 41.8516 70.1328 41.8043 70.4874C41.8014 70.5079 41.7972 70.5281 41.7936 70.5485C41.7396 70.8549 41.6855 71.1613 41.6315 71.4678L41.6319 71.4691Z" fill="white"/>
<path d="M40.6429 74.024C40.9219 74.0719 41.1129 74.3338 41.0725 74.6134C41.031 74.9029 40.7488 75.1113 40.4648 75.0631C40.187 75.0161 39.9781 74.711 40.0348 74.4362C40.0909 74.165 40.3681 73.9774 40.6428 74.0246L40.6429 74.024Z" fill="white"/>
<path d="M45.4686 57.544C45.7239 57.589 45.9816 57.6242 46.2341 57.6815C46.5349 57.7498 46.7054 57.9947 46.668 58.2716C46.6338 58.5269 46.4011 58.7503 46.1164 58.7135C45.542 58.6389 44.9691 58.5379 44.4045 58.4079C44.1257 58.3441 43.9897 58.048 44.0523 57.7978C44.1176 57.5353 44.3507 57.3672 44.6401 57.403C44.9178 57.4367 45.192 57.4971 45.4677 57.5457L45.468 57.5439L45.4686 57.544Z" fill="white"/>
<defs>
<filter id="filter0_d_1672_189" x="0.433739" y="0.596581" width="119.45" height="120.489" filterUnits="userSpaceOnUse" color-interpolation-filters="sRGB">
<feFlood flood-opacity="0" result="BackgroundImageFix"/>
<feColorMatrix in="SourceAlpha" type="matrix" values="0 0 0 0 0 0 0 0 0 0 0 0 0 0 0 0 0 0 127 0" result="hardAlpha"/>
<feOffset dy="4"/>
<feGaussianBlur stdDeviation="17.7"/>
<feComposite in2="hardAlpha" operator="out"/>
<feColorMatrix type="matrix" values="0 0 0 0 0.929412 0 0 0 0 0.141176 0 0 0 0 0.329412 0 0 0 0.52 0"/>
<feBlend mode="normal" in2="BackgroundImageFix" result="effect1_dropShadow_1672_189"/>
<feBlend mode="normal" in="SourceGraphic" in2="effect1_dropShadow_1672_189" result="shape"/>
</filter>
</defs>
</svg>
