<svg width="121" height="122" viewBox="0 0 121 122" fill="none" xmlns="http://www.w3.org/2000/svg">
<g filter="url(#filter0_d_1672_192)">
<path d="M67.4036 80.802C54.2661 84.0415 40.3715 79.775 37.132 66.6375C33.8925 53.5001 39.9878 36.5797 53.1253 33.3402C66.2627 30.1007 80.8888 33.1569 84.1283 46.2943C87.3678 59.4318 80.541 77.5625 67.4036 80.802Z" fill="#E489A8"/>
</g>
<path d="M75.0177 68.0064C72.8602 73.1579 69.9305 77.7813 65.7611 81.5525C61.0715 85.7949 55.5591 88.1466 49.2865 88.7466C48.969 88.7772 48.755 88.6899 48.5385 88.4542C43.3567 82.8079 40.8716 76.1309 40.949 68.4766C41.0015 63.3121 42.1827 58.3857 44.143 53.6266C44.2957 53.2559 44.5515 53.1977 44.8957 53.2148C49.4735 53.4483 54.0518 53.6769 58.6298 53.9065C59.6647 53.9587 60.7021 53.9977 61.7354 54.0777C62.0009 54.0982 62.3055 54.1919 62.508 54.3563C66.8757 57.8941 71.2294 61.4484 75.5903 64.9939C75.8997 65.2459 76.0011 65.506 75.8362 65.8952C75.5437 66.5897 75.2885 67.3011 75.0181 68.0053L75.0177 68.0064ZM74.1495 67.7248C74.3239 67.2707 74.5063 66.7085 74.7555 66.1771C74.9383 65.7883 74.8459 65.5821 74.5224 65.3196C70.3889 61.9713 66.2703 58.6041 62.1388 55.254C61.9568 55.1066 61.6895 55 61.4567 54.9882C56.0691 54.7075 50.6817 54.4463 45.2941 54.1656C44.9868 54.1497 44.8698 54.2496 44.7788 54.5133C44.4288 55.5257 44.0333 56.522 43.7065 57.5408C42.3267 61.8427 41.6521 66.246 41.9343 70.7673C42.3351 77.1829 44.6837 82.7847 48.99 87.5505C49.1075 87.681 49.3432 87.7961 49.5083 87.7793C55.4781 87.1652 60.7144 84.8743 65.1731 80.8302C69.1763 77.1995 72.001 72.7555 74.1495 67.7248Z" fill="white"/>
<path d="M59.2688 79.5171C58.539 79.5368 57.9424 79.5521 57.2638 79.5695C57.1686 79.8174 57.0446 80.137 56.9233 80.4563C56.8011 80.7779 56.666 81.1397 56.2354 80.9783C55.8148 80.8206 55.9149 80.466 56.0482 80.1358C56.1771 79.8168 56.2964 79.4928 56.3972 79.2302C55.92 78.7768 55.487 78.3661 54.8944 77.8037C54.6777 77.9313 54.3487 78.1398 54.0064 78.3225C53.709 78.4824 53.4029 78.5071 53.2531 78.1315C53.1167 77.7882 53.3336 77.5961 53.6306 77.4774C53.9782 77.3381 54.3271 77.2019 54.6129 77.0892C54.5931 76.3782 54.5767 75.7694 54.558 75.086C54.2601 74.9716 53.8982 74.8327 53.5363 74.6937C53.2362 74.5785 53.0235 74.3869 53.1581 74.0429C53.2943 73.6983 53.5835 73.7111 53.8802 73.825C54.2298 73.9592 54.5804 74.0939 54.8951 74.2147C55.3441 73.7407 55.7638 73.2993 56.309 72.7226C56.1776 72.4872 55.9817 72.1508 55.8012 71.8048C55.6526 71.5202 55.6379 71.2327 55.9715 71.0725C56.3094 70.9113 56.5146 71.1091 56.6366 71.4093C56.7818 71.7702 56.9156 72.1371 57.0228 72.4187C57.758 72.3985 58.3668 72.3814 59.0329 72.3631C59.1515 72.0544 59.2917 71.6893 59.4314 71.3253C59.5491 71.0189 59.7589 70.8253 60.0909 70.958C60.4039 71.0833 60.4142 71.3588 60.3043 71.645C60.1641 72.0101 60.0239 72.3752 59.9032 72.6896C60.3802 73.1468 60.8218 73.5685 61.3781 74.1015C61.6313 73.966 61.9846 73.7681 62.3459 73.5862C62.6206 73.4486 62.8888 73.452 63.0378 73.7627C63.1985 74.0998 63.0136 74.3093 62.7117 74.4339C62.351 74.5837 61.9849 74.7211 61.6891 74.8364C61.7111 75.5482 61.7298 76.1579 61.7515 76.8437C62.0448 76.9564 62.4079 77.0958 62.7709 77.2352C63.0744 77.3517 63.2832 77.5535 63.1509 77.888C63.019 78.2213 62.7064 78.2629 62.4307 78.0976C61.703 77.6617 61.1346 77.7046 60.6888 78.5096C60.5666 78.7303 60.2879 78.865 59.9449 79.0863C60.1368 79.4432 60.3369 79.7954 60.5178 80.1571C60.6544 80.4293 60.6562 80.7002 60.3428 80.8514C60.0075 81.0123 59.7965 80.833 59.672 80.5292C59.5231 80.1681 59.3835 79.8029 59.2687 79.5106L59.2688 79.5171ZM57.1784 78.4687C58.5576 79.0048 60.1025 78.3335 60.6427 76.9636C61.1947 75.5632 60.5211 74.009 59.128 73.4689C57.7248 72.9249 56.1877 73.6095 55.6511 75.017C55.1218 76.4054 55.7981 77.9322 57.1784 78.4687Z" fill="white"/>
<path d="M51.3227 67.7965C50.8306 67.3283 50.3991 66.9169 49.8431 66.3866C49.6011 66.5199 49.2643 66.7152 48.9184 66.8939C48.6318 67.0425 48.3449 67.0539 48.1894 66.72C48.0314 66.3826 48.2287 66.1778 48.5308 66.056C48.8913 65.9099 49.2552 65.7717 49.5358 65.6622C49.5175 64.9273 49.5015 64.3173 49.4849 63.6554C49.1724 63.5354 48.8094 63.396 48.4452 63.2562C48.1384 63.1383 47.9495 62.9249 48.0855 62.5944C48.2134 62.2815 48.4882 62.2745 48.7736 62.3841C49.1378 62.524 49.502 62.6638 49.8122 62.7829C50.2718 62.3013 50.6946 61.8586 51.222 61.3047C51.0925 61.061 50.9048 60.72 50.7286 60.3731C50.5848 60.089 50.5523 59.8011 50.8913 59.6404C51.2583 59.4671 51.4501 59.6998 51.5789 60.0092C51.7232 60.3555 51.8655 60.7036 51.9817 60.9888C52.6701 60.9661 53.2787 60.9463 53.9621 60.923C54.0755 60.6278 54.2148 60.265 54.3546 59.901C54.4714 59.5968 54.6743 59.3877 55.0075 59.5208C55.3396 59.6535 55.3422 59.9454 55.2251 60.247C55.0895 60.597 54.956 60.9478 54.8353 61.2622C55.3075 61.7151 55.7469 62.1359 56.3027 62.67C56.5575 62.5338 56.9097 62.3355 57.2717 62.1551C57.5448 62.0182 57.8143 62.0183 57.9631 62.3327C58.1223 62.6706 57.9378 62.879 57.6359 63.0035C57.2753 63.1534 56.9098 63.2923 56.6179 63.4078C56.6365 64.1183 56.6525 64.7282 56.6713 65.4181C56.9759 65.5351 57.3513 65.6793 57.7255 65.823C58.0133 65.9335 58.199 66.1315 58.079 66.4475C57.9605 66.7562 57.6926 66.802 57.4014 66.6941C57.0355 66.5587 56.6715 66.4151 56.3287 66.2834C55.892 66.7454 55.4753 67.1892 54.9076 67.791C55.0353 68.0094 55.2413 68.3393 55.4231 68.6819C55.5818 68.9808 55.6032 69.2877 55.2289 69.4362C54.8865 69.5723 54.6971 69.3535 54.5772 69.0579C54.4355 68.7113 54.2928 68.3643 54.1748 68.0772C53.4823 68.097 52.8735 68.114 52.1967 68.1334C52.0807 68.4354 51.9432 68.8002 51.8017 69.1622C51.6847 69.4599 51.49 69.6748 51.1483 69.5371C50.8038 69.3996 50.8217 69.1078 50.934 68.8122C51.0674 68.4613 51.2031 68.1113 51.3234 67.7981L51.3227 67.7965ZM52.0974 67.0286C53.4786 67.5693 55.0171 66.9047 55.5618 65.53C56.1172 64.1271 55.4499 62.5701 54.0611 62.029C52.6812 61.4914 51.1383 62.1608 50.5954 63.531C50.0381 64.9384 50.7008 66.4807 52.0974 67.0286Z" fill="white"/>
<path d="M61.3573 66.787C59.9278 66.2342 59.2075 64.6104 59.7561 63.1816C60.3035 61.7562 61.9338 61.0272 63.3631 61.567C64.8126 62.1146 65.5313 63.7495 64.9638 65.2072C64.4049 66.6424 62.8014 67.3455 61.3573 66.787ZM63.0366 62.4476C62.0677 62.0755 60.9992 62.5509 60.6275 63.5188C60.2562 64.4856 60.7354 65.5617 61.6998 65.932C62.6552 66.2989 63.7517 65.8111 64.1171 64.8562C64.4858 63.8962 64.002 62.8183 63.037 62.4464L63.0366 62.4476Z" fill="white"/>
<path d="M47.0698 72.7019C47.5543 71.4605 48.9569 70.8406 50.1882 71.3251C51.4207 71.81 52.0265 73.2114 51.5434 74.4559C51.0614 75.6944 49.6476 76.3164 48.4225 75.8292C47.1839 75.3368 46.5844 73.9493 47.0703 72.7007L47.0698 72.7019ZM48.7715 74.9573C49.5433 75.2549 50.4075 74.8718 50.6961 74.1034C50.9834 73.3384 50.5837 72.4648 49.8185 72.1838C49.0634 71.9068 48.2192 72.2847 47.9243 73.0326C47.6212 73.8018 47.9976 74.6588 48.7704 74.9569L48.7715 74.9573Z" fill="white"/>
<path d="M63.7503 72.1692C62.6496 71.744 62.1094 70.5345 62.5252 69.4284C62.9452 68.3109 64.1856 67.7542 65.2971 68.1849C66.3849 68.6065 66.9384 69.8418 66.5283 70.9333C66.1111 72.0466 64.8666 72.6005 63.7514 72.1697L63.7503 72.1692ZM64.0804 71.3095C64.6932 71.5474 65.3987 71.2417 65.6467 70.6296C65.898 70.0086 65.5706 69.2661 64.9417 69.0362C64.3219 68.8099 63.6329 69.1297 63.3959 69.7537C63.1576 70.381 63.4602 71.0674 64.0804 71.3095Z" fill="white"/>
<defs>
<filter id="filter0_d_1672_192" x="0.876488" y="0.747948" width="119.45" height="120.489" filterUnits="userSpaceOnUse" color-interpolation-filters="sRGB">
<feFlood flood-opacity="0" result="BackgroundImageFix"/>
<feColorMatrix in="SourceAlpha" type="matrix" values="0 0 0 0 0 0 0 0 0 0 0 0 0 0 0 0 0 0 127 0" result="hardAlpha"/>
<feOffset dy="4"/>
<feGaussianBlur stdDeviation="17.7"/>
<feComposite in2="hardAlpha" operator="out"/>
<feColorMatrix type="matrix" values="0 0 0 0 0.929412 0 0 0 0 0.141176 0 0 0 0 0.329412 0 0 0 0.52 0"/>
<feBlend mode="normal" in2="BackgroundImageFix" result="effect1_dropShadow_1672_192"/>
<feBlend mode="normal" in="SourceGraphic" in2="effect1_dropShadow_1672_192" result="shape"/>
</filter>
</defs>
</svg>
