<svg xmlns="http://www.w3.org/2000/svg" width="296" height="71" fill="none" xmlns:v="https://vecta.io/nano"><path d="M106.083 14.542l-.235.581c-1.298 2.884-3.414 4.908-6.379 6.026-.897.338-1.84.444-2.773.252-2.159-.444-3.01-2.277-2.809-4.059.201-1.804 1.065-3.301 2.233-4.64 1.281-1.468 2.802-2.605 4.665-3.243.072-.024.139-.06.269-.12-.103-.245-.18-.494-.307-.717-1.559-2.778-3.975-4.136-7.117-3.932-3.07.199-5.253 1.83-6.481 4.68-.084.192-.137.398-.213.595-.204.509-.463.576-.847.194l-1.684-1.73-.847-.861c-.333-.326-.372-.696-.185-1.104l.132-.254c2.013-3.411 4.956-5.506 8.88-6.079 6.201-.904 11.823 2.946 13.488 8.711.026.091.067.182.077.276.033.333.218.47.54.566 1.715.504 3.26 1.336 4.588 2.536 2.675 2.411 4.052 5.414 4.136 9.023.129 5.614-3.788 10.879-9.763 12.129a8.31 8.31 0 0 1-1.538.187c-1.302.026-2.607.005-3.91.012-.592.002-1.065-.218-1.475-.645l-5.877-6.077c-.079-.082-.163-.166-.226-.259-.223-.343-.084-.65.314-.71.094-.014.192-.007.288-.007l4.083-.002c.629-.005 1.144.185 1.581.662.633.693 1.32 1.336 1.967 2.015a1.21 1.21 0 0 0 .967.405c1.07-.031 2.14.06 3.202-.204 3.536-.878 5.98-4.186 5.717-7.813-.202-2.8-1.548-4.877-4.033-6.204-.115-.062-.242-.106-.429-.185v-.005zm-3.26-1.922c-.175.01-.367-.012-.537.036-.365.105-.739.213-1.075.384a7.9 7.9 0 0 0-3.382 3.253c-.175.314-.305.66-.415 1.005-.065.204-.043.434-.062.645 2.111.3 5.789-3.385 5.469-5.323h.003zM11.008 47.593c.055-1.756.345-3.443 1.115-5.026 1.341-2.761 3.589-4.321 6.568-4.848 1.636-.29 3.286-.264 4.903.156 3.092.806 5.188 2.73 6.194 5.76a12.2 12.2 0 0 1-.043 8.013c-1.053 3.032-3.161 4.959-6.297 5.717-2.037.492-4.076.451-6.067-.189-3.332-1.075-5.248-3.45-6.009-6.799-.206-.909-.245-1.854-.362-2.783h-.002zm4.905-.026l.005 1.207c.091 1.135.312 2.238.88 3.246s1.403 1.653 2.531 1.922a6.12 6.12 0 0 0 2.281.115c1.387-.192 2.452-.852 3.102-2.102.235-.456.429-.945.556-1.442.425-1.658.437-3.335.173-5.019-.127-.799-.353-1.569-.744-2.281-.523-.95-1.288-1.615-2.341-1.907a5.81 5.81 0 0 0-3.234.012c-1.437.417-2.257 1.451-2.735 2.802-.393 1.115-.523 2.274-.47 3.452l-.005-.005zm52.308 6.916l-.401.458c-.859.88-1.885 1.507-3.03 1.931-2.262.842-4.591 1.063-6.952.552-2.905-.629-5.035-2.301-6.227-5.04-1.281-2.946-1.442-5.983-.348-9.02 1.24-3.438 4.318-5.63 7.971-5.786 1.135-.048 2.26-.012 3.361.305 3.013.864 4.788 2.893 5.532 5.885.271 1.087.314 2.198.245 3.313a2.37 2.37 0 0 1-.108.561.67.67 0 0 1-.633.501l-.688.019h-10.93l-.811.031c.055.461.06.866.161 1.245.178.681.333 1.387.638 2.018.784 1.624 2.161 2.418 3.929 2.596 1.559.156 3.006-.187 4.366-.948l.962-.518c.746-.365 1.233-.249 1.758.398l1.204 1.502v-.002zm-3.958-9.19l-.12-1.051c-.293-1.751-1.411-2.958-3.09-3.291-.427-.084-.878-.086-1.315-.074-1.9.053-3.224.969-3.951 2.72-.161.386-.271.797-.381 1.202-.046.173-.031.36-.043.535.739.12 8.41.091 8.902-.041h-.002zM42.451 57.374h-1.972-1.667c-.578 0-.581-.002-.789-.525l-3.08-7.739-2.792-7.051c-.151-.386-.353-.588-.78-.617-.417-.029-.83-.132-1.243-.221-.585-.125-.909-.451-.931-1.01l-.007-2.334h9.422c.017.132.048.278.05.427v1.61c-.01.854-.281 1.171-1.111 1.331l-.876.187c1.168 3.745 2.857 7.269 3.687 11.155.084-.137.156-.209.17-.288.314-1.785.983-3.457 1.614-5.143l1.871-5.064c.065-.178.122-.36.206-.609l-1.072-.23c-.861-.165-1.106-.446-1.113-1.312l.007-1.84c0-.055.022-.113.031-.166.432-.127 7.727-.18 9.324-.067.026.094.082.197.082.302v1.955c-.019.645-.309.969-.952 1.106-.413.086-.825.187-1.243.221-.403.031-.595.216-.736.585l-2.406 6.091-3.452 8.703c-.062.158-.137.314-.24.549l-.005-.007z" fill="#f08"/><path d="M110.439 49.284l-.252-.235c-2.053-1.706-2.583-3.934-2.051-6.427.516-2.416 2.128-3.898 4.469-4.551 2.241-.624 4.435-.463 6.522.648.207.11.473.151.71.156l3.968.007h.696l-.008 1.171a.66.66 0 0 1-.532.607c-.24.058-.49.084-.737.106l-1.799.139.252.609c.818 2.087.768 4.131-.415 6.067-1 1.641-2.557 2.497-4.402 2.845-1.448.271-2.9.23-4.325-.182-.314-.091-.57-.053-.784.178-.283.307-.6.602-.806.96-.436.761-.199 1.471.576 1.883.674.357 1.415.48 2.159.535l4.015.247c1.183.089 2.377.158 3.502.578.55.204 1.101.463 1.574.806 1.322.96 1.571 2.344 1.334 3.85-.207 1.322-.902 2.387-1.893 3.265-1.317 1.164-2.883 1.826-4.589 2.106-2.216.365-4.428.295-6.589-.41-.938-.305-1.811-.734-2.557-1.389-1.368-1.2-1.926-2.687-1.519-4.486.235-1.039.864-1.826 1.706-2.447.381-.283.796-.521 1.228-.797l-.312-.269c-1.096-.77-1.312-2.188-.955-3.243.26-.768.739-1.379 1.334-1.91l.48-.417zm4.776 13.497l.919-.002c1.372-.103 2.684-.42 3.862-1.166.693-.439 1.278-.995 1.58-1.773.547-1.408.195-2.569-1.285-3.104-.197-.072-.394-.163-.598-.197l-2.382-.343-4.809-.345c-.151-.01-.322-.029-.453.024-.912.377-1.764.849-2.356 1.675-.861 1.195-.71 2.687.365 3.697.467.439 1.017.741 1.614.969 1.142.434 2.327.609 3.545.566h-.002zm-.11-14.094l1.42-.18c1.631-.362 2.768-1.305 3.164-2.96.151-.641.18-1.334.124-1.991-.146-1.78-1.293-3.107-3.012-3.577-1.133-.309-2.275-.317-3.404.002-1.473.417-2.505 1.334-2.879 2.838-.158.638-.194 1.331-.144 1.991.118 1.552.902 2.696 2.327 3.368.758.358 1.564.497 2.406.511l-.002-.002zm-44.342 8.142V35.497l-1.302-.096-.631-.048c-.473-.082-.756-.367-.796-.847-.034-.377-.007-.758-.007-1.123.463-.156 4.572-.185 5.236-.031v7.144l.12.065.365-.285 1.907-1.468c1.41-.878 2.977-1.161 4.627-1.034.751.058 1.483.18 2.185.444 1.907.717 3.178 2.08 3.96 3.932.528 1.25.777 2.567.88 3.908.149 1.96.077 3.906-.52 5.803-.789 2.497-2.252 4.419-4.694 5.501-1.384.612-2.845.739-4.335.629-2.219-.163-4.402-.576-6.577-1.022-.11-.024-.218-.072-.417-.139zm2.521-1.725l.302.084 4.023.652c1.689.187 3.291-.108 4.654-1.219 1.13-.921 1.761-2.154 2.14-3.529.494-1.802.509-3.634.29-5.474-.127-1.07-.369-2.114-.878-3.075-.619-1.171-1.538-2.006-2.823-2.373-1.953-.559-3.792-.314-5.472.871-.71.501-1.31 1.118-1.861 1.787-.271.326-.384.669-.381 1.099l.007 10.524v.657-.005z" fill="#2d1d88"/><path d="M.89 33.698h7.506v19.936l1.442.283.341.05c.871.185 1.118.487 1.123 1.382l-.017 1.84c0 .034-.031.067-.07.142H.935c-.019-.127-.055-.254-.058-.382v-1.782c.012-.665.266-.991.907-1.14l1.298-.24.643-.154V37.383l-1.576-.293c-.206-.041-.417-.074-.612-.146-.372-.139-.624-.422-.638-.813l-.01-2.43v-.002z" fill="#f08"/><path d="M89.455 40.267l-1.178-.07c-.305-.024-.612-.033-.909-.098-.398-.086-.629-.374-.66-.775s-.007-.796-.007-1.233h5.246v.7V50.29c0 .904.062 1.799.338 2.668.597 1.871 1.842 2.814 3.802 2.946 2.046.137 3.744-.612 5.232-1.943.852-.763 1.278-1.712 1.276-2.848V40.993v-.72l-.739-.062-.861-.019c-.799-.043-1.142-.396-1.156-1.19v-.938l5.258-.007v17.424c.775.288 1.562-.005 2.257.331l-1.245 1.962c-.751 0-1.573.019-2.394-.007-.518-.017-.758-.259-.83-.78-.055-.398-.053-.801-.081-1.204l-.075-.746-.544.487c-1.07.984-2.248 1.79-3.658 2.205a8.45 8.45 0 0 1-4.318.129c-2.363-.544-3.742-2.118-4.39-4.392-.269-.945-.367-1.914-.365-2.898v-9.543-.758z" fill="#2d1d88"/><path d="M86.089 28.879l.652.043 3.046.002a1.01 1.01 0 0 1 .806.346l3.394 3.515c.079.082.168.163.221.264.113.213.014.432-.225.482-.166.036-.343.031-.516.029l-11.097-.014c-.938 0-1.096-.156-1.067-1.118l.293-9.018.134-4.136.235-7.468.005-.173c-.007-.242.017-.518.285-.552.166-.022.391.122.528.254l2.245 2.305 1.084 1.111a1.1 1.1 0 0 1 .365.921l-.048 1.61-.341 10.915v.681z" fill="#f08"/><g fill="#2d1d88"><path d="M52.35 66.854c.861.393 1.223 1.065 1.192 1.984-.033 1.012-.676 1.833-1.691 1.936-.928.096-1.873.058-2.811.048-.336-.002-.46-.165-.499-.511-.017-.151-.007-.307-.007-.458v-5.285-.65l-.686-.151-.022-.497.489-.041h2.759c.228 0 .465 0 .686.055.696.17 1.233.557 1.406 1.284.185.775.067 1.487-.602 2.02a2.58 2.58 0 0 0-.17.151c-.012.012-.012.034-.041.115h-.002zm-3.068.413l-.024.485.005 2.126c0 .23.127.362.355.365l1.893-.026c.828-.091 1.278-.667 1.278-1.497s-.444-1.425-1.262-1.514c-.698-.077-1.41-.019-2.116-.017-.031 0-.065.038-.13.082v-.002zm0-.732l2.116-.005c.11 0 .223-.053.329-.098.523-.225.847-.823.77-1.415-.079-.617-.446-1.063-1.043-1.13-.588-.067-1.185-.046-1.778-.05-.125 0-.249.048-.391.077v2.622h-.002zm-8.729-3.437c2.252-.007 3.994 1.672 4.006 3.86A3.97 3.97 0 0 1 40.575 71c-2.207.007-3.994-1.758-4.016-3.963-.019-2.214 1.722-3.932 3.994-3.939zm.007.664c-1.823 0-3.255 1.423-3.241 3.236.014 1.706 1.245 3.296 3.246 3.33 1.79.029 3.231-1.487 3.236-3.335.007-1.816-1.418-3.234-3.243-3.232h.002zm21.971 3.212c.007-2.21 1.713-3.853 3.977-3.884 1.965-.029 3.999 1.423 4.011 3.927.01 2.205-1.799 3.98-3.996 3.982-2.245 0-3.999-1.766-3.992-4.025zm3.992-3.212c-1.833-.002-3.236 1.399-3.238 3.232 0 1.852 1.43 3.337 3.226 3.344 1.77.01 3.245-1.502 3.253-3.334.01-1.806-1.425-3.239-3.243-3.241h.002zm-38.93-.494c.11-.017.204-.041.295-.041l3.104.009c1.933.053 2.451 1.881 1.869 3.169-.163.36-.434.629-.78.816l-.422.216 1.295 2.449c.125.213.429.322.717.525v.314c-.06.041-.089.079-.12.082-.811.094-.967.017-1.331-.679l-.996-1.941a.93.93 0 0 0-.955-.585h-1.271l-.005 1.605v1.583h-.712v-6.868l-.684-.163v-.494l-.005.002zm1.427 3.719c.784.005 1.509.096 2.226-.065.674-.151 1.048-.686 1.07-1.447.022-.806-.326-1.403-.993-1.559-.748-.173-1.514-.091-2.3-.062v3.131l-.002.002zm-8.863.832v2.977h-.72v-6.878l-.688-.151v-.501l.348-.036 3.046.002c1.605.005 2.696 1.413 2.132 3.131-.29.888-.981 1.351-1.897 1.437-.494.048-.995.017-1.492.022h-.729v-.002zm.038-.619c.82.041 1.602.12 2.368-.089.727-.197 1.132-.852 1.106-1.684-.024-.763-.456-1.363-1.166-1.516-.751-.163-1.516-.084-2.308-.062V67.2zm74.928-1.96c-.065.012-.137.031-.211.034-.093 0-.189-.012-.305-.019-.022-.072-.062-.144-.06-.213.01-.47-.257-.753-.648-.928-1.183-.528-2.353-.552-3.433.228-1.108.799-1.456 1.955-1.235 3.253.216 1.288.955 2.21 2.233 2.598 1.077.329 2.08.072 3.001-.547l.456-.343.362.381c-.012.072-.007.12-.029.144-1.746 1.785-5.508 1.672-6.599-1.425-.691-1.962.094-4.066 1.854-4.911 1.29-.619 2.607-.535 3.879.077.746.36.907.787.734 1.67v.002zm3.406 4.7l.441-.509c.523.468 1.077.789 1.742.892a1.82 1.82 0 0 0 1.216-.225c.818-.473.931-1.511.216-2.126-.271-.233-.604-.398-.924-.569l-1.535-.775c-.427-.24-.753-.59-.892-1.079-.225-.787.065-1.617.782-2.044 1.003-.597 2.048-.554 3.068-.029.535.276.643.77.532 1.391l-.491.046c-.058-.06-.099-.084-.106-.115-.18-.732-.468-.979-1.223-1.039-.425-.034-.842-.005-1.226.211-.801.449-.9 1.372-.178 1.936.297.233.654.389.996.561l1.336.66c.88.521 1.212 1.238 1.048 2.166-.146.837-.827 1.468-1.782 1.636-1.163.206-2.14-.166-3.018-.991h-.002zm-22.34-6.103h-1.881c-.249 0-.398.113-.403.379 0 .094-.017.189-.031.336l-.542.029c-.031-.091-.065-.144-.067-.197-.062-1.305.12-1.154 1.108-1.156h4.481l.516.009c.283 0 .429.17.453.422.026.281.005.566.005.885h-.59l-.134-.597c-.468-.144-1.499-.163-2.173-.031-.077 1.123-.024 2.262-.033 3.402v3.483l-.662.031-.043-.71v-5.513-.77l-.002-.002zM58.53 70.213l.619.072.026.521c-.71.07-1.389.041-2.118.014l-.033-.528.6-.077c.137-.394.187-5.415.06-6.317l-.629-.134v-.509h2.094l.024.492-.619.134c-.127.422-.154 5.657-.024 6.328v.002zm25.851-.012l.643.086v.516h-2.089v-.504l.6-.091c.12-.456.137-5.741.019-6.319l-.621-.118v-.501h2.092l.031.497-.677.13v6.309l.002-.005zm43.356-38.95c1.554.019 2.753 1.274 2.741 2.867-.014 1.579-1.249 2.802-2.818 2.79-1.552-.012-2.756-1.274-2.737-2.867.019-1.586 1.252-2.809 2.814-2.79zm2.343 2.833c0-1.387-1.079-2.507-2.403-2.492-1.303.014-2.354 1.125-2.351 2.485 0 1.38 1.034 2.471 2.346 2.478 1.353.007 2.41-1.077 2.41-2.471h-.002z"/><path d="M127.122 35.538c-.319.118-.345-.079-.347-.288l-.01-1.72c-.012-.281-.062-.964.036-.969l.976-.002c.408.014.751.139.902.571.144.41.039.749-.29 1.024-.043.036-.094.067-.182.132l.748 1.231c-.259.134-.46.091-.604-.173l-.286-.561c-.158-.369-.405-.547-.873-.389l-.065 1.144h-.005zm.065-1.533c.401.014.792.175 1.06-.23.154-.23.144-.492-.043-.686-.285-.295-.64-.257-1.017-.13v1.048-.002zM140.79 47.2l-.12.708h-8.628l.12-.708h8.628zm14.07-3.48L153.396 52h-.84l1.164-6.6-4.104 6.6h-.612l-1.8-6.588L146.052 52h-.84l1.464-8.28h.888l1.956 7.176 4.452-7.176h.888zm.646 4.992c.12-.672.36-1.26.72-1.764a3.7 3.7 0 0 1 1.32-1.176 3.56 3.56 0 0 1 1.692-.42c.624 0 1.136.144 1.536.432s.66.656.78 1.104l.252-1.44h.84L161.494 52h-.84l.252-1.452c-.272.448-.664.82-1.176 1.116-.504.288-1.068.432-1.692.432-.52 0-.976-.108-1.368-.324s-.696-.52-.912-.912c-.216-.4-.324-.868-.324-1.404a4.17 4.17 0 0 1 .072-.744zm5.724.012c.04-.224.06-.424.06-.6 0-.624-.188-1.12-.564-1.488s-.864-.552-1.464-.552a2.84 2.84 0 0 0-1.308.312c-.4.208-.74.512-1.02.912-.28.392-.468.86-.564 1.404a3.82 3.82 0 0 0-.06.612c0 .632.184 1.132.552 1.5.376.36.864.54 1.464.54.448 0 .876-.108 1.284-.324.416-.216.764-.524 1.044-.924.288-.4.48-.864.576-1.392zm2.374-.012c.12-.672.36-1.26.72-1.764a3.67 3.67 0 0 1 1.332-1.176 3.56 3.56 0 0 1 1.692-.42c.576 0 1.068.14 1.476.42.416.28.696.644.84 1.092l.66-3.744h.84L169.592 52h-.84l.264-1.464c-.288.456-.684.832-1.188 1.128-.504.288-1.064.432-1.68.432-.792 0-1.428-.236-1.908-.708-.472-.48-.708-1.124-.708-1.932a4.17 4.17 0 0 1 .072-.744zm5.724.012c.04-.224.06-.424.06-.6 0-.624-.188-1.12-.564-1.488s-.864-.552-1.464-.552a2.84 2.84 0 0 0-1.308.312c-.4.208-.74.512-1.02.912-.28.392-.468.86-.564 1.404a3.82 3.82 0 0 0-.06.612c0 .632.184 1.132.552 1.5.376.36.864.54 1.464.54.448 0 .876-.108 1.284-.324.416-.216.764-.524 1.044-.924.288-.4.48-.864.576-1.392zm6.189-3.372c.552 0 1.024.108 1.416.324.392.208.688.496.888.864.208.368.312.788.312 1.26a3.1 3.1 0 0 1-.048.576l-.144.648h-5.436c-.024.152-.036.296-.036.432 0 .616.184 1.092.552 1.428.376.336.852.504 1.428.504.552 0 1.036-.132 1.452-.396s.72-.62.912-1.068h.9c-.272.64-.708 1.164-1.308 1.572-.592.4-1.284.6-2.076.6-.816 0-1.472-.232-1.968-.696-.488-.472-.732-1.112-.732-1.92a4.23 4.23 0 0 1 .072-.756 4.39 4.39 0 0 1 .72-1.788 3.74 3.74 0 0 1 1.356-1.176 3.79 3.79 0 0 1 1.74-.408zm1.704 3.048c.04-.224.06-.412.06-.564 0-.568-.18-1.004-.54-1.308s-.82-.456-1.38-.456c-.408 0-.8.088-1.176.264a2.73 2.73 0 0 0-.984.792c-.28.352-.472.776-.576 1.272h4.596zm7.092-4.188a.53.53 0 0 1-.372-.132c-.096-.096-.144-.22-.144-.372a.68.68 0 0 1 .216-.516c.144-.144.316-.216.516-.216.152 0 .272.044.36.132a.45.45 0 0 1 .144.348.76.76 0 0 1-.216.54.69.69 0 0 1-.504.216zm.192 1.236L183.353 52h-.84l1.152-6.552h.84zm5.01-.12c.672 0 1.208.184 1.608.552.408.36.612.888.612 1.584a3.7 3.7 0 0 1-.06.696l-.684 3.84h-.828l.66-3.744a3.43 3.43 0 0 0 .048-.588c0-.528-.144-.928-.432-1.2s-.692-.408-1.212-.408c-.632 0-1.172.2-1.62.6s-.74.988-.876 1.764v-.036L186.095 52h-.84l1.152-6.552h.84l-.204 1.128a2.83 2.83 0 0 1 1.068-.924c.432-.216.9-.324 1.404-.324zm8.265 4.896a2.31 2.31 0 0 0-.036.372c0 .256.068.436.204.54.144.096.376.144.696.144h.768l-.132.72h-.9c-.496 0-.868-.096-1.116-.288s-.372-.508-.372-.948a3.15 3.15 0 0 1 .048-.54l.72-4.068h-.912l.132-.708h.912l.288-1.644h.84l-.288 1.644h1.812l-.132.708H198.5l-.72 4.068zm7.182-4.896c.656 0 1.184.18 1.584.54s.6.892.6 1.596a3.7 3.7 0 0 1-.06.696l-.684 3.84h-.828l.66-3.744a3.43 3.43 0 0 0 .048-.588c0-.528-.144-.928-.432-1.2s-.692-.408-1.212-.408c-.632 0-1.172.2-1.62.6s-.74.988-.876 1.764v-.012L201.506 52h-.84l1.572-8.88h.84l-.612 3.444a2.71 2.71 0 0 1 1.08-.912 3.17 3.17 0 0 1 1.416-.324zm7.305.024c.552 0 1.024.108 1.416.324.392.208.688.496.888.864.208.368.312.788.312 1.26a3.1 3.1 0 0 1-.048.576l-.144.648h-5.436c-.024.152-.036.296-.036.432 0 .616.184 1.092.552 1.428.376.336.852.504 1.428.504.552 0 1.036-.132 1.452-.396s.72-.62.912-1.068h.9c-.272.64-.708 1.164-1.308 1.572-.592.4-1.284.6-2.076.6-.816 0-1.472-.232-1.968-.696-.488-.472-.732-1.112-.732-1.92a4.23 4.23 0 0 1 .072-.756 4.39 4.39 0 0 1 .72-1.788 3.74 3.74 0 0 1 1.356-1.176 3.79 3.79 0 0 1 1.74-.408zm1.704 3.048c.04-.224.06-.412.06-.564 0-.568-.18-1.004-.54-1.308s-.82-.456-1.38-.456c-.408 0-.8.088-1.176.264a2.73 2.73 0 0 0-.984.792c-.28.352-.472.776-.576 1.272h4.596zm7.584-4.788l-.936 5.268c-.048.248-.072.48-.072.696 0 .6.164 1.044.492 1.332.328.28.784.42 1.368.42.68 0 1.248-.2 1.704-.6.464-.4.772-1.016.924-1.848l.936-5.268h.84l-.936 5.268c-.184 1.056-.608 1.856-1.272 2.4-.656.536-1.436.804-2.34.804-.776 0-1.396-.2-1.86-.6s-.696-.996-.696-1.788c0-.256.024-.528.072-.816l.936-5.268h.84zm8.318 8.472c-.504 0-.948-.084-1.332-.252-.376-.168-.668-.404-.876-.708s-.312-.652-.312-1.044c0-.104.004-.184.012-.24h.828c-.016.256.028.504.132.744.112.232.3.428.564.588.272.152.62.228 1.044.228.592 0 1.064-.148 1.416-.444s.528-.696.528-1.2c0-.304-.084-.556-.252-.756-.16-.208-.36-.376-.6-.504-.24-.136-.568-.288-.984-.456a10.06 10.06 0 0 1-1.164-.528c-.288-.168-.528-.396-.72-.684-.184-.288-.26-.656-.228-1.104a2.01 2.01 0 0 1 .384-1.14 2.43 2.43 0 0 1 .996-.78c.424-.192.904-.288 1.44-.288.528 0 .98.092 1.356.276.384.176.668.42.852.732.192.312.276.656.252 1.032h-.876a1.09 1.09 0 0 0-.156-.636c-.112-.208-.296-.376-.552-.504-.248-.136-.556-.204-.924-.204-.568 0-1.032.14-1.392.42-.36.272-.54.644-.54 1.116 0 .28.08.516.24.708s.356.352.588.48.552.276.96.444c.472.192.852.372 1.14.54a2.3 2.3 0 0 1 .744.672c.208.28.312.632.312 1.056 0 .104-.004.184-.012.24a2.18 2.18 0 0 1-.408 1.116c-.24.336-.572.6-.996.792-.416.192-.904.288-1.464.288zm9.341-2.076h-3.828L234.306 52h-.888l4.524-8.28h.948l1.584 8.28h-.888l-.372-1.992zm-.132-.672l-.852-4.572-2.484 4.572h3.336zm-94.23 3.864h96.606v.6h-96.606v-.6z"/></g></svg>