<svg width="160" height="47" viewBox="0 0 160 47" fill="none" xmlns="http://www.w3.org/2000/svg">
<path d="M70.6244 9.62658C70.5616 9.77903 70.5181 9.89655 70.4666 10.0109C69.5955 11.9197 68.1753 13.2601 66.1851 14.0001C65.5829 14.224 64.9501 14.2939 64.3237 14.1668C62.8746 13.8731 62.3029 12.6598 62.4382 11.4798C62.5734 10.2856 63.1531 9.29467 63.9373 8.40853C64.7971 7.43664 65.818 6.6839 67.0691 6.26148C67.1174 6.2456 67.1625 6.22178 67.2494 6.18207C67.1802 6.02009 67.1287 5.85493 67.0433 5.70724C65.9967 3.86827 64.3752 2.96943 62.2659 3.10441C60.2049 3.23622 58.7396 4.3161 57.9152 6.20272C57.8588 6.32976 57.8234 6.46634 57.7719 6.59656C57.635 6.93323 57.4611 6.97769 57.2035 6.72519C56.8219 6.34882 56.4499 5.96133 56.0731 5.5802C55.8847 5.38963 55.698 5.19589 55.5047 5.01009C55.2809 4.79411 55.2552 4.54955 55.3808 4.27958C55.4081 4.22241 55.4355 4.16524 55.4693 4.11124C56.8203 1.85302 58.796 0.466647 61.4302 0.0871003C65.5925 -0.511598 69.3668 2.03724 70.4843 5.85335C70.502 5.91369 70.5294 5.97404 70.5358 6.03597C70.5583 6.25671 70.6823 6.34723 70.8981 6.41076C72.0494 6.74425 73.0863 7.29531 73.9784 8.08934C75.7737 9.68534 76.698 11.6736 76.7543 14.062C76.8413 17.7781 74.2119 21.2639 70.2009 22.0913C69.8628 22.1611 69.5133 22.2088 69.1688 22.2151C68.2944 22.2326 67.4185 22.2183 66.5442 22.2231C66.1464 22.2247 65.8292 22.0786 65.5539 21.7959C64.2432 20.4508 62.9245 19.1136 61.6089 17.7733C61.5558 17.7193 61.4995 17.6637 61.4576 17.6018C61.3078 17.3747 61.4012 17.1715 61.6685 17.1318C61.7313 17.1222 61.7973 17.127 61.8617 17.127C62.7747 17.127 63.6893 17.1317 64.6023 17.1254C65.0241 17.1222 65.3703 17.2477 65.6634 17.5637C66.0885 18.0227 66.549 18.4483 66.9837 18.8977C67.1657 19.0867 67.3702 19.1724 67.6326 19.1661C68.3508 19.1454 69.0689 19.2058 69.7822 19.0311C72.1557 18.4498 73.7964 16.2599 73.6193 13.8588C73.4841 12.0055 72.5807 10.6302 70.9126 9.75203C70.8353 9.71074 70.75 9.68216 70.6244 9.62975V9.62658ZM68.4361 8.35454C68.3186 8.36089 68.1898 8.3466 68.0754 8.37836C67.8307 8.44824 67.5795 8.5197 67.3541 8.63245C66.3783 9.12157 65.6183 9.84255 65.0837 10.7859C64.9662 10.9939 64.8792 11.2226 64.8052 11.4513C64.7617 11.5862 64.7762 11.7387 64.7633 11.8784C66.1803 12.077 68.6487 9.63769 68.4345 8.35454H68.4361Z" fill="#FF0088"/>
<path d="M6.80471 31.5053C6.84175 30.3428 7.03658 29.2264 7.55345 28.1783C8.45354 26.3504 9.96228 25.3182 11.9621 24.9688C13.0603 24.7767 14.1681 24.7941 15.2534 25.0721C17.3289 25.6056 18.7362 26.8793 19.4108 28.885C20.0034 30.6461 20.0002 32.4327 19.3819 34.1891C18.675 36.1964 17.2596 37.4716 15.1551 37.9735C13.7881 38.299 12.4194 38.272 11.083 37.848C8.84643 37.1365 7.55989 35.5644 7.04946 33.3474C6.91098 32.7456 6.88522 32.1199 6.80632 31.5053H6.80471ZM10.0975 31.4878C10.0975 31.7546 10.0798 32.0214 10.1008 32.2866C10.1619 33.0378 10.3101 33.7683 10.6917 34.4353C11.0717 35.1007 11.6337 35.5294 12.3904 35.7073C12.896 35.8264 13.4032 35.8534 13.9217 35.7835C14.8524 35.6565 15.5673 35.2198 16.0037 34.3924C16.1615 34.0906 16.2919 33.7667 16.3773 33.438C16.6623 32.3406 16.6703 31.2305 16.4932 30.1157C16.4079 29.5869 16.2565 29.0771 15.994 28.6055C15.643 27.9766 15.1294 27.5367 14.4225 27.343C13.7011 27.1445 12.9733 27.1445 12.252 27.3509C11.2875 27.6272 10.7368 28.3117 10.4164 29.2058C10.1523 29.9442 10.0653 30.7113 10.1008 31.491L10.0975 31.4878Z" fill="#FF0088"/>
<path d="M45.2092 36.0662C45.1062 36.1837 45.0289 36.2806 44.9403 36.3695C44.3639 36.9523 43.6747 37.3668 42.9067 37.6479C41.3882 38.2053 39.8248 38.3514 38.2403 38.0132C36.2904 37.5971 34.8606 36.4902 34.0603 34.6766C33.2005 32.7265 33.0926 30.716 33.8268 28.7055C34.6593 26.4298 36.7252 24.9784 39.1775 24.8751C39.9391 24.8434 40.6943 24.8672 41.4333 25.0768C43.4557 25.6485 44.6473 26.992 45.1464 28.9723C45.3284 29.6917 45.3574 30.427 45.3107 31.1654C45.3026 31.2909 45.2768 31.4164 45.2382 31.537C45.1754 31.7371 45.0289 31.8531 44.8131 31.8689C44.6585 31.8801 44.504 31.8817 44.351 31.8817C41.9051 31.8817 39.4609 31.8817 37.015 31.8817C36.8507 31.8817 36.6881 31.8928 36.4707 31.9023C36.5078 32.2072 36.511 32.4756 36.5786 32.7265C36.6978 33.1775 36.8024 33.6444 37.0069 34.0621C37.5335 35.1372 38.4577 35.6628 39.6444 35.7803C40.691 35.8836 41.662 35.6565 42.575 35.1531C42.7875 35.0355 43.0017 34.9164 43.2206 34.81C43.7214 34.5686 44.0483 34.6449 44.4009 35.0737C44.6666 35.3976 44.929 35.7232 45.2092 36.0678V36.0662ZM42.5524 29.9823C42.5266 29.7552 42.5105 29.5186 42.4719 29.2868C42.2755 28.1275 41.5251 27.3287 40.398 27.1079C40.1114 27.0524 39.8087 27.0508 39.5156 27.0587C38.2403 27.0936 37.3515 27.7003 36.8636 28.8596C36.7557 29.1153 36.6817 29.3868 36.6076 29.6552C36.577 29.7695 36.5867 29.8934 36.5786 30.0093C37.0746 30.0887 42.2239 30.0697 42.554 29.9823H42.5524Z" fill="#FF0088"/>
<path d="M27.911 37.9798C27.4602 37.9798 27.0238 37.9798 26.5874 37.9798C26.2139 37.9798 25.8403 37.9798 25.4684 37.9798C25.0803 37.9798 25.0787 37.9782 24.9386 37.632C24.2495 35.9248 23.5603 34.2161 22.8711 32.5089C22.2448 30.9542 21.6136 29.4011 20.9969 27.8416C20.8954 27.5859 20.7602 27.4525 20.4736 27.4335C20.1934 27.4144 19.9164 27.3461 19.6395 27.2874C19.2466 27.2048 19.0292 26.9888 19.0147 26.6188C18.9954 26.1138 19.0099 25.6072 19.0099 25.0736H25.3347C25.346 25.161 25.3669 25.2579 25.3685 25.3563C25.3734 25.712 25.3734 26.0662 25.3685 26.4219C25.3621 26.9872 25.1801 27.1969 24.623 27.3033C24.4378 27.3382 24.2527 27.3811 24.0353 27.4271C24.8195 29.9061 25.953 32.239 26.5101 34.8116C26.5665 34.7211 26.6148 34.6735 26.6245 34.6211C26.8354 33.4395 27.2846 32.3327 27.7081 31.2163C28.13 30.0998 28.547 28.9819 28.9641 27.8639C29.0075 27.7463 29.0462 27.6256 29.1025 27.4605C28.8497 27.4065 28.6179 27.3525 28.3828 27.308C27.8047 27.1985 27.6405 27.0127 27.6357 26.4394C27.6324 26.0328 27.6357 25.6279 27.6405 25.2213C27.6405 25.1848 27.655 25.1467 27.6614 25.1117C27.9513 25.0276 32.8478 24.9926 33.9202 25.0673C33.9379 25.1292 33.975 25.1975 33.975 25.2674C33.9798 25.6993 33.9862 26.1297 33.975 26.5616C33.9621 26.9888 33.7673 27.2032 33.3357 27.2937C33.0588 27.3509 32.7818 27.4176 32.5016 27.4398C32.2311 27.4605 32.1023 27.5828 32.0073 27.8273C31.4776 29.1756 30.9317 30.5159 30.3923 31.8594C29.6194 33.7794 28.8481 35.7009 28.0752 37.6209C28.0334 37.7257 27.9835 37.8289 27.9142 37.9846L27.911 37.9798Z" fill="#FF0088"/>
<path d="M73.5485 32.6249C73.4728 32.5534 73.4277 32.5089 73.3794 32.4692C72.0011 31.3401 71.6452 29.8648 72.0027 28.2148C72.3489 26.6156 73.4309 25.6342 75.0025 25.2023C76.5064 24.7894 77.9797 24.8958 79.3805 25.631C79.519 25.7041 79.6978 25.7311 79.8572 25.7343C80.7444 25.7438 81.6332 25.739 82.5204 25.739C82.6605 25.739 82.799 25.739 82.9874 25.739C82.9874 26.0201 83.0051 26.2694 82.9825 26.514C82.9648 26.7173 82.8328 26.8666 82.6251 26.9158C82.4641 26.9539 82.2966 26.9714 82.1307 26.9857C81.7475 27.019 81.3643 27.0444 80.9231 27.0778C80.9891 27.2366 81.0439 27.3573 81.0922 27.4811C81.6413 28.8627 81.6074 30.2158 80.8136 31.4973C80.1422 32.5836 79.0972 33.1505 77.8589 33.3808C76.8864 33.5602 75.9122 33.5332 74.9558 33.2601C74.7448 33.1997 74.5725 33.2252 74.4292 33.3776C74.2392 33.5809 74.0267 33.7762 73.8882 34.0128C73.5952 34.5162 73.7546 34.9863 74.2747 35.2595C74.7271 35.4961 75.2247 35.5771 75.7238 35.6136C76.6207 35.6819 77.5224 35.7105 78.4193 35.7772C79.2131 35.8359 80.015 35.882 80.7701 36.1599C81.1389 36.2949 81.5092 36.4664 81.8264 36.6935C82.7136 37.3287 82.8811 38.245 82.7217 39.2423C82.5832 40.1173 82.1163 40.8224 81.4513 41.4037C80.5673 42.1739 79.5158 42.6122 78.371 42.798C76.8832 43.0394 75.3986 42.9933 73.9478 42.5264C73.3182 42.3247 72.7321 42.0405 72.2313 41.6069C71.3135 40.8129 70.9384 39.8283 71.2121 38.6373C71.3699 37.9496 71.7918 37.4287 72.3569 37.0174C72.613 36.83 72.8915 36.6728 73.1813 36.4902C73.1024 36.4235 73.0429 36.3616 72.972 36.3123C72.2362 35.8026 72.0912 34.864 72.3312 34.1653C72.5051 33.6571 72.8271 33.2521 73.2264 32.9012C73.3214 32.8186 73.418 32.736 73.5485 32.6249ZM76.7543 41.5593C76.9604 41.5593 77.1665 41.572 77.371 41.5577C78.2921 41.4894 79.1728 41.2798 79.9634 40.7859C80.4288 40.4953 80.8217 40.1269 81.0246 39.6123C81.3917 38.6801 81.155 37.9115 80.1615 37.5574C80.0295 37.5097 79.8974 37.4494 79.7606 37.4272C79.2292 37.343 78.6962 37.2477 78.1616 37.2001C77.086 37.108 76.0088 37.0444 74.9332 36.9714C74.8318 36.965 74.7175 36.9523 74.6289 36.9873C74.017 37.2366 73.4454 37.5494 73.0477 38.0957C72.4696 38.8866 72.5711 39.8744 73.2924 40.5429C73.6064 40.8335 73.9752 41.0336 74.3761 41.1845C75.1426 41.4719 75.938 41.5879 76.756 41.5593H76.7543ZM76.6803 32.2294C76.9975 32.1913 77.3211 32.1786 77.6335 32.1103C78.7284 31.8705 79.4917 31.2464 79.7573 30.1507C79.8588 29.7267 79.8781 29.2677 79.8411 28.8326C79.7429 27.6542 78.9732 26.776 77.8187 26.4648C77.0587 26.2599 76.2922 26.2552 75.5338 26.4664C74.5452 26.7427 73.8528 27.3493 73.6016 28.345C73.4953 28.7675 73.4712 29.2264 73.505 29.6631C73.5839 30.6906 74.1104 31.4481 75.0669 31.8928C75.5757 32.1294 76.1167 32.2215 76.6819 32.231L76.6803 32.2294Z" fill="#E8E4E1"/>
<path d="M46.916 37.6193V23.4983C46.6004 23.476 46.3219 23.4554 46.0417 23.4348C45.9 23.4252 45.7567 23.4268 45.6182 23.403C45.301 23.349 45.111 23.16 45.0836 22.8424C45.0611 22.5931 45.0788 22.3406 45.0788 22.0992C45.3896 21.996 48.1478 21.9769 48.5938 22.0786V26.8078C48.6212 26.8221 48.647 26.8364 48.6743 26.8507C48.7565 26.7872 48.837 26.7236 48.9191 26.6617C49.3442 26.3346 49.7451 25.9693 50.1992 25.6898C51.146 25.1086 52.1974 24.9212 53.3052 25.0054C53.8092 25.0435 54.3003 25.1245 54.7721 25.2991C56.0522 25.774 56.9056 26.676 57.4305 27.902C57.7848 28.7294 57.9522 29.6012 58.0215 30.4889C58.1213 31.7864 58.073 33.0743 57.6721 34.3304C57.1423 35.9836 56.1601 37.2556 54.5209 37.9719C53.5918 38.3768 52.6112 38.461 51.6113 38.3879C50.1219 38.2799 48.6566 38.0068 47.1962 37.7114C47.1221 37.6955 47.0497 37.6638 46.916 37.6193ZM48.6083 36.4775C48.7146 36.5077 48.7613 36.5251 48.8112 36.5331C49.7113 36.6808 50.6066 36.865 51.5115 36.965C52.6451 37.0889 53.7207 36.8936 54.6352 36.1583C55.3936 35.5485 55.8171 34.7322 56.0715 33.8223C56.4032 32.6296 56.4129 31.4163 56.2664 30.1983C56.181 29.49 56.0184 28.7992 55.677 28.1624C55.2616 27.3874 54.6449 26.8348 53.7818 26.5918C52.4712 26.2218 51.2361 26.3838 50.109 27.1683C49.6324 27.5002 49.2299 27.9083 48.8595 28.3514C48.6776 28.5674 48.6019 28.7945 48.6035 29.0787C48.6132 31.4005 48.6083 33.7222 48.6083 36.0455V36.4807V36.4775Z" fill="#E8E4E1"/>
<path d="M0.0129547 22.3072H5.05122V35.504C5.39741 35.5707 5.70818 35.6326 6.01894 35.6914C6.09462 35.7057 6.17191 35.7089 6.24759 35.7248C6.83209 35.847 6.99793 36.0471 7.00115 36.6395C7.00115 37.046 6.99632 37.451 6.98988 37.8575C6.98988 37.8798 6.96895 37.902 6.94319 37.9512H0.0435483C0.0306668 37.8671 0.00651401 37.7829 0.00490382 37.6987C7.32705e-05 37.3049 -0.0031471 36.9126 0.00490382 36.5188C0.0129547 36.0789 0.183634 35.8629 0.613554 35.7645C0.900166 35.6978 1.19483 35.6612 1.48466 35.6057C1.62153 35.5802 1.75678 35.5421 1.91619 35.504V24.7465C1.55873 24.6814 1.20771 24.6195 0.858302 24.5528C0.719826 24.5258 0.578129 24.5035 0.447705 24.4559C0.198126 24.3638 0.0290566 24.1764 0.0193955 23.9175C-0.00153691 23.3887 0.0129547 22.8599 0.0129547 22.3088V22.3072Z" fill="#FF0088"/>
<path d="M59.4626 26.6553C59.176 26.6395 58.9248 26.6284 58.672 26.6093C58.4675 26.5934 58.2614 26.5871 58.0617 26.5442C57.7944 26.487 57.6398 26.2964 57.6189 26.0312C57.598 25.7692 57.6141 25.504 57.6141 25.215H61.1356C61.1356 25.3801 61.1356 25.5294 61.1356 25.6787C61.1356 28.2164 61.1372 30.7525 61.1356 33.2903C61.1356 33.889 61.1774 34.4813 61.3626 35.0562C61.7635 36.2949 62.5992 36.919 63.9147 37.0063C65.2882 37.0968 66.4282 36.6014 67.4265 35.72C67.9987 35.215 68.2842 34.5866 68.2832 33.835C68.2832 31.6022 68.2832 29.3693 68.2832 27.1365V26.6601C68.0883 26.6426 67.9386 26.6252 67.7872 26.6188C67.594 26.6109 67.4008 26.6156 67.2092 26.6061C66.673 26.5775 66.4427 26.3441 66.4331 25.8184C66.4298 25.6295 66.4331 25.4421 66.4331 25.1975C67.6117 25.1896 68.7598 25.1959 69.9626 25.1927V36.7268C70.4827 36.9174 71.0108 36.7236 71.4778 36.946C71.1976 37.3811 70.9319 37.794 70.6421 38.245C70.1381 38.245 69.5858 38.2577 69.0351 38.2402C68.6873 38.2291 68.5263 38.0687 68.478 37.7241C68.441 37.4605 68.4426 37.1937 68.4232 36.9269C68.4136 36.7935 68.3975 36.6601 68.3733 36.433C68.2075 36.5791 68.106 36.6665 68.0078 36.7554C67.2897 37.4065 66.4991 37.9401 65.5523 38.2148C64.5942 38.4912 63.6201 38.5197 62.654 38.3006C61.0679 37.9401 60.1421 36.8983 59.7073 35.3929C59.527 34.7672 59.461 34.1256 59.4626 33.4745C59.4674 31.3687 59.4642 29.2629 59.4626 27.1572C59.4626 27.0063 59.4626 26.857 59.4626 26.6553Z" fill="#E8E4E1"/>
<path d="M57.2035 19.1168C57.3677 19.1279 57.5046 19.1454 57.6415 19.1454C58.3226 19.1502 59.0053 19.1549 59.6864 19.147C59.9086 19.1438 60.0728 19.2153 60.2274 19.3757C60.9826 20.1554 61.7458 20.9272 62.5058 21.7022C62.559 21.7562 62.6185 21.8102 62.654 21.8769C62.7296 22.0182 62.6636 22.1627 62.5026 22.1961C62.3915 22.2199 62.2723 22.2167 62.1564 22.2151C59.6735 22.2135 57.1906 22.2104 54.7077 22.2056C54.0781 22.2056 53.9718 22.1024 53.9912 21.4656C54.0524 19.4757 54.1216 17.4859 54.1876 15.496C54.2182 14.5829 54.2488 13.6714 54.2778 12.7582C54.3309 11.1098 54.3824 9.46301 54.4356 7.8146C54.4356 7.77649 54.4404 7.73837 54.4388 7.70026C54.434 7.53987 54.4501 7.35724 54.6304 7.33501C54.7415 7.32071 54.8929 7.416 54.9847 7.50334C55.4951 8.00517 55.991 8.5197 56.4918 9.02947C56.7333 9.27562 56.9652 9.53129 57.2196 9.76474C57.4064 9.93625 57.4756 10.1316 57.4643 10.3746C57.4482 10.7287 57.4434 11.0844 57.4321 11.4401C57.3564 13.8492 57.2792 16.2567 57.2035 18.6658C57.1987 18.804 57.2035 18.9405 57.2035 19.1168Z" fill="#FF0088"/>
<path d="M34.5562 44.2558C35.1343 44.5163 35.3774 44.9609 35.3565 45.5691C35.334 46.2393 34.9024 46.7824 34.2213 46.8507C33.5982 46.9142 32.9638 46.8888 32.3342 46.8825C32.1088 46.8809 32.025 46.7729 31.9993 46.5442C31.988 46.4442 31.9944 46.3409 31.9944 46.2409C31.9944 45.0753 31.9944 43.908 31.9944 42.7424C31.9944 42.6042 31.9944 42.4661 31.9944 42.312C31.835 42.2771 31.7014 42.2469 31.5339 42.212C31.5291 42.1135 31.5243 42.0071 31.5194 41.8833C31.6466 41.8721 31.7481 41.8563 31.8479 41.8563C32.4646 41.8547 33.0829 41.8531 33.6996 41.8563C33.8526 41.8563 34.012 41.8563 34.1601 41.8928C34.6271 42.0055 34.9878 42.2612 35.1037 42.7424C35.2277 43.2553 35.1488 43.727 34.6995 44.0795C34.6593 44.1113 34.6223 44.1447 34.5852 44.1796C34.5772 44.1875 34.5772 44.2018 34.5578 44.2558H34.5562ZM32.4968 44.529C32.492 44.6258 32.4807 44.7386 32.4807 44.8498C32.4807 45.3182 32.4807 45.7867 32.4839 46.2568C32.4839 46.4092 32.5693 46.4966 32.7222 46.4982C33.1457 46.4982 33.574 46.5267 33.9927 46.4807C34.5482 46.4203 34.8509 46.0392 34.8509 45.4897C34.8509 44.9403 34.553 44.5464 34.0039 44.4877C33.5354 44.4369 33.0572 44.475 32.5838 44.4766C32.5628 44.4766 32.5403 44.502 32.4968 44.5306V44.529ZM32.4968 44.0446C32.9992 44.0446 33.4581 44.0478 33.917 44.0414C33.9911 44.0414 34.0667 44.0065 34.1376 43.9763C34.4886 43.827 34.706 43.4316 34.6545 43.0394C34.6013 42.6312 34.355 42.3359 33.954 42.2914C33.5595 42.2469 33.1586 42.2612 32.7609 42.258C32.6772 42.258 32.5934 42.2898 32.4984 42.3089V44.0446H32.4968Z" fill="#E8E4E1"/>
<path d="M26.6374 41.7689C28.1493 41.7641 29.3183 42.8758 29.3264 44.3241C29.3344 45.8153 28.1558 46.9952 26.6518 47C25.1705 47.0047 23.9709 45.8359 23.9564 44.3765C23.9435 42.9107 25.1125 41.7737 26.6374 41.7689ZM26.6422 42.2088C25.4184 42.2088 24.4572 43.1505 24.4668 44.3511C24.4765 45.4802 25.3025 46.5331 26.6454 46.5553C27.8466 46.5744 28.8143 45.5707 28.8175 44.3479C28.8224 43.1458 27.8659 42.2072 26.6406 42.2088H26.6422Z" fill="#E8E4E1"/>
<path d="M41.3899 44.3352C41.3947 42.8726 42.5395 41.7848 44.0596 41.7642C45.3783 41.7451 46.7437 42.7059 46.7518 44.3638C46.7582 45.8232 45.5441 46.9984 44.0692 47C42.5621 47 41.385 45.8312 41.3899 44.3352ZM44.0692 42.2088C42.839 42.2072 41.8971 43.1346 41.8955 44.3479C41.8955 45.5739 42.8551 46.5569 44.0612 46.5617C45.2495 46.568 46.2397 45.5676 46.2446 44.3543C46.251 43.1585 45.2881 42.2104 44.0676 42.2088H44.0692Z" fill="#E8E4E1"/>
<path d="M17.9375 41.8817C18.0116 41.8705 18.0744 41.8547 18.1356 41.8547C18.8296 41.8547 19.5252 41.842 20.2192 41.861C21.517 41.896 21.8648 43.1061 21.4735 43.9589C21.364 44.1971 21.182 44.3749 20.9502 44.4988C20.8616 44.5464 20.7715 44.5893 20.6668 44.6417C20.9598 45.1959 21.2287 45.7407 21.5363 46.2631C21.62 46.4045 21.8245 46.4759 22.0177 46.6109V46.8189C21.9775 46.8459 21.9582 46.8714 21.9372 46.8729C21.393 46.9349 21.2883 46.8841 21.0436 46.4235C20.8165 45.9979 20.5863 45.5723 20.3753 45.1388C20.2417 44.8625 20.0372 44.7433 19.7345 44.7513C19.4672 44.7576 19.2015 44.7513 18.8811 44.7513C18.8811 45.1388 18.8779 45.4754 18.8779 45.8137C18.8779 46.1535 18.8779 46.4934 18.8779 46.8618H18.3996V42.3152C18.2338 42.2771 18.1018 42.2453 17.9407 42.2072V41.8801L17.9375 41.8817ZM18.8956 44.3432C19.4221 44.3463 19.9084 44.4067 20.3898 44.3003C20.8423 44.2002 21.0935 43.8461 21.108 43.3427C21.1225 42.8091 20.889 42.4137 20.4414 42.3104C19.939 42.1961 19.4253 42.2501 18.8972 42.2692V44.3416L18.8956 44.3432Z" fill="#E8E4E1"/>
<path d="M12.946 44.8942V46.865H12.4629V42.312C12.2954 42.2755 12.1602 42.2469 12.0008 42.212V41.8801C12.0845 41.8705 12.1602 41.8563 12.2343 41.8563C12.9154 41.8563 13.5965 41.8563 14.2792 41.8578C15.3564 41.861 16.089 42.7932 15.7106 43.9303C15.5158 44.5178 15.0521 44.8243 14.437 44.8815C14.1053 44.9133 13.7688 44.8926 13.4355 44.8958C13.297 44.8958 13.1585 44.8958 12.946 44.8958V44.8942ZM12.9717 44.4845C13.5224 44.5115 14.0473 44.5639 14.561 44.4257C15.0489 44.2955 15.321 43.862 15.3033 43.3109C15.2872 42.8059 14.9973 42.4089 14.5207 42.3073C14.0167 42.1993 13.5031 42.2517 12.9717 42.266V44.4845Z" fill="#E8E4E1"/>
<path d="M63.2674 43.187C63.224 43.195 63.1757 43.2077 63.1257 43.2093C63.0629 43.2093 62.9985 43.2013 62.9212 43.1966C62.9068 43.1489 62.8794 43.1013 62.881 43.0552C62.8874 42.744 62.7087 42.5566 62.4462 42.4407C61.6524 42.0913 60.8667 42.0754 60.1421 42.5915C59.3982 43.1203 59.1647 43.8858 59.3128 44.7449C59.4577 45.5977 59.9537 46.2075 60.8119 46.4648C61.5349 46.6824 62.2079 46.5125 62.8262 46.1027C62.9212 46.0392 63.0114 45.9662 63.1322 45.8756C63.2175 45.9646 63.3013 46.0503 63.3753 46.1281C63.3673 46.1758 63.3705 46.2075 63.356 46.2234C62.1838 47.4049 59.659 47.3303 58.9264 45.2801C58.4626 43.9811 58.9892 42.5884 60.1711 42.0294C61.0373 41.6196 61.9213 41.6752 62.7747 42.0802C63.2755 42.3184 63.3834 42.6011 63.2674 43.1855V43.187Z" fill="#E8E4E1"/>
<path d="M65.5539 46.2981C65.657 46.1805 65.7455 46.0789 65.8502 45.9614C66.2012 46.2711 66.5731 46.4839 67.0192 46.5521C67.3106 46.5966 67.5843 46.5458 67.8355 46.4029C68.3846 46.09 68.4603 45.4024 67.9804 44.9958C67.7985 44.8418 67.5747 44.7322 67.3605 44.6195C67.0208 44.4416 66.6649 44.2923 66.33 44.1065C66.0434 43.9477 65.8244 43.7159 65.731 43.3919C65.5797 42.871 65.7745 42.3216 66.2559 42.0389C66.929 41.6435 67.631 41.672 68.3154 42.0198C68.6744 42.2024 68.7469 42.5296 68.6728 42.9409C68.5633 42.9504 68.4426 42.9615 68.3427 42.9711C68.3041 42.9314 68.2767 42.9155 68.2719 42.8948C68.1511 42.4105 67.9579 42.2469 67.4507 42.2072C67.1657 42.185 66.8855 42.204 66.6279 42.347C66.0901 42.6439 66.0241 43.2553 66.5087 43.6285C66.7084 43.7826 66.9483 43.8858 67.177 44.0001C67.4732 44.1494 67.7888 44.2701 68.0738 44.4368C68.6648 44.7815 68.887 45.2563 68.7775 45.8709C68.6793 46.4251 68.222 46.8428 67.5811 46.9539C66.8002 47.0905 66.1448 46.8443 65.5555 46.2981H65.5539Z" fill="#E8E4E1"/>
<path d="M50.5583 42.258C50.0881 42.258 49.692 42.258 49.2959 42.258C49.1284 42.258 49.0286 42.3327 49.0254 42.5089C49.0254 42.5709 49.0141 42.6344 49.0044 42.7313C48.8821 42.7376 48.7597 42.744 48.6405 42.7503C48.6196 42.69 48.597 42.655 48.5954 42.6201C48.5536 41.7562 48.6759 41.8563 49.3393 41.8547C50.3425 41.8547 51.344 41.8547 52.3472 41.8547C52.4631 41.8547 52.579 41.861 52.6934 41.861C52.8834 41.861 52.9816 41.9738 52.9977 42.1405C53.0154 42.3263 53.0009 42.5153 53.0009 42.7265H52.6048C52.5726 42.5868 52.542 42.455 52.5146 42.3311C52.2006 42.2358 51.5083 42.2231 51.0558 42.3104C51.0043 43.0537 51.0397 43.808 51.0333 44.5623C51.0268 45.3198 51.0333 46.0773 51.0333 46.8682C50.8722 46.8761 50.7515 46.8809 50.5888 46.8888C50.5776 46.7125 50.5615 46.5648 50.5599 46.4188C50.5583 45.2023 50.5599 43.9858 50.5599 42.7694C50.5599 42.6201 50.5599 42.4708 50.5599 42.2596L50.5583 42.258Z" fill="#E8E4E1"/>
<path d="M38.7041 46.4791C38.8474 46.495 38.973 46.5093 39.1195 46.5267C39.1259 46.6379 39.1308 46.7332 39.1372 46.8713C38.6606 46.9174 38.2049 46.8983 37.7154 46.8809C37.7074 46.757 37.7009 46.6538 37.6929 46.5315C37.8475 46.5124 37.9731 46.4966 38.0954 46.4807C38.1872 46.2202 38.221 42.8964 38.1357 42.2993C38.0085 42.2723 37.8748 42.2437 37.7138 42.2104V41.8737H39.1195C39.1259 41.9897 39.1292 42.0849 39.1356 42.1993C38.9842 42.231 38.8506 42.2596 38.7202 42.2882C38.6348 42.5677 38.6171 46.0329 38.7041 46.4775V46.4791Z" fill="#E8E4E1"/>
<path d="M56.057 46.4712C56.2132 46.4918 56.3372 46.5077 56.4886 46.5283V46.8698H55.0861V46.5363C55.2246 46.5156 55.3598 46.495 55.4886 46.4759C55.5691 46.1742 55.5804 42.6757 55.5015 42.293C55.3727 42.2691 55.2374 42.2437 55.0845 42.2152V41.8833H56.4886C56.495 41.9865 56.5014 42.0897 56.5095 42.212C56.3453 42.2422 56.2116 42.2676 56.0554 42.2977V46.4743L56.057 46.4712Z" fill="#E8E4E1"/>
<path d="M85.1595 20.6874C86.2029 20.7001 87.008 21.5307 86.9999 22.5851C86.9903 23.6301 86.161 24.44 85.108 24.4321C84.0662 24.4241 83.2579 23.5888 83.2708 22.5343C83.2836 21.4846 84.1113 20.6747 85.1595 20.6874ZM86.7327 22.5629C86.7327 21.645 86.0081 20.9034 85.1193 20.9129C84.2449 20.9224 83.5397 21.6577 83.5413 22.5581C83.5413 23.4713 84.2353 24.1939 85.116 24.1986C86.0242 24.2034 86.7343 23.4856 86.7343 22.5629H86.7327Z" fill="#E8E4E1"/>
<path d="M84.7473 23.5253C84.5331 23.6031 84.5154 23.4729 84.5138 23.3347C84.5106 22.9552 84.5251 22.574 84.5074 22.1961C84.4993 22.0103 84.4655 21.5577 84.5315 21.5545C84.7489 21.5466 84.9679 21.545 85.1869 21.5529C85.4606 21.5624 85.6909 21.645 85.7923 21.9309C85.8889 22.2024 85.8181 22.4263 85.5975 22.609C85.5685 22.6328 85.5347 22.6534 85.4751 22.6963C85.6458 22.9726 85.8068 23.2331 85.9775 23.511C85.8036 23.5999 85.6683 23.5713 85.5717 23.3966C85.5041 23.2744 85.4365 23.1521 85.3801 23.025C85.2738 22.7805 85.108 22.663 84.794 22.7678C84.7795 23.0107 84.765 23.2712 84.7505 23.5253H84.7473ZM84.7908 22.5105C85.0597 22.52 85.3221 22.6264 85.5025 22.3581C85.6055 22.2056 85.5991 22.0325 85.4735 21.9039C85.2819 21.7085 85.0436 21.7339 84.7908 21.8181V22.5121V22.5105Z" fill="#E8E4E1"/>
<path d="M95.635 31.2L95.565 31.613H90.532L90.602 31.2H95.635ZM103.843 29.17L102.989 34H102.499L103.178 30.15L100.784 34H100.427L99.3769 30.157L98.7049 34H98.2149L99.0689 29.17H99.5869L100.728 33.356L103.325 29.17H103.843ZM104.219 32.082C104.289 31.69 104.429 31.347 104.639 31.053C104.849 30.7543 105.106 30.5257 105.409 30.367C105.717 30.2037 106.046 30.122 106.396 30.122C106.76 30.122 107.059 30.206 107.292 30.374C107.526 30.542 107.677 30.7567 107.747 31.018L107.894 30.178H108.384L107.712 34H107.222L107.369 33.153C107.211 33.4143 106.982 33.6313 106.683 33.804C106.389 33.972 106.06 34.056 105.696 34.056C105.393 34.056 105.127 33.993 104.898 33.867C104.67 33.741 104.492 33.5637 104.366 33.335C104.24 33.1017 104.177 32.8287 104.177 32.516C104.177 32.3807 104.191 32.236 104.219 32.082ZM107.558 32.089C107.582 31.9583 107.593 31.8417 107.593 31.739C107.593 31.375 107.484 31.0857 107.264 30.871C107.045 30.6563 106.76 30.549 106.41 30.549C106.14 30.549 105.885 30.6097 105.647 30.731C105.414 30.8523 105.216 31.0297 105.052 31.263C104.889 31.4917 104.779 31.7647 104.723 32.082C104.7 32.222 104.688 32.341 104.688 32.439C104.688 32.8077 104.796 33.0993 105.01 33.314C105.23 33.524 105.514 33.629 105.864 33.629C106.126 33.629 106.375 33.566 106.613 33.44C106.856 33.314 107.059 33.1343 107.222 32.901C107.39 32.6677 107.502 32.397 107.558 32.089ZM108.943 32.082C109.013 31.69 109.153 31.347 109.363 31.053C109.573 30.7543 109.832 30.5257 110.14 30.367C110.448 30.2037 110.777 30.122 111.127 30.122C111.463 30.122 111.75 30.2037 111.988 30.367C112.231 30.5303 112.394 30.7427 112.478 31.004L112.863 28.82H113.353L112.436 34H111.946L112.1 33.146C111.932 33.412 111.701 33.6313 111.407 33.804C111.113 33.972 110.786 34.056 110.427 34.056C109.965 34.056 109.594 33.9183 109.314 33.643C109.039 33.363 108.901 32.9873 108.901 32.516C108.901 32.3807 108.915 32.236 108.943 32.082ZM112.282 32.089C112.305 31.9583 112.317 31.8417 112.317 31.739C112.317 31.375 112.207 31.0857 111.988 30.871C111.769 30.6563 111.484 30.549 111.134 30.549C110.863 30.549 110.609 30.6097 110.371 30.731C110.138 30.8523 109.939 31.0297 109.776 31.263C109.613 31.4917 109.503 31.7647 109.447 32.082C109.424 32.222 109.412 32.341 109.412 32.439C109.412 32.8077 109.519 33.0993 109.734 33.314C109.953 33.524 110.238 33.629 110.588 33.629C110.849 33.629 111.099 33.566 111.337 33.44C111.58 33.314 111.783 33.1343 111.946 32.901C112.114 32.6677 112.226 32.397 112.282 32.089ZM115.893 30.122C116.215 30.122 116.49 30.185 116.719 30.311C116.947 30.4323 117.12 30.6003 117.237 30.815C117.358 31.0297 117.419 31.2747 117.419 31.55C117.419 31.676 117.409 31.788 117.391 31.886C117.363 32.026 117.335 32.152 117.307 32.264H114.136C114.122 32.3527 114.115 32.4367 114.115 32.516C114.115 32.8753 114.222 33.153 114.437 33.349C114.656 33.545 114.934 33.643 115.27 33.643C115.592 33.643 115.874 33.566 116.117 33.412C116.359 33.258 116.537 33.0503 116.649 32.789H117.174C117.015 33.1623 116.761 33.468 116.411 33.706C116.065 33.9393 115.662 34.056 115.2 34.056C114.724 34.056 114.341 33.9207 114.052 33.65C113.767 33.3747 113.625 33.0013 113.625 32.53C113.625 32.39 113.639 32.243 113.667 32.089C113.737 31.6923 113.877 31.3447 114.087 31.046C114.301 30.7473 114.565 30.5187 114.878 30.36C115.19 30.2013 115.529 30.122 115.893 30.122ZM116.887 31.9C116.91 31.7693 116.922 31.6597 116.922 31.571C116.922 31.2397 116.817 30.9853 116.607 30.808C116.397 30.6307 116.128 30.542 115.802 30.542C115.564 30.542 115.335 30.5933 115.116 30.696C114.896 30.7987 114.705 30.9527 114.542 31.158C114.378 31.3633 114.266 31.6107 114.206 31.9H116.887ZM121.024 29.457C120.935 29.457 120.863 29.4313 120.807 29.38C120.751 29.324 120.723 29.2517 120.723 29.163C120.723 29.0417 120.765 28.9413 120.849 28.862C120.933 28.778 121.033 28.736 121.15 28.736C121.238 28.736 121.308 28.7617 121.36 28.813C121.416 28.8643 121.444 28.932 121.444 29.016C121.444 29.1373 121.402 29.2423 121.318 29.331C121.234 29.415 121.136 29.457 121.024 29.457ZM121.136 30.178L120.464 34H119.974L120.646 30.178H121.136ZM124.058 30.108C124.45 30.108 124.763 30.2153 124.996 30.43C125.234 30.64 125.353 30.948 125.353 31.354C125.353 31.5033 125.342 31.6387 125.318 31.76L124.919 34H124.436L124.821 31.816C124.84 31.7087 124.849 31.5943 124.849 31.473C124.849 31.165 124.765 30.9317 124.597 30.773C124.429 30.6143 124.194 30.535 123.89 30.535C123.522 30.535 123.207 30.6517 122.945 30.885C122.684 31.1183 122.514 31.4613 122.434 31.914V31.893L122.063 34H121.573L122.245 30.178H122.735L122.616 30.836C122.78 30.6027 122.987 30.423 123.239 30.297C123.491 30.171 123.764 30.108 124.058 30.108ZM128.879 32.964C128.865 33.048 128.858 33.1203 128.858 33.181C128.858 33.3303 128.898 33.4353 128.977 33.496C129.061 33.552 129.197 33.58 129.383 33.58H129.831L129.754 34H129.229C128.94 34 128.723 33.944 128.578 33.832C128.434 33.72 128.361 33.5357 128.361 33.279C128.361 33.1763 128.371 33.0713 128.389 32.964L128.809 30.591H128.277L128.354 30.178H128.886L129.054 29.219H129.544L129.376 30.178H130.433L130.356 30.591H129.299L128.879 32.964ZM133.069 30.108C133.451 30.108 133.759 30.213 133.993 30.423C134.226 30.633 134.343 30.9433 134.343 31.354C134.343 31.5033 134.331 31.6387 134.308 31.76L133.909 34H133.426L133.811 31.816C133.829 31.7087 133.839 31.5943 133.839 31.473C133.839 31.165 133.755 30.9317 133.587 30.773C133.419 30.6143 133.183 30.535 132.88 30.535C132.511 30.535 132.196 30.6517 131.935 30.885C131.673 31.1183 131.503 31.4613 131.424 31.914V31.907L131.053 34H130.563L131.48 28.82H131.97L131.613 30.829C131.776 30.5957 131.986 30.4183 132.243 30.297C132.499 30.171 132.775 30.108 133.069 30.108ZM137.33 30.122C137.652 30.122 137.928 30.185 138.156 30.311C138.385 30.4323 138.558 30.6003 138.674 30.815C138.796 31.0297 138.856 31.2747 138.856 31.55C138.856 31.676 138.847 31.788 138.828 31.886C138.8 32.026 138.772 32.152 138.744 32.264H135.573C135.559 32.3527 135.552 32.4367 135.552 32.516C135.552 32.8753 135.66 33.153 135.874 33.349C136.094 33.545 136.371 33.643 136.707 33.643C137.029 33.643 137.312 33.566 137.554 33.412C137.797 33.258 137.974 33.0503 138.086 32.789H138.611C138.453 33.1623 138.198 33.468 137.848 33.706C137.503 33.9393 137.099 34.056 136.637 34.056C136.161 34.056 135.779 33.9207 135.489 33.65C135.205 33.3747 135.062 33.0013 135.062 32.53C135.062 32.39 135.076 32.243 135.104 32.089C135.174 31.6923 135.314 31.3447 135.524 31.046C135.739 30.7473 136.003 30.5187 136.315 30.36C136.628 30.2013 136.966 30.122 137.33 30.122ZM138.324 31.9C138.348 31.7693 138.359 31.6597 138.359 31.571C138.359 31.2397 138.254 30.9853 138.044 30.808C137.834 30.6307 137.566 30.542 137.239 30.542C137.001 30.542 136.773 30.5933 136.553 30.696C136.334 30.7987 136.143 30.9527 135.979 31.158C135.816 31.3633 135.704 31.6107 135.643 31.9H138.324ZM142.748 29.107L142.202 32.18C142.174 32.3247 142.16 32.46 142.16 32.586C142.16 32.936 142.256 33.195 142.447 33.363C142.639 33.5263 142.905 33.608 143.245 33.608C143.642 33.608 143.973 33.4913 144.239 33.258C144.51 33.0247 144.69 32.6653 144.778 32.18L145.324 29.107H145.814L145.268 32.18C145.161 32.796 144.914 33.2627 144.526 33.58C144.144 33.8927 143.689 34.049 143.161 34.049C142.709 34.049 142.347 33.9323 142.076 33.699C141.806 33.4657 141.67 33.118 141.67 32.656C141.67 32.5067 141.684 32.348 141.712 32.18L142.258 29.107H142.748ZM147.6 34.049C147.306 34.049 147.047 34 146.823 33.902C146.604 33.804 146.433 33.6663 146.312 33.489C146.191 33.3117 146.13 33.1087 146.13 32.88C146.13 32.8193 146.132 32.7727 146.137 32.74H146.62C146.611 32.8893 146.636 33.034 146.697 33.174C146.762 33.3093 146.872 33.4237 147.026 33.517C147.185 33.6057 147.388 33.65 147.635 33.65C147.98 33.65 148.256 33.5637 148.461 33.391C148.666 33.2183 148.769 32.985 148.769 32.691C148.769 32.5137 148.72 32.3667 148.622 32.25C148.529 32.1287 148.412 32.0307 148.272 31.956C148.132 31.8767 147.941 31.788 147.698 31.69C147.413 31.578 147.187 31.4753 147.019 31.382C146.851 31.284 146.711 31.151 146.599 30.983C146.492 30.815 146.447 30.6003 146.466 30.339C146.475 30.087 146.55 29.8653 146.69 29.674C146.835 29.478 147.028 29.3263 147.271 29.219C147.518 29.107 147.798 29.051 148.111 29.051C148.419 29.051 148.683 29.1047 148.902 29.212C149.126 29.3147 149.292 29.457 149.399 29.639C149.511 29.821 149.56 30.0217 149.546 30.241H149.035C149.044 30.115 149.014 29.9913 148.944 29.87C148.879 29.7487 148.771 29.6507 148.622 29.576C148.477 29.4967 148.298 29.457 148.083 29.457C147.752 29.457 147.481 29.5387 147.271 29.702C147.061 29.8607 146.956 30.0777 146.956 30.353C146.956 30.5163 147.003 30.654 147.096 30.766C147.189 30.878 147.304 30.9713 147.439 31.046C147.574 31.1207 147.761 31.207 147.999 31.305C148.274 31.417 148.496 31.522 148.664 31.62C148.837 31.718 148.981 31.8487 149.098 32.012C149.219 32.1753 149.28 32.3807 149.28 32.628C149.28 32.6887 149.278 32.7353 149.273 32.768C149.254 33.006 149.175 33.223 149.035 33.419C148.895 33.615 148.701 33.769 148.454 33.881C148.211 33.993 147.927 34.049 147.6 34.049ZM153.049 32.838H150.816L150.186 34H149.668L152.307 29.17H152.86L153.784 34H153.266L153.049 32.838ZM152.972 32.446L152.475 29.779L151.026 32.446H152.972Z" fill="#E8E4E1"/>
<path d="M98.0049 34.7H154.358V35.05H98.0049V34.7Z" fill="#E8E4E1"/>
</svg>
