<svg xmlns="http://www.w3.org/2000/svg" width="100" height="37" fill="none" xmlns:v="https://vecta.io/nano"><path d="M100 37H0V0h100v37zM98.915 1.103H1.114v34.78h97.801V1.103zM18.037 2.942l-.458 1.465-3.207 9.816c-.092.281-.229.392-.528.392l-10.742-.011c-.314 0-.421-.078-.421-.414V3.463c0-.485.162-.592.609-.592l14.339.03c.103 0 .207.018.41.041h-.004zM8.989 6.96c-.037 0-.074.007-.111.011-.137.34-.184.777-.432.988-.232.2-.668.159-1.096.24.144.126.236.252.362.307.48.218.572.54.328.999-.074.137-.085.303-.122.459.269-.044.469-.13.616-.266.299-.281.55-.237.83.019.144.13.328.218.491.326l.092-.089c-.052-.185-.074-.385-.155-.555-.177-.366-.07-.607.266-.803.184-.107.351-.248.524-.37l-.055-.115c-.244 0-.487-.026-.727.007-.351.044-.502-.115-.572-.433-.055-.248-.159-.481-.24-.721V6.96zM5.565 9.942l-.125.011c-.107.333-.125.77-.351.966s-.661.163-1.074.241c.28.255.672.444.738.714.074.303-.14.677-.262 1.147.288-.181.502-.274.657-.422.269-.259.487-.24.756 0 .17.148.384.248.579.366a1.05 1.05 0 0 0-.1-.537c-.184-.4-.133-.696.31-.888.155-.067.269-.233.402-.355l-.063-.115c-.21 0-.428-.022-.635.004-.362.044-.531-.104-.594-.459-.041-.233-.155-.451-.236-.673h-.004zm5.941 2.916l.081.104c.207-.141.435-.255.616-.422.232-.215.402-.2.624.015.166.163.376.274.568.407l.096-.074c-.044-.152-.074-.315-.14-.455-.184-.403-.126-.688.314-.877.155-.067.266-.237.399-.359L14 11.07c-.196 0-.391-.022-.583.004-.369.048-.572-.078-.635-.463-.041-.233-.151-.455-.229-.681-.221.337-.243.777-.48.988-.225.204-.664.163-1.092.244.292.255.686.437.76.707.081.285-.14.659-.232.992l-.004-.004zm2.579-7.544l-.055-.167c-.192 0-.387-.022-.576.004-.417.063-.624-.107-.69-.518-.037-.211-.14-.407-.214-.61-.24.37-.266.807-.494.999s-.664.141-1.033.196c.111.148.531 1.602.517 1.839.255-.167.487-.281.672-.451.232-.218.399-.203.616.015.162.163.38.277.572.414l.096-.07c-.059-.196-.092-.403-.177-.588-.155-.34-.048-.537.273-.692.181-.089.332-.244.498-.37h-.004zm-6.9-.015l-.14-.152c-.221 0-.446-.022-.668.004-.343.041-.506-.096-.568-.433-.044-.24-.162-.466-.247-.703-.177.2-.269.377-.295.57-.059.426-.255.633-.701.57-.162-.022-.332.019-.576.037.325.318.697.518.775.799s-.144.644-.273 1.106c.295-.189.494-.277.638-.422.277-.281.513-.252.79 0 .166.148.376.244.568.363l.148-.048c-.672-.833-.255-1.321.553-1.691h-.004z" fill="#2d1d88"/><path d="M27.384 34.258H9.306l.672-.544 1.834-1.321c.402-.318.834-.433 1.321-.433h10.465c.587 0 1.1.137 1.572.522.583.474 1.221.881 1.834 1.321.148.104.28.229.421.344l-.044.115.004-.004zM20.421 7.559l.465-.041 12.406.011c.919 0 .919.019.904.929l-.015 1.018c.033.4-.125.492-.498.492l-8.76-.007c-1.078 0-2.151-.015-3.229.007-.395.007-.594-.155-.701-.514l-.572-1.891v-.004zm-1.546-4.617l.649-.044 14.011-.007c.616 0 .635.026.62.662l-.019.599c-.015.81-.011.829-.849.833-4.424.004-8.849-.004-13.273.007-.402 0-.561-.141-.646-.529-.107-.488-.306-.955-.498-1.521h.004zm3.114 9.468h.919l10.605.007c.605 0 .616.011.631.618l-.004 1.11c.022.355-.129.451-.461.448-1.491-.007-2.982.007-4.472.011-1.996 0-3.996-.011-5.993 0-.369 0-.568-.13-.672-.477l-.553-1.713v-.004zM2.613 22.23h.557 6.959.277c1.251.137 1.24.337.882 1.247-.391.992-.369 1.003-1.417 1.006l-6.775.026c-.339 0-.509-.067-.487-.455l.007-1.824h-.004zm31.553.037l-.015 1.954c-.004.093-.214.255-.328.255a509.01 509.01 0 0 1-7.517-.004c-.174 0-.417-.196-.498-.366-.181-.37-.269-.784-.421-1.169-.114-.292.015-.455.258-.533.262-.085.535-.163.808-.163l7.517-.004c.044 0 .088.015.199.033l-.004-.004zm-24.077 4.806l-.69 2.124c-.033.096-.236.189-.362.192l-6.033.052c-.288 0-.41-.104-.399-.411l.007-1.957h7.476zm24.114.004l-.015 2.046a.44.44 0 0 1-.31.278l-5.996.018c-.14 0-.369-.1-.41-.207l-.697-2.131h7.428v-.004zM8.45 32.09l-.701 2.039c-.037.096-.292.155-.447.155l-4.328.03c-.295 0-.369-.126-.365-.389v-1.617c-.004-.244.066-.374.336-.37l5.203.063c.07 0 .144.041.306.093l-.004-.004zm20.03-.144h2.391l2.808.015c.398-.007.517.174.517.522l-.011 1.432a.52.52 0 0 1-.343.359l-4.421.007a.46.46 0 0 1-.354-.229l-.627-1.876c-.015-.048.018-.115.037-.226l.004-.004zM2.616 19.562l.015-1.98c0-.089.196-.233.306-.237.742-.037 1.446.007 2.077.529.661.548 1.399.995 2.103 1.491.059.041.103.096.21.196H2.616zm27.03-.089l1.86-1.336c.672-.54 1.362-.921 2.262-.81.295.037.458.096.447.429l-.026 1.48c-.007.126-.155.344-.24.344l-4.273.015-.029-.118v-.004zM20.613 29.4h-4.546l.413-.374 1.583-1.191c.244-.192.432-.226.686-.018l1.587 1.184c.118.089.221.192.328.289l-.055.111h.004z" fill="#ff2647"/><path d="M54.83 13.59c-1.066.018-2.137.037-3.203-.018-.66-.033-.797.292-.786.832l.037 2.342-.092 9.89c-.059 2.05-1.277 3.108-3.295 3.097-1.93-.007-3.055-1.114-3.17-3.13l-.074-2.168.048-9.897c.007-.681-.166-1.006-.93-.962-1.007.063-2.022.033-3.029-.011-.594-.026-.808.159-.797.781l.015 6.597h.177l.015 6.593c.137 3.541 1.967 5.724 5.303 6.416.867.181 1.775.296 2.66.266 4.93-.163 7.328-2.09 7.631-6.468.31-4.466.151-8.965.21-13.453.007-.518-.199-.721-.723-.714l.004.007zm34.462 1.883c-.745-1.861-.709-1.876-2.723-1.887-2.192-.015-2.166 0-2.985 2.042l-7.088 17.586c-.089.222-.148.459-.247.773l4.185-.026c.258-.011.624-.326.731-.585.41-.984.786-1.991 1.066-3.015.136-.496.38-.562.793-.559l6.491.044c.572 0 .934.215 1.118.747l1.033 2.845c.103.252.439.57.683.581l4.369.026-.328-.988-7.1-17.579.004-.007zm-5.295 10.334l2.45-6.216c1.044 2.109 1.675 4.144 2.469 6.216h-4.919zm-12.591-2.234c-.963-.662-2.092-1.084-3.122-1.658-.852-.474-1.745-.921-2.494-1.535-1.151-.944-.878-2.316.55-2.69a6.09 6.09 0 0 1 2.612-.074c.908.178 1.757.673 2.79 1.099l1.443-3.189c.066-.163-.177-.599-.376-.696-.83-.396-1.694-.729-2.557-1.043-2.262-.821-4.446-.503-6.494.644-3.886 2.176-4.063 6.852-.388 9.343l1.686 1.058 1.594.869 1.325.81c.974.736 1.295 1.524.967 2.379-.369.966-1.221 1.143-2.114 1.202-1.934.13-3.52-.744-5.022-1.806-.583-.411-.9-.318-1.199.3l-1.332 2.527c-.314.529-.218.873.306 1.11 1.303.596 2.572 1.306 3.93 1.732 2.384.747 4.723.551 7.055-.5 3.354-1.513 5.247-6.86.841-9.886v.004zM42.771 6.083l.229.022.144.877c.074.688.078 1.391.232 2.061.063.266.454.455.694.677.192-.259.565-.529.554-.777l-.399-5.091c-.033-.359.037-.866-.605-.847-.539.018-1.063-.1-1.284.662-.295 1.014-.727 1.991-1.1 2.982l-.299.026-.38-.799-.775-2.202c-.181-.61-.583-.685-1.126-.677-.579.011-.638.389-.679.807l-.48 4.995c-.037.425-.107.87.601.877.668.004.731-.348.775-.866l.343-2.756.247-.019c.668 1.173.546 2.745 1.808 3.874l1.502-3.826h-.004zm33.838-.903V3.053h-1.406v3.859l-.214.063-.679-.951c-.528-.825-.982-1.713-1.59-2.472-.247-.311-.812-.411-1.255-.485-.074-.011-.362.581-.369.899l-.018 4.858c0 .474.066.866.69.866.646 0 .653-.411.653-.873V5.82l.229-.081c.196.233.417.451.579.703l1.76 2.675c.244.303.827.34 1.251.496.114-.322.317-.636.332-.962l.037-3.471zm9.745 3.889c.007.215.41.596.601.581.277-.022.701-.3.76-.54.122-.522.011-1.095.081-1.635.03-.226.244-.566.424-.607 1.314-.285 1.738.096 1.734 1.454v.522c-.048.529.041.866.716.881.705.015.734-.396.734-.884l.015-5.028c.011-.688-.321-.847-.911-.799-.893.074-.524.766-.535 1.195-.037 1.55.118 1.332-1.41 1.432-.668.044-.882-.237-.871-.844V3.03h-1.373v.755l.029 5.287.004-.004zM56.642 3.537c-1.096-.699-2.299-.548-3.52-.485V9.83c1.144-.237 2.225-.34 3.221-.699 1.148-.411 1.727-1.399 1.83-2.612.114-1.306-.443-2.29-1.535-2.986l.004.004zm-.277 4.018c-.384.385-.945.588-1.428.873-.137-.462-.347-.921-.388-1.391-.063-.777-.022-1.561-.011-2.342.011-.573.24-.781.827-.533.963.403 1.48 1.117 1.465 2.361-.092.218-.17.736-.465 1.032zm-9.236 1.443c.17-.64.542-.807 1.144-.729.369.048.771-.056 1.118.048.314.092.749.322.819.577.273.999.952.781 1.834.722l-2.447-5.809c-.122-.278-.539-.633-.771-.599-.358.052-.834.329-.974.644l-2.074 4.943c-.111.274-.125.585-.192.906.757.111 1.347.033 1.546-.707l-.004.004zm1.465-3.648l.79 1.336c.022.044-.388.407-.624.44-.613.093-.708-.329-.801-.932l.631-.844h.004zm11.627 4.311c.86.056 1.731.052 2.587-.033.21-.022.494-.414.528-.666.022-.159-.328-.474-.561-.54-.406-.115-.867-.03-1.269-.148-.207-.059-.483-.4-.461-.577.026-.215.31-.451.539-.57.184-.096.454-.059.679-.041.856.078 1.136-.355 1.044-1.302-.528 0-1.026.07-1.491-.026-.295-.063-.539-.374-.804-.57.229-.281.406-.662.697-.818.273-.148.69 0 1.015-.093.247-.07.443-.314.661-.485-.203-.178-.395-.488-.613-.511-.827-.081-1.668-.115-2.498-.067-.214.011-.579.389-.587.603v5.28c.004.2.339.548.539.562h-.004zM96.1 8.414c-.332-.122-.775.048-1.1-.085-.24-.1-.458-.47-.495-.744-.018-.137.365-.403.609-.485.258-.085.602.056.849-.048.291-.122.513-.4.767-.607-.24-.218-.457-.485-.734-.633-.181-.096-.45-.037-.683-.026-.502.022-.823-.107-.812-.714.007-.574.295-.766.804-.766.258 0 .546.063.771-.026.284-.115.52-.355.775-.54-.233-.159-.458-.437-.705-.462-.801-.078-1.609-.041-2.413-.096-.565-.037-.686.229-.672.722l.007 2.512-.004 2.597c-.011.47.151.696.646.681l2.413-.048c.24-.022.447-.374.668-.577-.229-.229-.417-.559-.694-.659v.004zM81.989 5.158l-.007 3.559c-.007.511.048.947.694.966.661.018.613-.47.635-.903l.21-4.418c.21-.022.38-.067.546-.056.491.037.882-.067.915-.644.037-.684-.535-.61-.919-.629-.923-.048-1.852-.085-2.768.007-.365.037-.697.414-1.044.64.332.207.653.57.996.592.653.041.749.344.738.888l.004-.004zm-14.085-.511v4.866c.91.084 1.365-.252 1.365-1.006l.015-4.754c.019-.655-.269-.755-.823-.755-.627 0-.616.333-.561.788.033.285.004.574.004.862z" fill="#2d1d88"/></svg>