<svg width="119" height="123" viewBox="0 0 119 123" fill="none" xmlns="http://www.w3.org/2000/svg">
<g filter="url(#filter0_d_1672_183)">
<path d="M46.6509 36.1309C58.485 29.5703 73.0118 30.0569 79.5724 41.891C86.133 53.725 84.6721 71.6504 72.838 78.211C61.0039 84.7717 46.0874 85.6445 39.5268 73.8104C32.9662 61.9763 34.8169 42.6915 46.6509 36.1309Z" fill="#E489A8"/>
</g>
<path d="M33.4504 61.2585C33.449 60.9883 33.4389 60.7187 33.4492 60.4498C33.5218 58.4969 34.7437 57.0293 36.7061 56.5486C38.6781 56.0659 40.3358 56.6938 41.7929 57.9921C42.087 58.2545 42.3485 58.5552 42.6498 58.8638C42.7098 58.602 42.7559 58.352 42.8248 58.1084C43.3755 56.1424 44.5731 54.8058 46.6102 54.3067C47.5281 54.0823 48.3984 54.1724 49.1771 54.819C49.5704 54.2137 50.0523 53.7091 50.6916 53.3788C51.787 52.8124 52.9365 52.7591 54.1119 53.0438C55.4555 53.3684 56.5786 54.0655 57.5357 55.111C57.5735 54.9659 57.6036 54.8563 57.6322 54.7458C58.0316 53.2283 58.7138 51.8661 60.0289 50.9348C62.7684 48.9951 66.2841 50.3156 67.4601 53.2649C68.0657 54.7836 67.8156 56.2934 67.2722 57.7722C66.5149 59.8348 65.3016 61.6365 63.8566 63.2671C62.6839 64.5897 61.3964 65.8133 60.144 67.0647C59.7135 67.4942 59.571 67.4741 59.0626 67.1161C59.0028 67.0734 58.9189 67.0547 58.8432 67.0443C56.7349 66.7394 54.8172 65.95 53.0329 64.8141C52.977 64.7781 52.9186 64.7477 52.8332 64.6978C52.7102 64.9138 52.6022 65.1229 52.478 65.3215C51.456 66.9721 50.4324 68.6217 49.4086 70.2701C49.1457 70.6943 48.8875 71.1226 48.6114 71.5384C47.9812 72.487 47.0776 72.8631 45.9629 72.7153C44.2715 72.492 42.6951 71.9185 41.2313 71.062C38.4267 69.4211 36.257 67.1414 34.578 64.3929C34.2329 63.8293 34.0105 63.192 33.7317 62.5879C33.6379 62.1448 33.5442 61.7017 33.4504 61.2585ZM48.8586 55.7055C48.3732 55.4144 47.7377 55.2885 47.1862 55.3624C46.2117 55.4932 45.47 56.0049 44.8989 56.7712C43.9465 58.0497 43.6067 59.4652 43.9767 61.0275C44.0474 61.3258 43.8806 61.6165 43.5848 61.7357C43.3138 61.8459 43.0761 61.7478 42.9083 61.4524C42.6586 61.0096 42.4325 60.5529 42.1591 60.1239C41.1721 58.5714 39.8184 57.6236 37.9001 57.6471C35.9439 57.6711 34.5314 59.0772 34.5983 60.9577C34.6342 61.9428 35.0099 62.8308 35.5234 63.6569C36.8903 65.8599 38.7192 67.6381 40.7562 69.2188C41.8368 70.057 42.9979 70.7599 44.3372 71.1357C45.4444 71.4461 46.4721 71.3029 47.3559 70.5635C47.9013 70.1072 48.4397 69.612 48.8604 69.0462C49.7471 67.8533 50.5533 66.6032 51.3938 65.3773C51.6556 64.9961 51.9206 64.6179 52.1861 64.2359C49.4748 62.0104 47.7695 59.4134 48.8571 55.7046L48.8586 55.7055ZM49.6781 58.3553C49.8209 58.7604 49.9427 59.1737 50.1087 59.5688C51.0173 61.728 52.5707 63.3015 54.6651 64.3202C56.0723 65.005 57.5313 65.587 58.975 66.1986C59.0698 66.239 59.2603 66.1798 59.344 66.1017C59.9481 65.5335 60.5488 64.961 61.1254 64.3647C62.7774 62.6575 64.2464 60.8168 65.3003 58.6752C65.9887 57.2764 66.39 55.8277 66.2434 54.2533C66.0535 52.2051 64.3393 50.8908 62.3912 51.337C59.8803 51.9111 57.9261 54.6182 58.668 56.8831C58.7503 57.1337 58.6236 57.2963 58.3849 57.3796C57.9707 57.5263 57.8424 57.4654 57.582 57.1104C57.0697 56.4098 56.6007 55.6624 55.9979 55.0439C55.0871 54.1093 53.9372 53.7652 52.6223 54.0497C50.4207 54.5269 49.222 56.2841 49.6791 58.3538L49.6781 58.3553Z" fill="white"/>
<defs>
<filter id="filter0_d_1672_183" x="0.377464" y="0.511131" width="118.471" height="121.862" filterUnits="userSpaceOnUse" color-interpolation-filters="sRGB">
<feFlood flood-opacity="0" result="BackgroundImageFix"/>
<feColorMatrix in="SourceAlpha" type="matrix" values="0 0 0 0 0 0 0 0 0 0 0 0 0 0 0 0 0 0 127 0" result="hardAlpha"/>
<feOffset dy="4"/>
<feGaussianBlur stdDeviation="17.7"/>
<feComposite in2="hardAlpha" operator="out"/>
<feColorMatrix type="matrix" values="0 0 0 0 0.929412 0 0 0 0 0.141176 0 0 0 0 0.329412 0 0 0 0.52 0"/>
<feBlend mode="normal" in2="BackgroundImageFix" result="effect1_dropShadow_1672_183"/>
<feBlend mode="normal" in="SourceGraphic" in2="effect1_dropShadow_1672_183" result="shape"/>
</filter>
</defs>
</svg>
