<svg width="125" height="120" viewBox="0 0 125 120" fill="none" xmlns="http://www.w3.org/2000/svg">
<g filter="url(#filter0_d_1672_198)">
<path d="M78.5469 36.457C88.7003 45.401 93.1198 59.2477 84.1757 69.4011C75.2317 79.5545 57.8565 84.1974 47.7031 75.2534C37.5497 66.3093 31.7189 52.552 40.6629 42.3986C49.607 32.2452 68.3935 27.513 78.5469 36.457Z" fill="#E489A8"/>
</g>
<path d="M77.8441 72.2176C79.0122 68.2736 78.9673 64.3318 77.6086 60.4563C76.665 57.7651 75.1359 55.403 73.4411 53.1423C71.4502 50.4867 69.0273 48.3338 66.1247 46.747C65.3164 46.3056 64.4772 45.9235 63.6516 45.5135L61.1848 44.7159C61.0677 44.7031 60.9461 44.7043 60.8335 44.6739C58.3053 44.0042 55.7333 43.7829 53.1276 44.0154C50.4382 44.2555 47.8801 44.9743 45.4882 46.2855C43.54 47.3529 41.8093 48.7122 40.1973 50.2362C37.7772 52.5229 35.9041 55.1782 34.7861 58.3483C33.6538 61.559 32.9524 64.828 33.0726 68.2637C33.1648 70.8799 33.5303 73.4081 34.5448 75.8255C35.9162 79.0972 37.8819 81.9473 40.4227 84.3874C42.5653 86.446 45.0113 88.0509 47.7936 89.0888C52.228 90.743 56.676 90.5459 61.0999 88.9418C64.7796 87.6083 68.0384 85.5488 70.9164 82.8798C74.1119 79.9167 76.5885 76.4541 77.843 72.2173L77.8441 72.2176ZM69.0039 83.3127C66.578 85.3186 63.8997 86.9043 60.9614 88.0198C57.6625 89.2713 54.287 89.7151 50.8157 89.0099C50.1452 88.8741 49.4881 88.6712 49.0766 88.5644C45.8846 87.5085 43.3026 85.9168 41.0619 83.7752C38.7062 81.5237 36.828 78.92 35.5245 75.9003C34.5057 73.5399 34.0725 71.0721 33.9607 68.4984C33.7868 64.5042 34.7158 60.7534 36.2459 57.1171C37.19 54.8741 38.6989 53.0175 40.4033 51.3207C41.985 49.7452 43.6909 48.3277 45.636 47.2225C47.9273 45.9204 50.3889 45.1907 52.9863 44.9256C56.4311 44.5734 59.7683 45.0672 62.9912 46.2749C65.5642 47.2392 67.9778 48.569 69.9224 50.5088C71.9265 52.5084 73.6663 54.7717 75.0893 57.258C76.0542 58.9442 76.8557 60.6992 77.2873 62.6075C78.0214 65.8484 77.8455 69.0644 76.8474 72.2351C75.4186 76.7742 72.6036 80.3372 69.0039 83.3127Z" fill="white"/>
<path d="M72.6979 60.4716C72.006 59.4518 71.0749 59.1793 69.9309 59.6378C69.6414 59.754 69.3618 59.9055 69.0921 60.0662C68.138 60.6326 67.2184 61.2673 66.2346 61.7728C59.8236 65.0741 53.3922 68.3331 46.9848 71.6416C45.0816 72.6245 43.2289 73.7096 41.3683 74.7755C41.0289 74.9697 40.706 75.2586 40.4811 75.5792C39.9909 76.28 40.1112 77.0543 40.5282 77.7088C41.1113 78.6244 41.7226 79.5479 42.4646 80.3289C44.4554 82.4243 46.9847 83.6438 49.5658 84.5212C52.142 85.341 54.6595 85.7271 57.2519 85.445C61.5658 84.9745 65.3044 83.1821 68.5253 80.2569C70.5467 78.4207 72.1025 76.2408 73.0562 73.6588C74.177 70.6255 74.4137 67.4947 74.0086 64.3137C73.8347 62.9476 73.4809 61.6247 72.6972 60.4702L72.6979 60.4716ZM56.6226 67.6863C57.2163 67.3646 57.8186 67.0599 58.4284 66.772C58.5702 66.7046 58.7793 66.6876 58.9239 66.7391C60.5936 67.3302 62.2599 67.9357 63.924 68.5441C64.4608 68.7403 64.5399 68.8886 64.3219 69.4248C64.066 70.0524 63.7916 70.6753 63.4749 71.2725C63.0866 72.0039 62.5859 72.2604 61.8453 72.0281C59.033 71.145 56.2318 70.2238 53.5827 69.3673C54.502 68.8576 55.5591 68.2638 56.6237 67.6867L56.6226 67.6863ZM72.3604 72.8367C71.3082 75.9089 69.4037 78.3777 66.893 80.3656C63.4123 83.1222 59.4794 84.6968 55.0346 84.5088C50.5966 84.3217 46.6193 82.8009 43.338 79.7317C42.5797 79.0229 42.018 78.0844 41.4424 77.1999C41.0242 76.5569 41.1243 76.1709 41.7635 75.7483C43.0631 74.8884 44.3559 74.0061 45.7189 73.2597C47.7969 72.1222 49.9293 71.0894 52.0448 70.025C52.2107 69.9415 52.4522 69.8933 52.6181 69.9481C54.3562 70.5244 56.0838 71.133 57.8208 71.7161C58.9643 72.1001 60.1161 72.4618 61.2666 72.8242C62.1712 73.1096 63.0804 73.3845 63.9875 73.6623C64.0582 73.6839 64.1342 73.7109 64.2055 73.7053C64.6935 73.6665 65.0532 73.8209 65.3837 74.2257C65.5439 74.4218 65.9662 74.4701 66.2664 74.4587C66.5788 74.4465 66.8245 74.4437 67.0838 74.6646C67.6473 75.1459 68.273 75.0527 68.6177 74.3834C69.0908 73.4625 69.4982 72.5048 69.8906 71.5459C70.0121 71.2503 70.0226 70.8973 70.0308 70.5698C70.0507 69.7693 69.7939 69.4897 69.0144 69.4033C68.9406 69.3949 68.8587 69.3971 68.7944 69.3667C67.9394 68.9532 67.09 68.526 66.2294 68.1226C65.9156 67.9759 65.5662 67.764 65.2533 67.7963C64.8344 67.8396 64.5078 67.7066 64.1536 67.5682C62.7948 67.0383 61.4329 66.5181 59.9239 65.9361C60.1536 65.8554 60.314 65.8179 60.4562 65.7459C63.0968 64.3935 65.7392 63.0428 68.3708 61.6744C68.9281 61.385 69.4353 60.996 69.9904 60.7023C70.9547 60.1917 71.5314 60.3591 72.0867 61.299C72.7479 62.4175 73.0279 63.6665 73.1549 64.9447C73.4201 67.6228 73.2397 70.2701 72.3604 72.8367ZM65.385 68.5611C65.385 68.5611 65.4243 68.5452 65.4332 68.5577C66.1082 69.4076 67.2446 69.4532 68.0563 70.0768C68.2554 70.2294 68.5865 70.228 68.8615 70.2549C69.1077 70.2797 69.2164 70.3732 69.173 70.6238C69.1221 70.9196 69.1248 71.2387 69.011 71.5071C68.6544 72.3441 68.2521 73.1627 67.8485 74.0286C67.6656 73.9135 67.5476 73.8563 67.4493 73.7744C67.138 73.5176 66.7898 73.4408 66.4042 73.5557C66.1086 73.6437 65.8973 73.5801 65.7274 73.3011C65.4977 72.9229 65.1478 72.8003 64.699 72.8196C64.3778 72.8338 64.0528 72.7215 63.6428 72.6498C64.6452 71.3553 65.3183 70.0926 65.385 68.5611Z" fill="white"/>
<path d="M60.9892 59.7836C62.467 58.9587 64.0158 58.264 65.5255 57.4971C66.3788 57.0638 67.2425 56.6422 68.0611 56.1453C68.8886 55.6429 69.0525 54.9283 68.5243 54.1485C67.8857 53.2042 67.1295 52.3578 66.1638 51.7297C64.6103 50.7173 62.8445 50.1977 61.3059 49.587C57.488 48.3776 53.787 48.0951 50.0267 48.9865C47.0476 49.6931 44.4374 51.0899 42.3215 53.3676C40.3734 55.4648 39.0333 57.9278 38.1097 60.6207C37.2108 63.2407 36.8431 65.9322 37.3565 68.6727C37.5138 69.5149 37.7949 70.3746 38.2133 71.1118C38.845 72.2231 39.7598 72.3532 40.8302 71.6456C42.4319 70.5867 43.9729 69.421 45.6312 68.4638C50.7246 65.5243 55.8532 62.6473 60.9885 59.7822L60.9892 59.7836ZM51.4569 64.0423C50.181 64.7704 48.9012 65.4925 47.6335 66.2352C47.3546 66.3989 47.1275 66.4387 46.8092 66.3274C45.7833 65.9695 44.7402 65.6644 43.7066 65.3302C43.4807 65.2572 43.2603 65.1633 43.0495 65.0546C42.5563 64.7998 42.3929 64.4716 42.5575 63.948C42.7333 63.3898 42.931 62.8328 43.1818 62.3048C43.5581 61.5123 44.024 61.3161 44.8617 61.55C45.175 61.637 45.4711 61.7876 45.7756 61.9051C47.7672 62.6765 49.8329 63.1823 51.9274 63.5771C51.9817 63.5875 52.0346 63.6022 52.1859 63.6368C51.8935 63.7985 51.6736 63.9181 51.4569 64.0423ZM42.1004 69.5772C41.5608 69.9283 41.0641 70.347 40.5391 70.722C39.6595 71.3529 39.1023 71.1835 38.7295 70.1595C38.125 68.4945 37.9489 66.7641 38.1367 65.0073C38.575 60.9035 40.0842 57.2366 42.8537 54.1714C45.5492 51.1896 48.9971 49.7537 52.9366 49.4768C56.5039 49.2262 59.9013 49.9195 63.1692 51.3122C63.7712 51.5688 64.3683 51.8369 64.9627 52.1101C66.1094 52.637 66.924 53.5429 67.6506 54.543C67.9445 54.9479 67.9236 55.0854 67.493 55.3287C66.332 55.9819 65.1634 56.622 63.9927 57.2577C61.214 58.7681 58.432 60.2738 55.6511 61.7799C54.8605 62.2084 54.0709 62.6408 53.2667 63.0423C53.1122 63.1199 52.8819 63.0931 52.7005 63.0535C52.3547 62.9763 52.0172 62.8588 51.6777 62.7514C49.7906 62.152 47.9038 61.5515 46.0181 60.9477C45.6213 60.8206 45.2361 60.6544 44.8338 60.5517C43.9319 60.3197 43.1407 60.6336 42.6186 61.4219C42.0962 62.2112 41.7604 63.0824 41.6051 64.0143C41.4813 64.7573 41.753 65.3624 42.384 65.744C42.7874 65.9889 43.2366 66.1687 43.6839 66.3288C44.4374 66.5975 45.2045 66.8276 46.0207 67.0915C44.6541 67.9548 43.3679 68.7511 42.0997 69.5758L42.1004 69.5772Z" fill="white"/>
<defs>
<filter id="filter0_d_1672_198" x="0.852379" y="0.327538" width="123.55" height="119.083" filterUnits="userSpaceOnUse" color-interpolation-filters="sRGB">
<feFlood flood-opacity="0" result="BackgroundImageFix"/>
<feColorMatrix in="SourceAlpha" type="matrix" values="0 0 0 0 0 0 0 0 0 0 0 0 0 0 0 0 0 0 127 0" result="hardAlpha"/>
<feOffset dy="4"/>
<feGaussianBlur stdDeviation="17.7"/>
<feComposite in2="hardAlpha" operator="out"/>
<feColorMatrix type="matrix" values="0 0 0 0 0.929412 0 0 0 0 0.141176 0 0 0 0 0.329412 0 0 0 0.52 0"/>
<feBlend mode="normal" in2="BackgroundImageFix" result="effect1_dropShadow_1672_198"/>
<feBlend mode="normal" in="SourceGraphic" in2="effect1_dropShadow_1672_198" result="shape"/>
</filter>
</defs>
</svg>
