<svg width="121" height="122" viewBox="0 0 121 122" fill="none" xmlns="http://www.w3.org/2000/svg">
<g filter="url(#filter0_d_1681_891)">
<path d="M85.0571 56.4873C85.0571 70.0183 77.5881 82.4873 64.0571 82.4873C50.5262 82.4873 35.5571 72.5183 35.5571 58.9873C35.5571 45.4563 42.0262 31.9873 55.5571 31.9873C69.0881 31.9873 85.0571 42.9563 85.0571 56.4873Z" fill="#E489A8"/>
</g>
<path d="M69.5267 54.0497C69.9594 54.4348 70.454 54.7687 70.8081 55.2172C71.3113 55.853 71.8412 56.5206 72.1293 57.2697C72.7832 58.9709 73.1644 60.7753 72.441 62.5686C72.0396 63.5639 71.4365 64.5097 70.7831 65.3694C69.2961 67.3265 67.575 69.0518 65.445 70.3079C63.5043 71.4523 61.4288 72.2396 59.2435 72.6842C57.4907 73.0411 55.7254 73.3302 53.9622 73.625C53.5325 73.6968 53.2454 73.8587 53.0434 74.2775C52.6319 75.1317 52.1646 75.958 51.7434 76.7527C52.1556 76.9907 52.5319 77.1959 52.896 77.4204C53.7353 77.9379 53.9338 78.4901 53.4485 79.3754C52.9452 80.2919 52.3546 81.1658 51.7494 82.0203C51.4354 82.4635 51.1889 82.4806 50.7015 82.2685C50.2039 82.0516 49.7158 81.8127 49.1969 81.5713C48.89 82.211 48.6079 82.8431 48.2882 83.4545C48.0067 83.9923 47.7195 84.5345 47.3686 85.0268C46.9718 85.5838 46.6345 85.6332 46.0417 85.3261C45.2714 84.9275 44.5071 84.517 43.7378 84.1168C43.6078 84.0495 43.4634 84.009 43.3261 83.9561L42.1668 83.2868C41.8332 82.8028 41.9185 82.3365 42.2169 81.8513C42.8946 80.7484 43.5456 79.6301 44.2248 78.5281C44.4254 78.203 44.441 77.9767 44.0999 77.7534C43.6248 77.4417 43.1727 77.0939 42.7103 76.762C42.1219 76.341 41.9822 75.9887 42.3464 75.3579C42.7734 74.6183 43.2791 73.9175 43.8029 73.2413C44.0869 72.8743 44.5358 72.8102 44.9735 72.9409C45.543 73.1113 46.1092 73.2931 46.6698 73.4903C46.8573 73.5568 46.9604 73.5328 47.0661 73.3553C47.6635 72.3522 48.2693 71.3552 48.874 70.3563C49.1409 69.9145 49.1669 69.4744 48.8972 69.0361C48.1737 67.8598 47.4074 66.7093 46.7337 65.5046C45.539 63.369 44.4292 61.1814 43.957 58.7352C43.6694 57.2454 43.518 55.7342 43.6404 54.1919C43.8092 52.0421 44.7365 50.2775 46.325 48.877C48.5964 46.8747 51.2144 46.0048 54.1818 46.5679C56.7388 47.0536 58.7258 48.3833 59.8953 50.7638C60.2242 51.433 60.333 52.2171 60.5406 52.9493C60.5635 53.0307 60.5705 53.1172 60.5745 53.1382C61.6334 52.925 62.6693 52.6809 63.7161 52.5222C64.1865 52.4508 64.6938 52.4831 65.1577 52.585C66.258 52.8255 67.3417 53.1356 68.432 53.4177C68.7974 53.6287 69.1621 53.8392 69.5275 54.0502L69.5267 54.0497ZM46.6121 84.3921C47.1943 83.2737 47.7384 82.2289 48.2821 81.1828C48.5881 80.5932 48.9368 80.4327 49.5387 80.6681C49.9989 80.8492 50.4318 81.098 50.8893 81.2874C50.9855 81.3275 51.1995 81.2829 51.251 81.2049C51.7323 80.4756 52.1879 79.7294 52.6551 78.9909C52.833 78.7088 52.7525 78.5073 52.481 78.3814C51.9872 78.1524 51.4905 77.9304 50.9883 77.7197C50.5016 77.5156 50.3555 77.1762 50.612 76.702C51.2109 75.5976 51.8276 74.5035 52.435 73.4029C52.6257 73.0578 52.9068 72.8485 53.2892 72.7768C53.5109 72.7355 53.7297 72.6826 53.9514 72.6413C55.7593 72.3064 57.5769 72.0255 59.3721 71.625C61.7798 71.0877 64.0321 70.1189 66.0377 68.6293C67.828 67.3002 69.3026 65.6514 70.5205 63.7731C71.1051 62.8704 71.6285 61.9303 71.5556 60.814C71.4867 59.7539 71.2694 58.7181 70.8247 57.7577C70.6122 57.2986 70.3373 56.8562 70.0234 56.4628C69.0243 55.2087 67.6729 54.5275 66.1426 54.1376C65.2314 53.905 64.3405 53.5347 63.3725 53.6949C62.438 53.8491 61.5098 54.052 60.5861 54.2696C60.1069 54.3822 59.6379 54.0917 59.6087 53.602C59.5904 53.2891 59.5956 52.9689 59.5317 52.6659C59.2037 51.1176 58.2916 49.9402 57.0158 49.1431C54.174 47.3694 51.1962 47.2267 48.199 48.9584C46.2748 50.0706 45.0355 51.7123 44.6858 53.9666C44.4312 55.6149 44.5491 57.2476 44.8862 58.8472C45.3254 60.9314 46.27 62.8126 47.3185 64.6295C48.0774 65.9439 48.9285 67.2027 49.725 68.4948C50.1855 69.2434 50.2181 70.0329 49.7913 70.8299C49.1923 71.9474 48.5929 73.0658 47.9757 74.1739C47.6235 74.8062 47.1707 74.9813 46.4911 74.7835C45.9438 74.6247 45.3959 74.4634 44.8584 74.2784C44.6323 74.2006 44.4821 74.2371 44.3438 74.4321C44.0363 74.8658 43.7277 75.2979 43.4059 75.7212C43.2657 75.9063 43.2947 76.0088 43.4713 76.1481C44.0454 76.5994 44.5952 77.0818 45.1703 77.5314C45.4409 77.7427 45.4984 77.999 45.3832 78.2953C45.2177 78.7198 45.0519 79.1486 44.8313 79.5456C44.2663 80.5651 43.6715 81.5675 43.0388 82.6633C44.2573 83.2525 45.3872 83.7993 46.6092 84.3916L46.6121 84.3921Z" fill="white"/>
<path d="M58.2064 56.6624C59.8939 56.1634 61.5982 56.0359 63.2932 56.2746C65.1896 56.5427 66.7297 57.4187 67.2916 59.4077C67.6814 60.7893 67.4015 62.1218 66.5459 63.3243C65.2034 65.2099 63.3215 66.3344 61.2463 67.1416C59.6774 67.752 58.0776 68.2818 56.4732 68.7859C55.8473 68.983 55.175 69.0446 54.5188 69.1044C53.8613 69.1645 53.3377 68.8754 52.9792 68.3133C52.7585 67.9671 52.5295 67.626 52.3285 67.2681C50.7833 64.5322 49.2308 61.7998 48.3913 58.7193C47.9596 57.1364 47.9033 55.546 48.4064 53.9498C48.9778 52.1347 50.6094 50.8141 52.3813 50.7838C53.8382 50.7586 54.956 51.4644 55.8823 52.539C56.9309 53.7557 57.7557 55.0994 58.2064 56.6624ZM65.5089 63.0841C66.4935 61.4272 66.5194 60.0987 65.7964 59.0985C65.2059 58.2826 64.3478 57.8015 63.3729 57.6289C61.6671 57.3268 59.9577 57.3756 58.2672 57.9003C57.714 58.0724 57.5609 57.9071 57.4725 57.3151C57.4085 56.8856 57.2925 56.4569 57.1369 56.0538C56.6344 54.7555 55.7558 53.7325 54.7713 52.7903C53.1218 51.2113 50.6542 51.6271 49.5538 53.6876C48.9482 54.8223 48.8908 56.0469 49.0735 57.2694C49.3299 58.9864 49.9096 60.6129 50.6657 62.1445C51.442 63.7174 52.3822 65.2057 53.259 66.7257C53.4517 67.059 53.6837 67.3688 53.8995 67.688C54.0575 67.9211 54.2721 68.0505 54.5612 68.0118C55.1165 67.9388 55.6882 67.9248 56.2215 67.7687C57.4969 67.3946 58.7624 66.9763 60.0161 66.5281C60.8416 66.2329 61.661 65.8979 62.4453 65.5009C63.7987 64.8167 64.9962 63.9237 65.5091 63.0819L65.5089 63.0841Z" fill="white"/>
<defs>
<filter id="filter0_d_1681_891" x="0.157127" y="0.587303" width="120.3" height="121.3" filterUnits="userSpaceOnUse" color-interpolation-filters="sRGB">
<feFlood flood-opacity="0" result="BackgroundImageFix"/>
<feColorMatrix in="SourceAlpha" type="matrix" values="0 0 0 0 0 0 0 0 0 0 0 0 0 0 0 0 0 0 127 0" result="hardAlpha"/>
<feOffset dy="4"/>
<feGaussianBlur stdDeviation="17.7"/>
<feComposite in2="hardAlpha" operator="out"/>
<feColorMatrix type="matrix" values="0 0 0 0 0.929412 0 0 0 0 0.141176 0 0 0 0 0.329412 0 0 0 0.52 0"/>
<feBlend mode="normal" in2="BackgroundImageFix" result="effect1_dropShadow_1681_891"/>
<feBlend mode="normal" in="SourceGraphic" in2="effect1_dropShadow_1681_891" result="shape"/>
</filter>
</defs>
</svg>
