<svg xmlns="http://www.w3.org/2000/svg" width="506" height="279" fill="none" xmlns:v="https://vecta.io/nano"><path d="M282.473 38.974l-.63 1.556c-3.478 7.728-9.148 13.154-17.094 16.151-2.405.907-4.931 1.189-7.432.675-5.786-1.189-8.068-6.101-7.528-10.878.54-4.835 2.854-8.847 5.985-12.434 3.433-3.935 7.509-6.982 12.504-8.692.193-.064.373-.161.72-.321-.276-.656-.482-1.325-.823-1.922-4.178-7.445-10.652-11.084-19.074-10.538-8.229.534-14.079 4.906-17.37 12.544-.225.514-.367 1.067-.573 1.595-.546 1.363-1.24 1.543-2.269.521l-4.513-4.636-2.269-2.308c-.894-.874-.997-1.864-.495-2.957.109-.232.218-.463.353-.681 5.394-9.143 13.282-14.755 23.8-16.292 16.618-2.424 31.687 7.895 36.149 23.345.07.244.18.489.205.739.09.894.585 1.26 1.447 1.517 4.596 1.35 8.737 3.581 12.298 6.796 7.168 6.461 10.858 14.511 11.083 24.181.348 15.045-10.151 29.157-26.165 32.507-1.35.283-2.745.476-4.121.501-3.49.071-6.988.013-10.479.032-1.587.006-2.854-.585-3.953-1.73L246.478 71.96c-.212-.219-.437-.444-.604-.694-.598-.919-.225-1.742.842-1.903.251-.039.514-.019.772-.019l10.941-.006c1.685-.013 3.067.495 4.237 1.775 1.697 1.858 3.536 3.581 5.272 5.401.726.765 1.542 1.112 2.59 1.087 2.868-.084 5.735.161 8.583-.547 9.476-2.353 16.027-11.219 15.32-20.94-.54-7.503-4.147-13.071-10.807-16.626-.309-.167-.65-.283-1.151-.495v-.013zm-8.737-5.15c-.469.026-.983-.032-1.44.096-.977.283-1.98.572-2.88 1.029-3.896 1.98-6.93 4.899-9.064 8.718-.47.842-.817 1.768-1.113 2.694-.173.547-.115 1.164-.167 1.73 5.658.804 15.513-9.072 14.658-14.267h.006zM27.668 127.551c.148-4.706.926-9.226 2.989-13.47 3.594-7.4 9.617-11.579 17.602-12.993 4.384-.778 8.807-.708 13.14.418 8.287 2.16 13.905 7.316 16.599 15.436 2.366 7.131 2.353 14.364-.116 21.474-2.822 8.127-8.473 13.29-16.875 15.322-5.458 1.318-10.922 1.208-16.258-.508-8.93-2.881-14.066-9.246-16.104-18.221-.553-2.437-.656-4.97-.971-7.458h-.006zm13.147-.071c0 1.08-.071 2.16.013 3.234.244 3.041.836 5.999 2.359 8.699 1.517 2.694 3.761 4.43 6.782 5.15a16.44 16.44 0 0 0 6.114.308c3.716-.514 6.57-2.282 8.312-5.632.63-1.221 1.151-2.533 1.492-3.864 1.138-4.442 1.17-8.936.463-13.45-.341-2.141-.945-4.205-1.993-6.114-1.401-2.546-3.452-4.327-6.274-5.112a15.58 15.58 0 0 0-8.666.033c-3.851 1.118-6.05 3.889-7.329 7.509-1.054 2.99-1.401 6.095-1.26 9.252l-.013-.013zm140.186 18.536l-1.074 1.228c-2.301 2.359-5.053 4.038-8.119 5.176-6.062 2.256-12.305 2.848-18.631 1.478-7.785-1.684-13.494-6.165-16.689-13.508-3.433-7.895-3.864-16.035-.932-24.174 3.324-9.213 11.572-15.09 21.363-15.508 3.041-.128 6.056-.032 9.007.817 8.074 2.314 12.831 7.754 14.824 15.771.727 2.912.843 5.889.656 8.879a6.35 6.35 0 0 1-.289 1.504c-.251.81-.836 1.28-1.697 1.344a25.38 25.38 0 0 1-1.845.052h-29.29c-.656 0-1.305.045-2.173.083.148 1.235.161 2.321.431 3.337.476 1.826.893 3.716 1.71 5.407 2.102 4.353 5.792 6.481 10.53 6.957 4.179.418 8.055-.502 11.701-2.54.848-.476 1.703-.958 2.578-1.389 1.999-.977 3.304-.668 4.712 1.068l3.227 4.024v-.006zm-10.607-24.631c-.103-.919-.168-1.877-.322-2.816-.784-4.693-3.78-7.927-8.28-8.821-1.144-.225-2.353-.232-3.523-.199-5.092.141-8.64 2.597-10.588 7.291-.431 1.035-.727 2.134-1.022 3.221-.123.463-.084.964-.116 1.433 1.98.322 22.539.245 23.857-.109h-.006zm-58.457 32.378h-5.285-4.468c-1.549 0-1.556-.006-2.115-1.408l-8.254-20.741-7.483-18.896c-.405-1.035-.945-1.575-2.089-1.652-1.119-.077-2.224-.354-3.33-.592-1.569-.334-2.437-1.208-2.494-2.706l-.019-6.256h25.253c.045.354.128.746.135 1.144v4.314c-.026 2.289-.753 3.138-2.977 3.569l-2.347.501c3.131 10.036 7.656 19.481 9.881 29.897.225-.367.418-.56.456-.772.842-4.783 2.636-9.265 4.327-13.784l5.014-13.573c.174-.475.328-.964.553-1.633l-2.874-.617c-2.308-.444-2.963-1.196-2.983-3.517l.02-4.931c0-.148.058-.302.083-.444 1.157-.341 20.707-.482 24.989-.18.071.251.218.527.218.81v5.24c-.051 1.73-.829 2.598-2.552 2.964-1.105.232-2.211.502-3.33.592-1.08.083-1.594.578-1.973 1.568l-6.449 16.325-9.251 23.325c-.167.425-.366.842-.642 1.473l-.013-.02z" fill="#f08"/><path d="M294.148 132.083l-.675-.63c-5.503-4.571-6.924-10.544-5.497-17.224 1.382-6.474 5.702-10.447 11.977-12.196 6.004-1.672 11.887-1.241 17.48 1.736.553.295 1.266.405 1.903.418l10.633.019h1.864c0 1.138.071 2.147-.019 3.137-.071.823-.598 1.428-1.427 1.627-.643.154-1.312.225-1.974.283l-4.822.373.676 1.633c2.192 5.593 2.057 11.071-1.113 16.26-2.68 4.397-6.853 6.693-11.796 7.625-3.883.726-7.773.617-11.592-.489-.842-.244-1.53-.141-2.102.476-.758.823-1.607 1.614-2.16 2.572-1.17 2.038-.533 3.941 1.543 5.047 1.807.958 3.793 1.286 5.786 1.434 3.581.276 7.181.392 10.762.662 3.169.238 6.371.424 9.386 1.549 1.472.547 2.951 1.241 4.217 2.16 3.542 2.572 4.211 6.282 3.574 10.32-.552 3.542-2.417 6.397-5.072 8.75-3.529 3.118-7.727 4.893-12.298 5.645-5.94.977-11.868.791-17.66-1.1-2.514-.816-4.854-1.967-6.853-3.722-3.664-3.215-5.162-7.201-4.069-12.023.63-2.784 2.314-4.893 4.57-6.558 1.023-.759 2.135-1.395 3.292-2.134-.315-.271-.553-.521-.836-.721-2.938-2.063-3.516-5.863-2.558-8.692.694-2.057 1.98-3.697 3.574-5.118l1.286-1.119zm12.799 36.172c.823 0 1.646.051 2.463-.006 3.677-.277 7.193-1.126 10.35-3.125 1.858-1.177 3.426-2.668 4.237-4.751 1.465-3.774.52-6.886-3.446-8.32-.527-.193-1.055-.437-1.601-.527-2.122-.341-4.25-.727-6.384-.92l-12.89-.925c-.405-.026-.861-.078-1.215.064-2.443 1.009-4.725 2.276-6.313 4.488-2.308 3.201-1.903 7.2.977 9.907 1.254 1.177 2.726 1.987 4.327 2.598 3.06 1.163 6.236 1.633 9.502 1.517h-.007zm-.295-37.772c1.266-.155 2.558-.206 3.805-.483 4.372-.97 7.419-3.497 8.48-7.933.405-1.717.482-3.575.334-5.337-.392-4.77-3.465-8.326-8.074-9.586-3.035-.829-6.095-.849-9.123.006-3.947 1.119-6.711 3.575-7.714 7.606-.424 1.711-.521 3.569-.386 5.337.315 4.16 2.417 7.226 6.236 9.027 2.032.958 4.192 1.33 6.448 1.369l-.006-.006zm-118.836 21.821v-57.17l-3.491-.257-1.691-.129c-1.266-.219-2.025-.984-2.134-2.27-.09-1.009-.02-2.032-.02-3.009 1.241-.418 12.254-.495 14.034-.084v19.147l.322.173.977-.765c1.697-1.324 3.298-2.803 5.111-3.934 3.78-2.354 7.978-3.112 12.401-2.772 2.012.155 3.973.483 5.857 1.19 5.111 1.922 8.518 5.574 10.614 10.538 1.414 3.349 2.082 6.879 2.359 10.473.399 5.253.206 10.467-1.395 15.553-2.115 6.693-6.037 11.842-12.581 14.742-3.71 1.64-7.625 1.98-11.617 1.685-5.947-.438-11.797-1.543-17.628-2.739-.296-.065-.585-.193-1.118-.373zm6.756-4.623c.425.122.611.193.81.225 3.594.598 7.168 1.344 10.781 1.749 4.526.501 8.821-.289 12.472-3.266 3.028-2.469 4.719-5.774 5.735-9.458 1.324-4.828 1.363-9.74.778-14.672-.341-2.867-.99-5.664-2.353-8.242-1.659-3.137-4.121-5.375-7.567-6.359-5.233-1.498-10.164-.842-14.664 2.334-1.903 1.344-3.51 2.996-4.989 4.79-.726.875-1.028 1.794-1.022 2.945l.019 28.205v1.762-.013z" fill="#2d1d88"/><path d="M.552 90.312h20.116v53.428l3.864.759.913.135c2.334.495 2.996 1.305 3.009 3.703l-.045 4.931c0 .09-.084.18-.186.38H.674c-.051-.341-.148-.682-.154-1.023v-4.777c.032-1.781.714-2.655 2.43-3.054l3.478-.643 1.723-.411v-43.552l-4.224-.785c-.553-.109-1.119-.199-1.639-.392-.996-.373-1.671-1.132-1.71-2.18l-.026-6.513v-.007z" fill="#f08"/><path d="M237.909 107.916l-3.157-.187c-.816-.064-1.639-.09-2.436-.263-1.068-.232-1.685-1.003-1.768-2.077-.084-1.061-.02-2.135-.02-3.305h14.06v1.878 30.815c0 2.424.167 4.822.907 7.15 1.6 5.015 4.937 7.541 10.189 7.895 5.484.367 10.036-1.639 14.021-5.208 2.285-2.044 3.425-4.588 3.421-7.631v-27.119-1.929c-.778-.071-1.376-.142-1.981-.167-.771-.032-1.542-.013-2.307-.052-2.141-.115-3.061-1.061-3.099-3.189-.013-.765 0-1.523 0-2.514l14.092-.019v46.696c2.076.772 4.185-.012 6.049.888l-3.336 5.259c-2.012 0-4.218.051-6.416-.019-1.389-.045-2.032-.695-2.225-2.09-.147-1.067-.141-2.147-.218-3.227-.039-.54-.103-1.081-.199-2l-1.46 1.305c-2.867 2.636-6.024 4.797-9.804 5.909-3.825 1.118-7.714 1.234-11.571.347-6.333-1.459-10.029-5.677-11.765-11.772-.72-2.533-.984-5.131-.977-7.767v-25.576-2.031z" fill="#2d1d88"/><path d="M228.889 77.396l1.749.116 8.164.006c.887-.013 1.543.276 2.16.926l9.097 9.419c.212.219.45.437.592.707.302.572.038 1.157-.605 1.292-.443.096-.919.084-1.382.077l-29.74-.039c-2.513 0-2.937-.418-2.86-2.996l.784-24.168.36-11.084.63-20.015.013-.463c-.019-.649.045-1.389.765-1.479.443-.058 1.048.328 1.414.681l6.018 6.179 2.905 2.977c.746.694 1.023 1.485.978 2.469l-.129 4.314-.913 29.254v1.826z" fill="#f08"/><path d="M138.468 179.172c2.308 1.054 3.279 2.855 3.195 5.317-.09 2.713-1.813 4.912-4.532 5.189-2.488.257-5.021.154-7.534.128-.9-.006-1.235-.443-1.338-1.369-.045-.405-.019-.823-.019-1.228v-14.164-1.742l-1.839-.406-.057-1.33 1.311-.11h7.393c.611 0 1.247 0 1.839.148 1.864.457 3.304 1.492 3.767 3.44.495 2.077.18 3.986-1.614 5.413a7.32 7.32 0 0 0-.456.405c-.032.033-.032.09-.109.309h-.007zm-8.222 1.106l-.064 1.299.012 5.696c0 .617.341.971.952.977l5.072-.07c2.218-.245 3.427-1.788 3.427-4.012s-1.19-3.819-3.382-4.057c-1.871-.206-3.78-.052-5.67-.045-.084 0-.174.103-.347.218v-.006zm0-1.961l5.67-.013c.296 0 .598-.141.881-.264 1.401-.604 2.269-2.205 2.063-3.793-.212-1.652-1.195-2.848-2.796-3.028-1.575-.18-3.176-.122-4.764-.135-.334 0-.668.128-1.048.206v7.027h-.006zm-23.394-9.213c6.036-.02 10.703 4.481 10.736 10.344.032 6.038-4.674 10.815-10.679 10.834a10.71 10.71 0 0 1-10.761-10.621c-.051-5.935 4.615-10.538 10.704-10.557zm.019 1.781c-4.886 0-8.724 3.812-8.685 8.673.039 4.571 3.337 8.834 8.698 8.924 4.796.077 8.659-3.986 8.672-8.937.019-4.867-3.799-8.667-8.692-8.66h.007zm58.881 8.608c.019-5.921 4.59-10.325 10.659-10.409 5.265-.077 10.717 3.813 10.749 10.525.026 5.909-4.822 10.666-10.71 10.673-6.018 0-10.717-4.732-10.698-10.789zm10.698-8.608c-4.912-.007-8.673 3.748-8.679 8.66 0 4.963 3.831 8.943 8.646 8.962 4.745.026 8.699-4.024 8.718-8.936.026-4.842-3.819-8.68-8.692-8.686h.007zM72.117 169.56c.296-.045.546-.109.791-.109l8.319.026c5.182.141 6.57 5.04 5.008 8.493-.437.964-1.164 1.684-2.089 2.186l-1.132.578 3.472 6.565c.334.572 1.151.861 1.922 1.408v.842c-.161.109-.238.212-.321.219-2.173.25-2.591.045-3.568-1.82l-2.668-5.201c-.534-1.119-1.35-1.601-2.559-1.569h-3.407l-.013 4.301v4.244h-1.909v-18.408l-1.832-.437v-1.324l-.013.006zm3.825 9.966c2.102.012 4.044.257 5.966-.174 1.806-.405 2.809-1.839 2.867-3.877.058-2.16-.874-3.761-2.661-4.179-2.006-.463-4.057-.244-6.165-.167v8.39l-.007.007zm-23.754 2.231v7.978h-1.929v-18.432l-1.845-.406v-1.343l.932-.097 8.164.007c4.301.013 7.226 3.787 5.715 8.39-.778 2.379-2.629 3.62-5.085 3.851-1.324.129-2.668.045-3.999.058h-1.954v-.006zm.103-1.659c2.199.109 4.294.321 6.345-.238 1.948-.527 3.034-2.282 2.964-4.513-.064-2.045-1.221-3.652-3.124-4.064-2.012-.437-4.063-.225-6.184-.167v8.982zm200.809-5.253c-.174.032-.367.084-.566.09-.251 0-.508-.032-.816-.051-.058-.193-.167-.386-.161-.573.026-1.26-.688-2.018-1.736-2.488-3.169-1.414-6.306-1.478-9.199.611-2.97 2.141-3.903 5.24-3.311 8.718.578 3.453 2.558 5.922 5.985 6.963 2.887.881 5.574.193 8.042-1.466.38-.257.74-.553 1.222-.919l.971 1.022c-.033.193-.02.322-.078.386-4.68 4.783-14.76 4.481-17.685-3.819-1.852-5.259.251-10.898 4.969-13.161 3.459-1.659 6.988-1.434 10.396.206 1.999.964 2.43 2.109 1.967 4.475v.006zm9.129 12.595l1.183-1.363c1.401 1.254 2.886 2.115 4.667 2.392 1.164.18 2.256-.026 3.259-.605 2.193-1.266 2.495-4.05.579-5.696-.727-.624-1.62-1.067-2.475-1.524l-4.115-2.076c-1.144-.643-2.018-1.582-2.391-2.894-.604-2.108.174-4.333 2.096-5.477 2.687-1.601 5.49-1.486 8.222-.078 1.434.74 1.723 2.064 1.427 3.729l-1.318.123c-.154-.161-.263-.225-.282-.309-.483-1.961-1.254-2.623-3.279-2.784-1.138-.09-2.257-.013-3.285.566-2.147 1.202-2.411 3.678-.476 5.188.797.624 1.755 1.042 2.668 1.505l3.581 1.768c2.359 1.395 3.246 3.317 2.809 5.806-.392 2.243-2.218 3.934-4.776 4.384-3.118.553-5.735-.443-8.088-2.655h-.006zm-59.871-16.356h-5.041c-.668 0-1.067.302-1.08 1.016 0 .25-.045.508-.083.9l-1.453.077c-.084-.244-.174-.386-.18-.527-.167-3.498.321-3.093 2.97-3.099H209.5l1.382.026c.759 0 1.151.456 1.215 1.131.071.752.013 1.517.013 2.373h-1.581l-.36-1.601c-1.254-.386-4.019-.438-5.825-.084-.206 3.009-.064 6.063-.09 9.117v9.335l-1.774.084-.116-1.903v-14.775-2.064l-.006-.006zm-47.329 17.089l1.658.193.071 1.395c-1.903.187-3.722.109-5.676.039l-.09-1.415 1.607-.205c.366-1.055.501-14.512.16-16.929l-1.684-.36v-1.363h5.612l.065 1.318-1.659.36c-.341 1.132-.411 15.16-.064 16.961v.006zm69.283-.032l1.723.231v1.383h-5.6v-1.35l1.607-.245c.322-1.221.367-15.385.052-16.935l-1.665-.315v-1.343h5.606l.083 1.33-1.813.348v16.909l.007-.013zM340.506 83.754c4.165.051 7.38 3.414 7.348 7.683-.039 4.23-3.35 7.509-7.554 7.477-4.16-.032-7.387-3.414-7.335-7.683.051-4.25 3.355-7.529 7.541-7.477zm6.281 7.593c0-3.716-2.893-6.719-6.442-6.68-3.491.038-6.307 3.015-6.3 6.661 0 3.697 2.77 6.622 6.287 6.641 3.626.019 6.461-2.887 6.461-6.622h-.006zm-7.927 3.896c-.855.315-.926-.212-.932-.772l-.026-4.61c-.032-.752-.167-2.585.096-2.597l2.617-.006c1.093.039 2.012.373 2.417 1.53.386 1.099.103 2.006-.778 2.745-.115.096-.25.18-.488.354l2.005 3.298c-.694.36-1.234.244-1.62-.463l-.765-1.504c-.424-.99-1.086-1.466-2.34-1.042l-.173 3.067h-.013zm.173-4.108c1.074.039 2.122.469 2.842-.617.411-.617.386-1.318-.116-1.839-.765-.791-1.716-.688-2.726-.347v2.81-.006zM217.696 227.563l-.32 1.888h-23.008l.32-1.888h23.008zm37.522-9.28l-3.904 22.08h-2.24l3.104-17.6-10.944 17.6h-1.632l-4.8-17.568-3.072 17.568h-2.24l3.904-22.08h2.368l5.216 19.136 11.872-19.136h2.368zm1.722 13.312c.32-1.792.96-3.36 1.92-4.704.96-1.366 2.133-2.411 3.52-3.136 1.408-.747 2.912-1.12 4.512-1.12 1.664 0 3.029.384 4.096 1.152s1.76 1.749 2.08 2.944l.672-3.84h2.24l-3.072 17.472h-2.24l.672-3.872c-.726 1.194-1.771 2.186-3.136 2.976-1.344.768-2.848 1.152-4.512 1.152-1.387 0-2.603-.288-3.648-.864a6.06 6.06 0 0 1-2.432-2.432c-.576-1.067-.864-2.315-.864-3.744 0-.619.064-1.28.192-1.984zm15.264.032c.106-.598.16-1.131.16-1.6 0-1.664-.502-2.987-1.504-3.968s-2.304-1.472-3.904-1.472c-1.238 0-2.4.277-3.488.832-1.067.554-1.974 1.365-2.72 2.432-.747 1.045-1.248 2.293-1.504 3.744-.107.64-.16 1.184-.16 1.632 0 1.685.49 3.018 1.472 4 1.002.96 2.304 1.44 3.904 1.44a7.22 7.22 0 0 0 3.424-.864c1.109-.576 2.037-1.398 2.784-2.464.768-1.067 1.28-2.304 1.536-3.712zm6.329-.032c.32-1.792.96-3.36 1.92-4.704.96-1.366 2.144-2.411 3.552-3.136 1.408-.747 2.912-1.12 4.512-1.12 1.536 0 2.848.373 3.936 1.12 1.11.746 1.856 1.717 2.24 2.912l1.76-9.984h2.24l-4.192 23.68h-2.24l.704-3.904c-.768 1.216-1.824 2.218-3.168 3.008-1.344.768-2.837 1.152-4.48 1.152-2.112 0-3.808-.63-5.088-1.888-1.258-1.28-1.888-2.998-1.888-5.152 0-.619.064-1.28.192-1.984zm15.264.032c.107-.598.16-1.131.16-1.6 0-1.664-.501-2.987-1.504-3.968s-2.304-1.472-3.904-1.472a7.57 7.57 0 0 0-3.488.832c-1.066.554-1.973 1.365-2.72 2.432-.746 1.045-1.248 2.293-1.504 3.744a10.26 10.26 0 0 0-.16 1.632c0 1.685.491 3.018 1.472 4 1.003.96 2.304 1.44 3.904 1.44 1.195 0 2.336-.288 3.424-.864 1.11-.576 2.038-1.398 2.784-2.464.768-1.067 1.28-2.304 1.536-3.712zm16.506-8.992c1.472 0 2.731.288 3.776.864 1.045.554 1.835 1.322 2.368 2.304.555.981.832 2.101.832 3.36 0 .576-.043 1.088-.128 1.536l-.384 1.728h-14.496c-.064.405-.096.789-.096 1.152 0 1.642.491 2.912 1.472 3.808 1.003.896 2.272 1.344 3.808 1.344 1.472 0 2.763-.352 3.872-1.056s1.92-1.654 2.432-2.848h2.4c-.725 1.706-1.888 3.104-3.488 4.192-1.579 1.066-3.424 1.6-5.536 1.6-2.176 0-3.925-.619-5.248-1.856-1.301-1.259-1.952-2.966-1.952-5.12a11.28 11.28 0 0 1 .192-2.016c.32-1.814.96-3.403 1.92-4.768.981-1.366 2.187-2.411 3.616-3.136s2.976-1.088 4.64-1.088zm4.544 8.128c.107-.598.16-1.099.16-1.504 0-1.515-.48-2.678-1.44-3.488s-2.187-1.216-3.68-1.216c-1.088 0-2.133.234-3.136.704s-1.877 1.173-2.624 2.112-1.259 2.069-1.536 3.392h12.256zm18.912-11.168c-.406 0-.736-.118-.992-.352-.256-.256-.384-.587-.384-.992 0-.555.192-1.014.576-1.376.384-.384.842-.576 1.376-.576.405 0 .725.117.96.352.256.234.384.544.384.928 0 .554-.192 1.034-.576 1.44-.384.384-.832.576-1.344.576zm.512 3.296l-3.072 17.472h-2.24l3.072-17.472h2.24zm13.36-.32c1.792 0 3.222.49 4.288 1.472 1.088.96 1.632 2.368 1.632 4.224 0 .682-.053 1.301-.16 1.856l-1.824 10.24h-2.208l1.76-9.984c.086-.491.128-1.014.128-1.568 0-1.408-.384-2.475-1.152-3.2s-1.845-1.088-3.232-1.088c-1.685 0-3.125.533-4.32 1.6s-1.973 2.634-2.336 4.704v-.096l-1.696 9.632h-2.24l3.072-17.472h2.24l-.544 3.008a7.55 7.55 0 0 1 2.848-2.464c1.152-.576 2.4-.864 3.744-.864zm22.04 13.056c-.064.384-.096.714-.096.992 0 .682.181 1.162.544 1.44.384.256 1.002.384 1.856.384h2.048l-.352 1.92h-2.4c-1.323 0-2.315-.256-2.976-.768s-.992-1.355-.992-2.528a8.32 8.32 0 0 1 .128-1.44l1.92-10.848h-2.432l.352-1.888h2.432l.768-4.384h2.24l-.768 4.384h4.832l-.352 1.888h-4.832l-1.92 10.848zm19.15-13.056c1.749 0 3.157.48 4.224 1.44s1.6 2.378 1.6 4.256c0 .682-.053 1.301-.16 1.856l-1.824 10.24h-2.208l1.76-9.984c.085-.491.128-1.014.128-1.568 0-1.408-.384-2.475-1.152-3.2s-1.845-1.088-3.232-1.088c-1.685 0-3.125.533-4.32 1.6s-1.973 2.634-2.336 4.704v-.032l-1.696 9.568h-2.24l4.192-23.68h2.24l-1.632 9.184c.747-1.067 1.707-1.878 2.88-2.432 1.173-.576 2.432-.864 3.776-.864zm19.482.064c1.472 0 2.731.288 3.776.864 1.045.554 1.835 1.322 2.368 2.304.555.981.832 2.101.832 3.36 0 .576-.043 1.088-.128 1.536l-.384 1.728h-14.496c-.064.405-.096.789-.096 1.152 0 1.642.491 2.912 1.472 3.808 1.003.896 2.272 1.344 3.808 1.344 1.472 0 2.763-.352 3.872-1.056s1.92-1.654 2.432-2.848h2.4c-.725 1.706-1.888 3.104-3.488 4.192-1.579 1.066-3.424 1.6-5.536 1.6-2.176 0-3.925-.619-5.248-1.856-1.301-1.259-1.952-2.966-1.952-5.12a11.28 11.28 0 0 1 .192-2.016c.32-1.814.96-3.403 1.92-4.768.981-1.366 2.187-2.411 3.616-3.136s2.976-1.088 4.64-1.088zm4.544 8.128c.107-.598.16-1.099.16-1.504 0-1.515-.48-2.678-1.44-3.488s-2.187-1.216-3.68-1.216c-1.088 0-2.133.234-3.136.704s-1.877 1.173-2.624 2.112-1.259 2.069-1.536 3.392h12.256zm20.224-12.768l-2.496 14.048c-.128.661-.192 1.28-.192 1.856 0 1.6.437 2.784 1.312 3.552.874.746 2.09 1.12 3.648 1.12 1.813 0 3.328-.534 4.544-1.6 1.237-1.067 2.058-2.71 2.464-4.928l2.496-14.048h2.24l-2.496 14.048c-.491 2.816-1.622 4.949-3.392 6.4-1.75 1.429-3.83 2.144-6.24 2.144-2.07 0-3.723-.534-4.96-1.6s-1.856-2.656-1.856-4.768a13.26 13.26 0 0 1 .192-2.176l2.496-14.048h2.24zm22.18 22.592c-1.344 0-2.528-.224-3.552-.672-1.003-.448-1.781-1.078-2.336-1.888s-.832-1.739-.832-2.784c0-.278.011-.491.032-.64h2.208c-.043.682.075 1.344.352 1.984.299.618.8 1.141 1.504 1.568.725.405 1.653.608 2.784.608 1.579 0 2.837-.395 3.776-1.184s1.408-1.856 1.408-3.2c0-.811-.224-1.483-.672-2.016-.427-.555-.96-1.003-1.6-1.344-.64-.363-1.515-.768-2.624-1.216-1.301-.512-2.336-.982-3.104-1.408a5.8 5.8 0 0 1-1.92-1.824c-.491-.768-.693-1.75-.608-2.944.043-1.152.384-2.166 1.024-3.04.661-.896 1.547-1.59 2.656-2.08 1.131-.512 2.411-.768 3.84-.768 1.408 0 2.613.245 3.616.736 1.024.469 1.781 1.12 2.272 1.952.512.832.736 1.749.672 2.752h-2.336c.043-.576-.096-1.142-.416-1.696-.299-.555-.789-1.003-1.472-1.344-.661-.363-1.483-.544-2.464-.544-1.515 0-2.752.373-3.712 1.12-.96.725-1.44 1.717-1.44 2.976 0 .746.213 1.376.64 1.888s.949.938 1.568 1.28 1.472.736 2.56 1.184c1.259.512 2.272.992 3.04 1.44a6.13 6.13 0 0 1 1.984 1.792c.555.746.832 1.685.832 2.816 0 .277-.011.49-.032.64a5.81 5.81 0 0 1-1.088 2.976c-.64.896-1.525 1.6-2.656 2.112-1.109.512-2.411.768-3.904.768zm24.909-5.536h-10.208l-2.88 5.312h-2.368l12.064-22.08h2.528l4.224 22.08h-2.368l-.992-5.312zm-.352-1.792l-2.272-12.192-6.624 12.192h8.896zM228.53 243.563h257.614v1.6H228.53v-1.6z" fill="#2d1d88"/></svg>