<svg width="123" height="122" viewBox="0 0 123 122" fill="none" xmlns="http://www.w3.org/2000/svg">
<g filter="url(#filter0_d_1672_174)">
<path d="M86.6475 55.9004C86.6475 69.4314 78.9773 81.9004 65.082 81.9004C51.1866 81.9004 35.8145 71.9314 35.8145 58.4004C35.8145 44.8694 42.4577 31.4004 56.3531 31.4004C70.2484 31.4004 86.6475 42.3694 86.6475 55.9004Z" fill="#E489A8"/>
</g>
<path d="M76.7445 56.9147C76.6336 57.1108 76.5606 57.3453 76.4047 57.4975C75.4829 58.3927 74.5367 59.262 73.6106 60.1521C73.3318 60.4204 73.0408 60.5327 72.6828 60.3477C72.253 60.126 72.1911 59.6091 72.5738 59.2191C73.3858 58.392 74.2172 57.5834 75.0764 56.7312C74.9181 56.4459 74.7417 56.1301 74.5284 55.7474C69.6546 58.9592 64.4107 61.4161 58.9377 63.4861C59.0775 65.0382 58.2588 65.8532 56.7476 66.1257C57.1092 66.5326 57.4604 66.9003 57.7791 67.2937C58.1119 67.7058 58.073 68.1345 57.7199 68.3825C57.3808 68.6208 56.9889 68.5329 56.6651 68.1282C56.0794 67.3973 55.3999 66.7747 54.5155 66.3043C54.0841 67.1055 53.9227 67.9505 53.8612 68.8209C53.8525 68.9422 53.8673 69.0665 53.8491 69.187C53.7915 69.5713 53.5612 69.7947 53.1611 69.8176C52.7866 69.8377 52.4644 69.5614 52.464 69.1618C52.4643 68.6009 52.5267 68.0397 52.5642 67.4516C52.2383 67.5543 51.9223 67.6951 51.5901 67.7508C50.6821 67.9028 49.9441 67.59 49.4382 66.8443C49.275 66.6043 49.1426 66.5764 48.8737 66.6315C45.8478 67.2497 42.8184 67.8536 39.791 68.4594C39.6841 68.4802 39.5744 68.4967 39.4652 68.5027C39.0105 68.5287 38.7089 68.3104 38.6539 67.9177C38.6019 67.546 38.8109 67.2468 39.2402 67.1644C39.9951 67.022 40.7614 66.9378 41.5128 66.781C43.9387 66.277 46.3599 65.7552 48.7792 65.2237C48.9644 65.1834 49.1875 65.046 49.2773 64.8901C49.8291 63.9452 50.67 63.4881 51.7926 63.6953C52.4932 63.8239 53.1655 64.0981 53.9111 64.3261C54.0009 64.1701 54.1269 63.9319 54.2704 63.7023C54.7019 63.0171 55.1911 62.3859 55.9969 62.0739C56.6161 61.8337 57.2164 61.8715 57.8225 62.1421C57.9963 62.2188 58.2573 62.2552 58.4228 62.1837C61.2685 60.9673 64.1541 59.8273 66.9282 58.471C69.1785 57.3712 71.2938 56.0085 73.4682 54.7599C73.5751 54.6991 73.6714 54.6185 73.8218 54.5131C73.6456 54.2102 73.5278 53.8515 73.28 53.6278C73.0548 53.4242 72.6749 53.237 72.3891 53.2691C71.1192 53.4114 70.2592 54.1697 69.6626 55.2228C69.3166 55.8347 69.2439 55.8988 68.5225 55.8193C66.7486 55.624 65.3216 56.3612 64.4804 57.9091C64.2127 58.4021 64.0115 58.4939 63.4521 58.3801C61.5712 57.998 60.1551 58.5886 59.161 60.1705C58.8717 60.6305 58.6427 60.7181 58.1015 60.5753C56.305 60.1009 54.7195 60.6637 53.6664 62.1597C53.4163 62.5145 53.0913 62.644 52.6935 62.4625C51.2194 61.7872 49.1637 62.3731 48.1403 63.7115C47.8062 64.1481 47.5537 64.1968 47.0421 63.9879C45.2928 63.273 43.7786 63.6044 42.4865 64.9863C42.1004 65.398 41.8857 65.4373 41.3694 65.19C39.7429 64.4106 38.1365 64.6357 36.8002 65.833C36.3147 66.2683 36.1692 66.2845 35.5971 65.989C34.6943 65.5231 33.7375 65.4442 32.7604 65.6709C31.6963 65.9185 31.4354 66.4958 31.8029 67.8008C32.8916 67.7389 33.9991 67.6774 35.1046 67.6101C35.4485 67.5894 35.7919 67.5393 36.1354 67.5174C36.6268 67.4863 36.9474 67.7102 37.0009 68.1021C37.0577 68.52 36.7947 68.8401 36.2777 68.8818C35.0118 68.9841 33.7441 69.0535 32.4756 69.1361C32.307 69.1466 32.1384 69.1611 31.924 69.1771L32.0537 70.3004C32.1714 70.324 32.2743 70.3508 32.3789 70.363C40.6716 71.3923 47.8658 74.6772 53.896 80.3351C54.1519 80.5755 54.3556 80.6506 54.7127 80.5342C56.6785 79.8928 58.6553 79.2803 60.6293 78.6596C60.7791 78.6124 60.9281 78.5589 61.0821 78.5323C61.4423 78.4691 61.7078 78.6266 61.8424 78.9361C61.9786 79.2504 61.8935 79.5479 61.5954 79.7424C61.4432 79.842 61.2586 79.904 61.0816 79.9611C59.3488 80.5109 57.6145 81.0561 55.8805 81.6025C55.7223 81.6523 55.563 81.7026 55.3712 81.763C56.025 82.5433 56.637 83.2736 57.2486 84.0066C57.3475 84.125 57.4424 84.2472 57.5361 84.3699C57.9705 84.9361 58.5268 85.1124 59.2051 84.8986C60.2812 84.5596 61.3538 84.2061 62.436 83.8896C62.7763 83.7901 62.9038 83.6481 62.9042 83.2908C62.9236 75.1865 65.5739 67.9603 70.589 61.5283C70.6652 61.4308 70.7382 61.3279 70.8309 61.2484C71.1195 61.0053 71.4359 60.9933 71.7305 61.2228C72.0058 61.4377 72.0749 61.7293 71.9215 62.0445C71.8558 62.1813 71.7543 62.3022 71.66 62.4247C66.7147 68.8076 64.1832 75.9693 64.3143 83.9927C64.3237 84.5906 64.185 84.7748 63.597 84.9614C61.8483 85.515 60.0999 86.0659 58.3496 86.6148C57.7421 86.8062 57.5356 86.7307 57.156 86.2096C51.2457 78.1119 43.1689 73.4458 33.1606 71.8469C32.6042 71.758 32.0393 71.7193 31.477 71.6722C31.0157 71.6345 30.7604 71.4081 30.7063 70.9584C30.5561 69.7138 30.3944 68.4703 30.2511 67.2261C30.0769 65.7261 30.9324 64.6314 32.5277 64.3053C33.6135 64.0831 34.6775 64.1578 35.729 64.5137C35.893 64.569 36.1555 64.5263 36.3002 64.4279C37.8752 63.3553 39.5582 63.066 41.3957 63.6758C41.5403 63.7244 41.7886 63.6629 41.9102 63.5627C43.3908 62.3496 45.0548 61.9594 46.9223 62.4759C47.1642 62.5428 47.3102 62.5239 47.4989 62.3509C48.9066 61.0538 50.5581 60.5541 52.4782 60.9303C52.6169 60.9574 52.834 60.8736 52.9341 60.7685C54.246 59.4062 55.8568 58.8677 57.7436 59.0958C58.0276 59.1301 58.1878 59.0783 58.3703 58.8545C59.5632 57.3852 61.1406 56.7541 63.0475 56.9153C63.301 56.9372 63.4333 56.8891 63.5813 56.6813C64.6648 55.1615 66.1814 54.427 68.0686 54.4216C68.369 54.4211 68.5334 54.3383 68.7085 54.0923C69.5076 52.9754 70.5544 52.1659 71.9567 51.9162C73.2305 51.6901 74.1071 52.1411 74.7278 53.2439C75.279 54.2215 75.8338 55.1981 76.3895 56.1731C76.4495 56.2779 76.5263 56.3736 76.5951 56.4731L76.7401 56.9096L76.7445 56.9147ZM52.9841 65.6715L52.9707 65.5197C52.4358 65.2486 51.8855 64.963 51.2625 65.0601C51.0032 65.1005 50.7119 65.3393 50.5745 65.567C50.4888 65.7074 50.5947 66.1021 50.7417 66.1976C50.9547 66.3368 51.3157 66.4074 51.5538 66.3311C52.0515 66.1717 52.51 65.8983 52.9841 65.6715ZM55.2277 64.7506L55.3572 64.9212C55.847 64.8416 56.3395 64.7702 56.8287 64.6806C57.1953 64.6128 57.5141 64.4246 57.5072 64.0374C57.5036 63.8194 57.3535 63.5392 57.1759 63.403C56.8634 63.1637 56.4828 63.2811 56.2352 63.5319C55.8658 63.9061 55.5603 64.3415 55.2277 64.7506Z" fill="white"/>
<path d="M55.7936 49.1443C56.1339 49.0371 56.3972 48.9412 56.6679 48.8714C57.0875 48.7637 57.4546 48.9561 57.5652 49.3248C57.6712 49.6757 57.494 50.0229 57.1111 50.1693C56.8374 50.2736 56.5527 50.3491 56.2315 50.4503C56.3335 50.7573 56.434 51.0118 56.5018 51.2754C56.6184 51.7261 56.4277 52.0685 56.0193 52.1779C55.6268 52.2835 55.3193 52.107 55.1567 51.6735C55.0656 51.4314 54.9926 51.1837 54.8898 50.8744C54.5806 50.9718 54.3061 51.0699 54.0251 51.1443C53.6038 51.2551 53.2299 51.0738 53.1072 50.7166C52.9858 50.3591 53.1778 49.993 53.5847 49.8429C53.8476 49.7459 54.1195 49.6718 54.4563 49.5657C54.3581 49.2704 54.2586 49.0027 54.181 48.7293C54.0644 48.3147 54.2126 48.0037 54.5763 47.8672C54.9575 47.7239 55.3231 47.8717 55.4963 48.2697C55.6119 48.5337 55.683 48.8155 55.7928 49.1458L55.7936 49.1443Z" fill="white"/>
<path d="M75.1561 70.3961C75.2627 70.717 75.3612 70.9735 75.4325 71.236C75.5435 71.6458 75.3519 72.0053 74.9793 72.1188C74.6066 72.2324 74.2443 72.0462 74.0897 71.6449C73.992 71.3907 73.9155 71.1286 73.8135 70.8217C73.5223 70.9134 73.2758 71.0001 73.0231 71.0682C72.5272 71.2012 72.1658 71.034 72.0432 70.6252C71.9237 70.2297 72.1108 69.9283 72.5895 69.7633C72.8364 69.6778 73.0876 69.6051 73.3788 69.5133C73.2756 69.2029 73.1811 68.9464 73.1062 68.6851C72.9869 68.2701 73.1614 67.9109 73.5269 67.7841C73.9081 67.6524 74.2863 67.8504 74.4506 68.2731C74.5444 68.5156 74.6299 68.7607 74.7213 69.0039C74.7248 69.0144 74.7462 69.0193 74.8159 69.0618C75.0388 68.9915 75.3006 68.8988 75.5693 68.827C76.0176 68.7063 76.346 68.862 76.4777 69.2421C76.6073 69.6164 76.4414 69.9537 76.0217 70.1207C75.7619 70.2232 75.4872 70.293 75.1565 70.3972L75.1561 70.3961Z" fill="white"/>
<path d="M36.2614 78.1107C36.5897 78.0072 36.8518 77.9117 37.1213 77.8423C37.5449 77.7346 37.9197 77.9182 38.0403 78.2735C38.1606 78.6314 37.9682 78.9924 37.5601 79.1429C37.2996 79.2392 37.0301 79.3125 36.6981 79.4171C36.7986 79.7194 36.8959 79.9724 36.9668 80.2337C37.0902 80.6886 36.9086 81.0346 36.5081 81.1479C36.1268 81.2552 35.799 81.0774 35.6331 80.6539C35.5342 80.4001 35.4593 80.1388 35.36 79.84C35.0341 79.9427 34.7711 80.0359 34.5012 80.1081C34.0776 80.2196 33.7048 80.0418 33.5834 79.6843C33.4627 79.3291 33.654 78.9606 34.0596 78.807C34.3206 78.708 34.5933 78.6363 34.9276 78.531C34.8264 78.2263 34.7201 77.9581 34.6497 77.6825C34.5385 77.2482 34.7198 76.9255 35.1127 76.8133C35.4825 76.7071 35.8105 76.8655 35.9739 77.2575C36.0792 77.5106 36.1508 77.7781 36.2618 78.1119L36.2614 78.1107Z" fill="white"/>
<defs>
<filter id="filter0_d_1672_174" x="0.414452" y="0.000389099" width="121.633" height="121.3" filterUnits="userSpaceOnUse" color-interpolation-filters="sRGB">
<feFlood flood-opacity="0" result="BackgroundImageFix"/>
<feColorMatrix in="SourceAlpha" type="matrix" values="0 0 0 0 0 0 0 0 0 0 0 0 0 0 0 0 0 0 127 0" result="hardAlpha"/>
<feOffset dy="4"/>
<feGaussianBlur stdDeviation="17.7"/>
<feComposite in2="hardAlpha" operator="out"/>
<feColorMatrix type="matrix" values="0 0 0 0 0.929412 0 0 0 0 0.141176 0 0 0 0 0.329412 0 0 0 0.52 0"/>
<feBlend mode="normal" in2="BackgroundImageFix" result="effect1_dropShadow_1672_174"/>
<feBlend mode="normal" in="SourceGraphic" in2="effect1_dropShadow_1672_174" result="shape"/>
</filter>
</defs>
</svg>
