<svg width="124" height="121" viewBox="0 0 124 121" fill="none" xmlns="http://www.w3.org/2000/svg">
<g filter="url(#filter0_d_1672_180)">
<path d="M78.1041 37.0703C88.2575 46.0143 92.6769 59.861 83.7329 70.0144C74.7889 80.1678 57.4137 84.8107 47.2603 75.8667C37.1069 66.9226 31.2761 53.1653 40.2201 43.0119C49.1641 32.8585 67.9507 28.1262 78.1041 37.0703Z" fill="#E489A8"/>
</g>
<path d="M46.7831 76.6483C46.2852 76.5837 45.8097 76.5232 45.3342 76.4597C43.815 76.2571 42.852 75.3639 42.5554 73.8608C42.102 71.565 41.6544 69.2675 41.2128 66.9694C40.9218 65.4565 41.4685 64.2852 42.8078 63.5171C43.1607 63.3143 43.5097 63.1043 43.8714 62.9183C44.0436 62.83 44.0749 62.7317 44.0415 62.5476C43.8879 61.7058 43.6893 60.866 43.6208 60.0156C43.4107 57.4252 45.1314 54.8768 47.596 54.0444C51.1614 52.8395 54.7765 54.9103 55.5347 58.5939C55.6419 59.1159 55.757 59.6369 55.8339 60.1642C55.8731 60.435 55.9944 60.5147 56.2506 60.5447C56.8403 60.6136 57.4446 60.6564 58.0091 60.8236C59.1995 61.1758 59.8816 62.0314 60.1202 63.2342C60.5814 65.5604 61.0392 67.8879 61.4797 70.2182C61.7585 71.6935 61.194 72.8719 59.8912 73.6188C59.4674 73.8618 59.0403 74.0999 58.6048 74.3459C58.7278 74.9772 58.8511 75.5914 58.9666 76.2064C59.4617 78.8457 58.3504 81.2988 56.0418 82.6664C53.1718 84.3665 49.205 83.2016 47.74 80.2028C47.473 79.6561 47.304 79.0539 47.1464 78.4625C46.9902 77.8787 46.906 77.2761 46.7839 76.6494L46.7831 76.6483ZM56.0715 67.6249C55.5041 64.7126 54.9473 61.7976 54.3663 58.8879C53.6422 55.2598 49.5404 53.6643 46.6646 55.9153C45.0909 57.1471 44.5374 58.8171 44.9149 60.7705C46.0376 66.587 47.177 72.4009 48.3104 78.2154C48.3364 78.3487 48.3659 78.4813 48.4013 78.6127C49.317 82.0123 53.2995 83.3802 56.0454 81.2013C57.5998 79.9683 58.1397 78.304 57.7703 76.3638C57.216 73.4489 56.639 70.5379 56.0716 67.6255L56.0715 67.6249ZM44.3192 64.0489C43.9997 64.2274 43.7181 64.3824 43.4391 64.5413C42.4982 65.075 42.2031 65.7166 42.4107 66.7852C42.8049 68.8152 43.2004 70.845 43.597 72.8746C43.667 73.2335 43.7339 73.5931 43.8232 73.947C43.9564 74.4762 44.2797 74.8983 44.7849 75.0667C45.3355 75.2508 45.9277 75.3137 46.5378 75.4365L44.3192 64.0489ZM58.37 73.0901C58.7079 72.8989 59.0164 72.7275 59.3222 72.5511C60.1603 72.0675 60.4717 71.3994 60.2933 70.4518C60.1329 69.6002 59.9629 68.7499 59.7972 67.8993C59.5097 66.4233 59.2174 64.9482 58.9369 63.4709C58.8232 62.8715 58.5426 62.3937 57.9963 62.1055C57.4274 61.8056 56.7938 61.843 56.1603 61.7482L58.37 73.0901Z" fill="white"/>
<path d="M68.1035 69.5997C67.3616 69.7442 66.6655 69.8805 65.9686 70.0156C65.3527 70.1344 65.1106 69.9744 64.9913 69.3687C64.8683 68.7434 64.7469 68.1173 64.6257 67.4917C64.4935 66.8135 64.6408 66.5905 65.3083 66.4562C65.4002 66.4383 65.492 66.4204 65.6348 66.3926C65.5555 65.9857 65.4851 65.5893 65.3946 65.1975C65.3819 65.1416 65.2808 65.0869 65.2104 65.0662C64.4496 64.8455 64.0121 64.3326 63.863 63.5704C63.2939 60.6683 62.7211 57.7662 62.168 54.8609C61.8189 53.028 62.783 51.3438 64.5087 50.7095C66.1231 50.1158 67.9967 50.8144 68.8459 52.3574C69.039 52.7077 69.1745 53.1068 69.253 53.5003C69.8314 56.3902 70.3873 59.2845 70.952 62.177C71.1038 62.9559 70.8942 63.5974 70.2583 64.0932C70.1942 64.1432 70.1426 64.2664 70.1544 64.3458C70.208 64.7061 70.2865 65.0621 70.3663 65.4714C70.5429 65.437 70.7012 65.4006 70.8613 65.3762C71.3248 65.3056 71.5859 65.4748 71.68 65.9292C71.8302 66.6561 71.972 67.3841 72.1057 68.1142C72.1892 68.5713 72.0076 68.8293 71.5477 68.9281C71.18 69.0071 70.8092 69.0738 70.44 69.1457C70.0715 69.2175 69.7029 69.2893 69.2858 69.3706C69.3124 69.5074 69.3355 69.6259 69.3586 69.7443C69.7084 71.5396 70.0628 73.3339 70.4061 75.1304C70.6455 76.3816 70.1548 77.3951 69.0757 77.9176C67.7916 78.5397 66.1533 77.7984 65.7831 76.4252C65.6963 76.1027 65.6409 75.7711 65.5402 75.4532C65.3642 74.8973 64.8186 74.5683 64.2445 74.6457C63.6806 74.7218 63.2412 75.2033 63.2224 75.7824C63.217 75.9476 63.2394 76.116 63.2711 76.2789C63.5534 77.7467 63.8426 79.2125 64.1255 80.6802C64.2047 81.0896 64.0709 81.3567 63.7482 81.4681C63.3824 81.5947 63.0462 81.378 62.9578 80.9372C62.7635 79.9742 62.5798 79.0092 62.3919 78.0449C62.278 77.4603 62.1504 76.8778 62.0544 76.2903C61.7478 74.4104 63.4561 72.9574 65.2428 73.5887C66.114 73.8967 66.5956 74.5633 66.7962 75.4476C66.831 75.6007 66.855 75.7559 66.8879 75.9087C67.0443 76.6295 67.6301 77.0447 68.3045 76.9139C68.9754 76.7838 69.3771 76.1688 69.2405 75.4516C68.9646 74.004 68.6787 72.5585 68.3969 71.1121C68.3013 70.6216 68.2058 70.1312 68.1025 69.6011L68.1035 69.5997ZM63.601 56.1298C63.7739 56.0389 63.8653 55.9934 63.9545 55.9429C64.663 55.5423 65.3699 55.139 66.0794 54.7401C66.4979 54.5049 66.8438 54.5598 67.0385 54.884C67.2317 55.206 67.1015 55.5388 66.6882 55.7816C66.6523 55.8027 66.6166 55.8244 66.58 55.8451C65.7621 56.3063 64.9424 56.7648 64.128 57.2314C64.039 57.2826 63.9043 57.3931 63.9141 57.4563C63.9965 57.9862 64.1079 58.511 64.2172 59.0719C65.038 58.6096 65.8095 58.1752 66.5804 57.741C67.0736 57.4629 67.4135 57.4969 67.617 57.844C67.8178 58.186 67.6663 58.5137 67.178 58.7884C66.3506 59.2545 65.5219 59.7172 64.698 60.1888C64.61 60.2391 64.4795 60.3518 64.4897 60.4169C64.5718 60.9456 64.6831 61.4698 64.7907 62.0218C64.9348 61.9439 65.0257 61.8961 65.1155 61.8454C65.8521 61.4308 66.5856 61.01 67.3263 60.6038C67.7208 60.3874 68.1215 60.5343 68.2455 60.9184C68.3383 61.2052 68.2148 61.474 67.8817 61.6649C67.0308 62.1522 66.1753 62.6324 65.3217 63.1153C65.0065 63.2935 64.9653 63.5339 65.2632 63.7495C65.4143 63.859 65.6581 63.9265 65.8395 63.8948C66.9826 63.6949 68.1206 63.4688 69.2575 63.2369C69.6763 63.1516 69.8494 62.872 69.7755 62.4517C69.6993 62.0196 69.6094 61.5896 69.5255 61.159C69.0419 58.6767 68.5653 56.1924 68.071 53.7121C67.8189 52.4462 66.7615 51.6342 65.5284 51.7225C64.3232 51.8092 63.3532 52.7494 63.3254 53.9985C63.31 54.687 63.496 55.3793 63.5993 56.1307L63.601 56.1298ZM70.5887 66.6792L65.897 67.5932L66.1206 68.7411L70.8123 67.827L70.5887 66.6792ZM68.9493 64.5499L66.6236 65.003L66.8454 66.1414C66.9638 66.1238 67.066 66.1119 67.1663 66.093C67.8301 65.9649 68.4937 65.835 69.1739 65.7025L68.9493 64.5499Z" fill="white"/>
<path d="M49.5736 75.6485C49.4348 74.2161 49.2855 72.7838 49.1593 71.3502C48.9908 69.4341 48.5595 67.5767 47.9494 65.7584C47.4292 64.2091 47.0115 62.633 46.8627 61.0045C46.7053 59.2874 48.3087 57.7405 50.0237 57.8939C51.4847 58.0249 52.4986 58.9678 52.8317 60.4183C53.2425 62.2084 53.3801 64.029 53.5356 65.8498C53.6812 67.5539 54.0345 69.2188 54.5701 70.8413C55.0882 72.4114 55.5213 73.9998 55.7902 75.6325C56.1434 77.7739 54.4965 79.4921 52.3513 79.2079C51.1607 79.0501 50.1675 78.0878 49.8845 76.8089C49.7991 76.421 49.7309 76.0298 49.655 75.64L49.5729 75.648L49.5736 75.6485ZM50.7586 75.4361L50.8346 75.4287C50.9045 75.7876 50.9506 76.1536 51.052 76.5034C51.1348 76.7897 51.2384 77.088 51.4093 77.3271C51.8929 78.0038 52.7964 78.2347 53.5367 77.9147C54.345 77.5654 54.7516 76.7607 54.6028 75.8294C54.3552 74.2774 53.9356 72.7712 53.4436 71.2809C52.7991 69.3273 52.4076 67.3207 52.272 65.2673C52.1686 63.7013 51.9955 62.1464 51.6354 60.6169C51.5926 60.4353 51.5371 60.2512 51.4548 60.0847C51.0665 59.2941 50.1288 58.8977 49.3118 59.1675C48.4023 59.4683 47.9216 60.3058 48.0789 61.2932C48.3288 62.8663 48.7576 64.3917 49.2531 65.9028C49.8182 67.626 50.1845 69.3928 50.3539 71.1998C50.4864 72.612 50.6232 74.0245 50.7574 75.4363L50.7586 75.4361Z" fill="white"/>
<defs>
<filter id="filter0_d_1672_180" x="0.409569" y="0.940819" width="123.55" height="119.083" filterUnits="userSpaceOnUse" color-interpolation-filters="sRGB">
<feFlood flood-opacity="0" result="BackgroundImageFix"/>
<feColorMatrix in="SourceAlpha" type="matrix" values="0 0 0 0 0 0 0 0 0 0 0 0 0 0 0 0 0 0 127 0" result="hardAlpha"/>
<feOffset dy="4"/>
<feGaussianBlur stdDeviation="17.7"/>
<feComposite in2="hardAlpha" operator="out"/>
<feColorMatrix type="matrix" values="0 0 0 0 0.929412 0 0 0 0 0.141176 0 0 0 0 0.329412 0 0 0 0.52 0"/>
<feBlend mode="normal" in2="BackgroundImageFix" result="effect1_dropShadow_1672_180"/>
<feBlend mode="normal" in="SourceGraphic" in2="effect1_dropShadow_1672_180" result="shape"/>
</filter>
</defs>
</svg>
