<svg xmlns="http://www.w3.org/2000/svg" xmlns:xlink="http://www.w3.org/1999/xlink" width="1071" height="220" fill="none" xmlns:v="https://vecta.io/nano"><style><![CDATA[.B{color-interpolation-filters:sRGB}.C{flood-opacity:0}.D{fill:#e8e4e1}.E{fill:#725058}.F{fill:#725158}.G{opacity:.88}.H{opacity:.82}.I{fill:#736c99}.J{fill:#de5586}.K{shape-rendering:crispEdges}]]></style><path opacity=".1" d="M0 72.5A3.5 3.5 0 0 1 3.5 69H1067c1.93 0 3.5 1.567 3.5 3.5s-1.57 3.5-3.5 3.5H3.5A3.5 3.5 0 0 1 0 72.5z" fill="#2d1d88"/><g class="E"><use xlink:href="#P"/><use xlink:href="#P" x="-370"/><use xlink:href="#P" x="-514"/><path d="M27.572 113.27v6.202c0 .737.191 1.293.574 1.666.392.373.933.56 1.624.56.7 0 1.241-.187 1.624-.56.392-.373.588-.929.588-1.666v-6.202h1.596v6.174c0 .793-.173 1.465-.518 2.016s-.807.961-1.386 1.232-1.218.406-1.918.406-1.339-.135-1.918-.406c-.569-.271-1.022-.681-1.358-1.232s-.504-1.223-.504-2.016v-6.174h1.596zm11.976 1.89c.607 0 1.148.126 1.624.378.485.252.863.625 1.134 1.12s.406 1.092.406 1.792V123H41.13v-4.312c0-.691-.173-1.218-.518-1.582-.345-.373-.817-.56-1.414-.56s-1.073.187-1.428.56c-.345.364-.518.891-.518 1.582V123h-1.596v-7.714h1.596v.882c.261-.317.593-.565.994-.742.411-.177.845-.266 1.302-.266zm9.19 0c.588 0 1.111.126 1.568.378.467.252.831.625 1.092 1.12.271.495.406 1.092.406 1.792V123h-1.582v-4.312c0-.691-.173-1.218-.518-1.582-.345-.373-.817-.56-1.414-.56s-1.073.187-1.428.56c-.345.364-.518.891-.518 1.582V123h-1.596v-10.36h1.596v3.542a2.68 2.68 0 0 1 1.022-.756c.42-.177.877-.266 1.372-.266zm12.172 3.794a4.98 4.98 0 0 1-.056.784H54.96c.047.616.275 1.111.686 1.484s.915.56 1.512.56c.859 0 1.465-.359 1.82-1.078H60.7c-.233.709-.658 1.293-1.274 1.75-.607.448-1.363.672-2.268.672-.737 0-1.4-.163-1.988-.49-.579-.336-1.036-.803-1.372-1.4-.327-.607-.49-1.307-.49-2.1s.159-1.489.476-2.086c.327-.607.779-1.073 1.358-1.4.588-.327 1.26-.49 2.016-.49.728 0 1.377.159 1.946.476s1.013.765 1.33 1.344c.317.569.476 1.227.476 1.974zm-1.666-.504c-.009-.588-.219-1.059-.63-1.414s-.919-.532-1.526-.532c-.551 0-1.022.177-1.414.532-.392.345-.625.817-.7 1.414h4.27zm2.705.658c0-.775.159-1.461.476-2.058.327-.597.765-1.059 1.316-1.386.56-.336 1.176-.504 1.848-.504.607 0 1.134.121 1.582.364.457.233.821.527 1.092.882v-1.12h1.61V123h-1.61v-1.148c-.271.364-.639.667-1.106.91s-.999.364-1.596.364c-.663 0-1.269-.168-1.82-.504-.551-.345-.989-.821-1.316-1.428-.317-.616-.476-1.311-.476-2.086zm6.314.028c0-.532-.112-.994-.336-1.386a2.26 2.26 0 0 0-.854-.896c-.355-.205-.737-.308-1.148-.308s-.793.103-1.148.308c-.355.196-.644.49-.868.882-.215.383-.322.84-.322 1.372s.107.999.322 1.4c.224.401.513.709.868.924.364.205.747.308 1.148.308.411 0 .793-.103 1.148-.308a2.26 2.26 0 0 0 .854-.896c.224-.401.336-.868.336-1.4zm5.302-6.496V123h-1.596v-10.36h1.596zm3.958 3.948v4.27c0 .289.065.499.196.63.14.121.373.182.7.182h.98V123h-1.26c-.719 0-1.269-.168-1.652-.504s-.574-.882-.574-1.638v-4.27h-.91v-1.302h.91v-1.918h1.61v1.918h1.876v1.302h-1.876zm7.337-1.428c.588 0 1.111.126 1.568.378.467.252.831.625 1.092 1.12.271.495.406 1.092.406 1.792V123h-1.582v-4.312c0-.691-.173-1.218-.518-1.582-.345-.373-.817-.56-1.414-.56s-1.073.187-1.428.56c-.345.364-.518.891-.518 1.582V123h-1.596v-10.36h1.596v3.542a2.68 2.68 0 0 1 1.022-.756c.42-.177.877-.266 1.372-.266zm12.046.126l-4.732 11.34h-1.652l1.568-3.752-3.038-7.588h1.778l2.17 5.88 2.254-5.88h1.652zM31.608 131.27L27.954 141h-1.848l-3.668-9.73h1.708l2.884 8.092 2.898-8.092h1.68zm.803 5.838c0-.775.159-1.461.476-2.058.327-.597.765-1.059 1.316-1.386.56-.336 1.176-.504 1.848-.504.607 0 1.134.121 1.582.364.457.233.821.527 1.092.882v-1.12h1.61V141h-1.61v-1.148c-.271.364-.639.667-1.106.91s-.999.364-1.596.364c-.663 0-1.269-.168-1.82-.504-.551-.345-.989-.821-1.316-1.428-.317-.616-.476-1.311-.476-2.086zm6.314.028c0-.532-.112-.994-.336-1.386a2.26 2.26 0 0 0-.854-.896c-.355-.205-.737-.308-1.148-.308s-.793.103-1.148.308c-.355.196-.644.49-.868.882-.215.383-.322.84-.322 1.372s.107.999.322 1.4c.224.401.513.709.868.924.364.205.747.308 1.148.308.411 0 .793-.103 1.148-.308a2.26 2.26 0 0 0 .854-.896c.224-.401.336-.868.336-1.4zm6.814-3.976c.597 0 1.125.121 1.582.364.467.233.831.527 1.092.882v-1.12h1.61v7.84c0 .709-.149 1.339-.448 1.89-.299.56-.733.999-1.302 1.316-.56.317-1.232.476-2.016.476-1.045 0-1.913-.247-2.604-.742-.691-.485-1.083-1.148-1.176-1.988h1.582c.121.401.378.723.77.966.401.252.877.378 1.428.378.644 0 1.162-.196 1.554-.588.401-.392.602-.961.602-1.708v-1.288c-.271.364-.639.672-1.106.924-.457.243-.98.364-1.568.364-.672 0-1.288-.168-1.848-.504-.551-.345-.989-.821-1.316-1.428-.317-.616-.476-1.311-.476-2.086s.159-1.461.476-2.058c.327-.597.765-1.059 1.316-1.386.56-.336 1.176-.504 1.848-.504zm2.674 3.976c0-.532-.112-.994-.336-1.386a2.26 2.26 0 0 0-.854-.896c-.355-.205-.737-.308-1.148-.308s-.793.103-1.148.308c-.355.196-.644.49-.868.882-.215.383-.322.84-.322 1.372s.107.999.322 1.4c.224.401.513.709.868.924.364.205.747.308 1.148.308.411 0 .793-.103 1.148-.308a2.26 2.26 0 0 0 .854-.896c.224-.401.336-.868.336-1.4zm4.518-4.872c-.289 0-.532-.098-.728-.294a.99.99 0 0 1-.294-.728.99.99 0 0 1 .294-.728c.196-.196.439-.294.728-.294a.97.97 0 0 1 .714.294.99.99 0 0 1 .294.728.99.99 0 0 1-.294.728.97.97 0 0 1-.714.294zm.784 1.022V141h-1.596v-7.714h1.596zm5.987-.126c.607 0 1.148.126 1.624.378.485.252.863.625 1.134 1.12s.406 1.092.406 1.792V141h-1.582v-4.312c0-.691-.173-1.218-.518-1.582-.345-.373-.817-.56-1.414-.56s-1.073.187-1.428.56c-.345.364-.518.891-.518 1.582V141h-1.596v-7.714h1.596v.882c.261-.317.593-.565.994-.742.411-.177.845-.266 1.302-.266zm4.668 3.948c0-.775.159-1.461.476-2.058a3.56 3.56 0 0 1 1.316-1.386c.56-.336 1.176-.504 1.848-.504.607 0 1.134.121 1.582.364.457.233.821.527 1.092.882v-1.12h1.61V141h-1.61v-1.148c-.271.364-.639.667-1.106.91s-.999.364-1.596.364c-.663 0-1.269-.168-1.82-.504-.551-.345-.989-.821-1.316-1.428-.317-.616-.476-1.311-.476-2.086zm6.314.028c0-.532-.112-.994-.336-1.386-.215-.392-.499-.691-.854-.896s-.737-.308-1.148-.308-.793.103-1.148.308c-.355.196-.644.49-.868.882-.215.383-.322.84-.322 1.372s.107.999.322 1.4c.224.401.513.709.868.924.364.205.747.308 1.148.308.411 0 .793-.103 1.148-.308s.639-.504.854-.896c.224-.401.336-.868.336-1.4zm5.302-6.496V141h-1.596v-10.36h1.596zm7.328 3.78c.271-.355.639-.653 1.106-.896s.994-.364 1.582-.364c.672 0 1.283.168 1.834.504.56.327.999.789 1.316 1.386s.476 1.283.476 2.058-.159 1.47-.476 2.086c-.317.607-.756 1.083-1.316 1.428-.551.336-1.162.504-1.834.504-.588 0-1.111-.117-1.568-.35-.457-.243-.831-.541-1.12-.896v4.788h-1.596v-11.382h1.596v1.134zm4.69 2.688c0-.532-.112-.989-.336-1.372-.215-.392-.504-.686-.868-.882-.355-.205-.737-.308-1.148-.308-.401 0-.784.103-1.148.308-.355.205-.644.504-.868.896-.215.392-.322.854-.322 1.386s.107.999.322 1.4c.224.392.513.691.868.896.364.205.747.308 1.148.308.411 0 .793-.103 1.148-.308.364-.215.653-.523.868-.924.224-.401.336-.868.336-1.4zm10.972-5.838V141h-1.596v-4.256h-4.578V141h-1.596v-9.73h1.596v4.172h4.578v-4.172h1.596z"/><use xlink:href="#P" x="144"/><path d="M973.572 113.27v6.202c0 .737.192 1.293.574 1.666.392.373.934.56 1.624.56.7 0 1.242-.187 1.624-.56.392-.373.588-.929.588-1.666v-6.202h1.596v6.174c0 .793-.172 1.465-.518 2.016a3.21 3.21 0 0 1-1.386 1.232c-.578.271-1.218.406-1.918.406s-1.339-.135-1.918-.406c-.569-.271-1.022-.681-1.358-1.232s-.504-1.223-.504-2.016v-6.174h1.596zm11.976 1.89c.607 0 1.148.126 1.624.378a2.67 2.67 0 0 1 1.134 1.12c.271.495.406 1.092.406 1.792V123h-1.582v-4.312c0-.691-.172-1.218-.518-1.582-.345-.373-.816-.56-1.414-.56s-1.073.187-1.428.56c-.345.364-.518.891-.518 1.582V123h-1.596v-7.714h1.596v.882a2.66 2.66 0 0 1 .994-.742c.411-.177.845-.266 1.302-.266zm9.19 0c.588 0 1.111.126 1.568.378a2.63 2.63 0 0 1 1.092 1.12c.271.495.406 1.092.406 1.792V123h-1.582v-4.312c0-.691-.172-1.218-.518-1.582-.345-.373-.816-.56-1.414-.56s-1.073.187-1.428.56c-.345.364-.518.891-.518 1.582V123h-1.596v-10.36h1.596v3.542c.271-.327.612-.579 1.022-.756a3.5 3.5 0 0 1 1.372-.266zm12.172 3.794c0 .289-.02.551-.06.784h-5.89c.05.616.28 1.111.69 1.484s.91.56 1.51.56c.86 0 1.46-.359 1.82-1.078h1.72c-.23.709-.66 1.293-1.27 1.75-.61.448-1.37.672-2.27.672-.74 0-1.4-.163-1.99-.49-.58-.336-1.04-.803-1.372-1.4-.327-.607-.49-1.307-.49-2.1s.159-1.489.476-2.086c.326-.607.776-1.073 1.356-1.4.59-.327 1.26-.49 2.02-.49.73 0 1.37.159 1.94.476s1.02.765 1.33 1.344c.32.569.48 1.227.48 1.974zm-1.67-.504c-.01-.588-.22-1.059-.63-1.414s-.92-.532-1.52-.532a2.06 2.06 0 0 0-1.42.532c-.39.345-.62.817-.7 1.414h4.27zm2.71.658c0-.775.16-1.461.47-2.058.33-.597.77-1.059 1.32-1.386.56-.336 1.18-.504 1.85-.504.61 0 1.13.121 1.58.364.46.233.82.527 1.09.882v-1.12h1.61V123h-1.61v-1.148c-.27.364-.64.667-1.1.91-.47.243-1 .364-1.6.364-.66 0-1.27-.168-1.82-.504-.55-.345-.99-.821-1.32-1.428-.31-.616-.47-1.311-.47-2.086zm6.31.028c0-.532-.11-.994-.33-1.386s-.5-.691-.86-.896c-.35-.205-.73-.308-1.15-.308-.41 0-.79.103-1.14.308-.36.196-.65.49-.87.882-.22.383-.32.84-.32 1.372s.1.999.32 1.4.51.709.87.924a2.27 2.27 0 0 0 1.14.308c.42 0 .8-.103 1.15-.308.36-.205.64-.504.86-.896.22-.401.33-.868.33-1.4zm5.3-6.496V123h-1.59v-10.36h1.59zm3.96 3.948v4.27c0 .289.07.499.2.63.14.121.37.182.7.182h.98V123h-1.26c-.72 0-1.27-.168-1.65-.504-.39-.336-.58-.882-.58-1.638v-4.27h-.91v-1.302h.91v-1.918h1.61v1.918h1.88v1.302h-1.88zm7.34-1.428c.59 0 1.11.126 1.57.378a2.66 2.66 0 0 1 1.09 1.12c.27.495.41 1.092.41 1.792V123h-1.59v-4.312c0-.691-.17-1.218-.51-1.582-.35-.373-.82-.56-1.42-.56s-1.07.187-1.43.56c-.34.364-.51.891-.51 1.582V123h-1.6v-10.36h1.6v3.542c.27-.327.61-.579 1.02-.756.42-.177.87-.266 1.37-.266zm12.05.126l-4.74 11.34h-1.65l1.57-3.752-3.04-7.588h1.78l2.17 5.88 2.25-5.88h1.66zm-65.302 15.984l-3.654 9.73h-1.848l-3.668-9.73h1.708l2.884 8.092 2.898-8.092h1.68zm.803 5.838c0-.775.158-1.461.476-2.058.326-.597.765-1.059 1.316-1.386.56-.336 1.176-.504 1.848-.504.606 0 1.134.121 1.582.364.457.233.821.527 1.092.882v-1.12h1.61V141h-1.61v-1.148c-.271.364-.64.667-1.106.91s-.999.364-1.596.364c-.663 0-1.27-.168-1.82-.504-.551-.345-.99-.821-1.316-1.428-.318-.616-.476-1.311-.476-2.086zm6.314.028c0-.532-.112-.994-.336-1.386-.215-.392-.5-.691-.854-.896a2.26 2.26 0 0 0-1.148-.308c-.411 0-.794.103-1.148.308-.355.196-.644.49-.868.882-.215.383-.322.84-.322 1.372s.107.999.322 1.4c.224.401.513.709.868.924.364.205.746.308 1.148.308a2.26 2.26 0 0 0 1.148-.308c.354-.205.639-.504.854-.896.224-.401.336-.868.336-1.4zm6.814-3.976c.597 0 1.125.121 1.582.364.467.233.831.527 1.092.882v-1.12h1.61v7.84c0 .709-.149 1.339-.448 1.89-.299.56-.733.999-1.302 1.316-.56.317-1.232.476-2.016.476-1.045 0-1.913-.247-2.604-.742-.691-.485-1.083-1.148-1.176-1.988h1.582c.121.401.378.723.77.966.401.252.877.378 1.428.378.644 0 1.162-.196 1.554-.588.401-.392.602-.961.602-1.708v-1.288c-.271.364-.639.672-1.106.924-.457.243-.98.364-1.568.364-.672 0-1.288-.168-1.848-.504-.551-.345-.989-.821-1.316-1.428-.317-.616-.476-1.311-.476-2.086s.159-1.461.476-2.058a3.56 3.56 0 0 1 1.316-1.386c.56-.336 1.176-.504 1.848-.504zm2.674 3.976c0-.532-.112-.994-.336-1.386-.215-.392-.499-.691-.854-.896s-.737-.308-1.148-.308-.793.103-1.148.308c-.355.196-.644.49-.868.882-.215.383-.322.84-.322 1.372s.107.999.322 1.4c.224.401.513.709.868.924.364.205.747.308 1.148.308.411 0 .793-.103 1.148-.308s.639-.504.854-.896c.224-.401.336-.868.336-1.4zm4.518-4.872a.99.99 0 0 1-1.022-1.022.99.99 0 0 1 1.022-1.022.97.97 0 0 1 .714.294.99.99 0 0 1 .294.728.99.99 0 0 1-.294.728.97.97 0 0 1-.714.294zm.784 1.022V141h-1.596v-7.714h1.596zm5.985-.126c.61 0 1.15.126 1.63.378s.86.625 1.13 1.12.41 1.092.41 1.792V141h-1.59v-4.312c0-.691-.17-1.218-.51-1.582-.35-.373-.82-.56-1.42-.56-.59 0-1.07.187-1.43.56-.34.364-.51.891-.51 1.582V141h-1.6v-7.714h1.6v.882a2.64 2.64 0 0 1 .99-.742 3.27 3.27 0 0 1 1.3-.266zm4.67 3.948c0-.775.16-1.461.48-2.058s.76-1.059 1.31-1.386c.56-.336 1.18-.504 1.85-.504.61 0 1.13.121 1.58.364.46.233.82.527 1.09.882v-1.12h1.61V141h-1.61v-1.148c-.27.364-.63.667-1.1.91s-1 .364-1.6.364c-.66 0-1.27-.168-1.82-.504-.55-.345-.99-.821-1.31-1.428-.32-.616-.48-1.311-.48-2.086zm6.31.028c0-.532-.11-.994-.33-1.386s-.5-.691-.86-.896c-.35-.205-.73-.308-1.14-.308s-.8.103-1.15.308c-.36.196-.65.49-.87.882-.21.383-.32.84-.32 1.372s.11.999.32 1.4c.22.401.51.709.87.924.36.205.75.308 1.15.308.41 0 .79-.103 1.14-.308.36-.205.64-.504.86-.896.22-.401.33-.868.33-1.4zm5.31-6.496V141h-1.6v-10.36h1.6zm7.32 3.78c.28-.355.64-.653 1.11-.896s.99-.364 1.58-.364c.67 0 1.29.168 1.84.504a3.37 3.37 0 0 1 1.31 1.386c.32.597.48 1.283.48 2.058s-.16 1.47-.48 2.086a3.53 3.53 0 0 1-1.31 1.428c-.55.336-1.17.504-1.84.504-.59 0-1.11-.117-1.57-.35-.45-.243-.83-.541-1.12-.896v4.788h-1.59v-11.382h1.59v1.134zm4.69 2.688c0-.532-.11-.989-.33-1.372-.22-.392-.51-.686-.87-.882-.35-.205-.74-.308-1.15-.308-.4 0-.78.103-1.15.308-.35.205-.64.504-.86.896s-.33.854-.33 1.386.11.999.33 1.4c.22.392.51.691.86.896.37.205.75.308 1.15.308.41 0 .8-.103 1.15-.308.36-.215.65-.523.87-.924s.33-.868.33-1.4zm10.98-5.838V141h-1.6v-4.256h-4.58V141h-1.59v-9.73h1.59v4.172h4.58v-4.172h1.6z"/></g><g filter="url(#A)" class="E"><circle cx="350" cy="73" r="25"/></g><use xlink:href="#Q" class="F"/><path d="M336.741 77.26l.62-.5 3.08-2.66c.76-.693 1.4-1.42 1.92-2.18s.78-1.5.78-2.22c0-.547-.127-.973-.38-1.28s-.633-.46-1.14-.46-.907.193-1.2.58c-.28.373-.42.907-.42 1.6h-3.3c.027-1.133.267-2.08.72-2.84.467-.76 1.073-1.32 1.82-1.68.76-.36 1.6-.54 2.52-.54 1.587 0 2.78.407 3.58 1.22.813.813 1.22 1.873 1.22 3.18 0 1.427-.487 2.753-1.46 3.98-.973 1.213-2.213 2.4-3.72 3.56h5.4v2.78h-10.04v-2.54zm12.486 2.9c-.6 0-1.094-.173-1.48-.52a1.76 1.76 0 0 1-.56-1.32c0-.533.186-.98.56-1.34.386-.36.88-.54 1.48-.54.586 0 1.066.18 1.44.54.386.36.58.807.58 1.34 0 .52-.194.96-.58 1.32-.374.347-.854.52-1.44.52zm12.984-11.78h-6.24v2.76c.267-.293.64-.533 1.12-.72s1-.28 1.56-.28c1 0 1.827.227 2.48.68.667.453 1.154 1.04 1.46 1.76s.46 1.5.46 2.34c0 1.56-.44 2.8-1.32 3.72-.88.907-2.12 1.36-3.72 1.36-1.066 0-1.993-.18-2.78-.54-.786-.373-1.393-.887-1.82-1.54s-.66-1.407-.7-2.26h3.34a1.85 1.85 0 0 0 .58 1.04c.307.267.727.4 1.26.4.627 0 1.094-.2 1.4-.6s.46-.933.46-1.6c0-.653-.16-1.153-.48-1.5s-.786-.52-1.4-.52c-.453 0-.826.113-1.12.34-.293.213-.486.5-.58.86h-3.3v-8.7h9.34v3z" class="D G"/><g filter="url(#B)" class="E"><circle cx="720" cy="73" r="25"/></g><use xlink:href="#Q" x="370" class="F"/><path d="M724.676 68.38h-6.24v2.76c.267-.293.64-.533 1.12-.72s1-.28 1.56-.28c1 0 1.827.227 2.48.68a3.98 3.98 0 0 1 1.46 1.76c.307.72.46 1.5.46 2.34 0 1.56-.44 2.8-1.32 3.72-.88.907-2.12 1.36-3.72 1.36-1.067 0-1.993-.18-2.78-.54-.787-.373-1.393-.887-1.82-1.54s-.66-1.407-.7-2.26h3.34c.08.413.273.76.58 1.04.307.267.727.4 1.26.4.627 0 1.093-.2 1.4-.6s.46-.933.46-1.6c0-.653-.16-1.153-.48-1.5s-.787-.52-1.4-.52c-.453 0-.827.113-1.12.34-.293.213-.487.5-.58.86h-3.3v-8.7h9.34v3z" class="D G"/><g filter="url(#C)" class="E"><circle cx="864" cy="73" r="25"/></g><use xlink:href="#Q" x="514" class="F"/><path d="M860.35 68.38h-6.24v2.76c.267-.293.64-.533 1.12-.72s1-.28 1.56-.28c1 0 1.827.227 2.48.68a3.98 3.98 0 0 1 1.46 1.76c.307.72.46 1.5.46 2.34 0 1.56-.44 2.8-1.32 3.72-.88.907-2.12 1.36-3.72 1.36-1.067 0-1.993-.18-2.78-.54-.787-.373-1.393-.887-1.82-1.54s-.66-1.407-.7-2.26h3.34c.08.413.273.76.58 1.04.307.267.727.4 1.26.4.627 0 1.093-.2 1.4-.6s.46-.933.46-1.6c0-.653-.16-1.153-.48-1.5s-.787-.52-1.4-.52c-.453 0-.827.113-1.12.34-.293.213-.487.5-.58.86h-3.3v-8.7h9.34v3zm3.668 11.78c-.6 0-1.094-.173-1.48-.52a1.76 1.76 0 0 1-.56-1.32c0-.533.186-.98.56-1.34.386-.36.88-.54 1.48-.54.586 0 1.066.18 1.44.54.386.36.58.807.58 1.34 0 .52-.194.96-.58 1.32-.374.347-.854.52-1.44.52zm12.984-11.78h-6.24v2.76c.267-.293.64-.533 1.12-.72s1-.28 1.56-.28c1 0 1.827.227 2.48.68.667.453 1.154 1.04 1.46 1.76s.46 1.5.46 2.34c0 1.56-.44 2.8-1.32 3.72-.88.907-2.12 1.36-3.72 1.36-1.066 0-1.993-.18-2.78-.54-.786-.373-1.393-.887-1.82-1.54s-.66-1.407-.7-2.26h3.34a1.85 1.85 0 0 0 .58 1.04c.307.267.727.4 1.26.4.627 0 1.094-.2 1.4-.6s.46-.933.46-1.6c0-.653-.16-1.153-.48-1.5s-.786-.52-1.4-.52c-.453 0-.826.113-1.12.34-.293.213-.486.5-.58.86h-3.3v-8.7h9.34v3z" class="D G"/><g filter="url(#D)" class="E"><circle cx="1008" cy="73" r="25"/></g><path d="M1008 48c-13.798 0-25 11.202-25 25s11.202 25 25 25 25-11.202 25-25-11.2-25-25-25z" class="F"/><path d="M1001.16 69.34c-.1-.493-.29-.86-.56-1.1-.26-.253-.644-.38-1.137-.38-.76 0-1.307.333-1.64 1-.333.653-.507 1.693-.52 3.12.293-.467.713-.833 1.26-1.1.56-.267 1.173-.4 1.837-.4 1.31 0 2.36.413 3.14 1.24.8.827 1.2 1.98 1.2 3.46 0 .973-.2 1.827-.6 2.56-.38.733-.96 1.307-1.72 1.72-.74.413-1.63.62-2.657.62-2.053 0-3.48-.64-4.28-1.92-.8-1.293-1.2-3.147-1.2-5.56 0-2.533.42-4.413 1.26-5.64.853-1.24 2.213-1.86 4.08-1.86.997 0 1.837.2 2.517.6.7.387 1.22.9 1.56 1.54a5.05 5.05 0 0 1 .64 2.1h-3.18zm-1.577 3.84c-.573 0-1.053.173-1.44.52-.373.333-.56.813-.56 1.44 0 .64.173 1.14.52 1.5.36.36.867.54 1.52.54.587 0 1.047-.173 1.377-.52.35-.36.52-.847.52-1.46 0-.627-.16-1.12-.5-1.48-.33-.36-.81-.54-1.437-.54zm8.037 6.98c-.6 0-1.1-.173-1.48-.52-.38-.36-.56-.8-.56-1.32 0-.533.18-.98.56-1.34s.88-.54 1.48-.54c.58 0 1.06.18 1.44.54a1.78 1.78 0 0 1 .58 1.34c0 .52-.2.96-.58 1.32-.38.347-.86.52-1.44.52zm2.78-2.76v-2.76l6.32-9.04h3.82v8.84h1.64v2.96h-1.64V80h-3.42v-2.6h-6.72zm6.96-8.04l-3.36 5.08h3.36v-5.08z" class="D G"/><g filter="url(#E)" class="E"><circle cx="206" cy="73" r="25"/></g><use xlink:href="#Q" x="-144" class="F"/><path d="M201.067 77.26l.62-.5 3.08-2.66c.76-.693 1.4-1.42 1.92-2.18s.78-1.5.78-2.22c0-.547-.127-.973-.38-1.28s-.633-.46-1.14-.46-.907.193-1.2.58c-.28.373-.42.907-.42 1.6h-3.3c.027-1.133.267-2.08.72-2.84.467-.76 1.073-1.32 1.82-1.68.76-.36 1.6-.54 2.52-.54 1.587 0 2.78.407 3.58 1.22.813.813 1.22 1.873 1.22 3.18 0 1.427-.487 2.753-1.46 3.98-.973 1.213-2.213 2.4-3.72 3.56h5.4v2.78h-10.04v-2.54z" class="D G"/><g filter="url(#F)" class="E"><circle cx="62" cy="73" r="25"/></g><use xlink:href="#Q" x="-288" class="F"/><path d="M50.474 68.58V65.4h5.54V80h-3.56V68.58h-1.98zm8.82 11.58c-.6 0-1.093-.173-1.48-.52a1.76 1.76 0 0 1-.56-1.32c0-.533.187-.98.56-1.34.387-.36.88-.54 1.48-.54.587 0 1.067.18 1.44.54.387.36.58.807.58 1.34 0 .52-.193.96-.58 1.32-.373.347-.853.52-1.44.52zm5.105-8c-1.253-.667-1.88-1.713-1.88-3.14 0-.72.187-1.373.56-1.96.373-.6.94-1.073 1.7-1.42.76-.36 1.693-.54 2.8-.54s2.033.18 2.78.54c.76.347 1.327.82 1.7 1.42.373.587.56 1.24.56 1.96s-.173 1.347-.52 1.88a3.54 3.54 0 0 1-1.36 1.26c.72.347 1.273.827 1.66 1.44.387.6.58 1.307.58 2.12 0 .947-.24 1.767-.72 2.46-.48.68-1.133 1.2-1.96 1.56-.813.36-1.72.54-2.72.54s-1.913-.18-2.74-.54c-.813-.36-1.46-.88-1.94-1.56-.48-.693-.72-1.513-.72-2.46 0-.827.193-1.54.58-2.14.387-.613.933-1.087 1.64-1.42zm4.9-2.62c0-.547-.16-.967-.48-1.26-.307-.307-.72-.46-1.24-.46s-.94.153-1.26.46c-.307.307-.46.733-.46 1.28 0 .52.16.933.48 1.24.32.293.733.44 1.24.44s.92-.153 1.24-.46.48-.72.48-1.24zm-1.72 4.1c-.627 0-1.133.173-1.52.52-.387.333-.58.8-.58 1.4 0 .56.187 1.02.56 1.38.387.36.9.54 1.54.54s1.14-.18 1.5-.54c.373-.36.56-.82.56-1.38 0-.587-.193-1.053-.58-1.4-.373-.347-.867-.52-1.48-.52z" class="D G"/><g filter="url(#G)" class="D"><circle cx="278" cy="72" r="10"/></g><use xlink:href="#R" class="H I"/><g filter="url(#H)" class="D"><circle cx="134" cy="72" r="10"/></g><use xlink:href="#R" x="-144" class="H I"/><g filter="url(#I)" class="D"><circle cx="792" cy="72" r="10"/></g><use xlink:href="#R" x="514" class="H I"/><g filter="url(#J)" class="D"><circle cx="422" cy="72" r="10"/></g><use xlink:href="#R" x="144" class="H I"/><g filter="url(#K)" class="D"><circle cx="936" cy="72" r="10"/></g><use xlink:href="#R" x="658" class="H I"/><g filter="url(#L)" class="K"><rect x="451" y="21" width="221" height="162" rx="21" fill="#f3f3f3"/><rect x="451" y="21" width="221" height="162" rx="21" stroke="#ff72a5" stroke-opacity=".4" stroke-width="2" stroke-linecap="round" stroke-dasharray="2 5"/></g><path opacity=".4" fill="#f0a8c1" d="M451 69h221v7H451z"/><path d="M524.591 126.96V141h-3.42v-5.78h-5.32V141h-3.42v-14.04h3.42v5.5h5.32v-5.5h3.42zm12.989 8.28c0 .32-.02.653-.06 1h-7.74c.054.693.274 1.227.66 1.6.4.36.887.54 1.46.54.854 0 1.447-.36 1.78-1.08h3.64c-.186.733-.526 1.393-1.02 1.98-.48.587-1.086 1.047-1.82 1.38s-1.553.5-2.46.5c-1.093 0-2.066-.233-2.92-.7a4.98 4.98 0 0 1-2-2c-.48-.867-.72-1.88-.72-3.04s.234-2.173.7-3.04a4.98 4.98 0 0 1 2-2c.854-.467 1.834-.7 2.94-.7 1.08 0 2.04.227 2.88.68a4.81 4.81 0 0 1 1.96 1.94c.48.84.72 1.82.72 2.94zm-3.5-.9c0-.587-.2-1.053-.6-1.4s-.9-.52-1.5-.52c-.573 0-1.06.167-1.46.5-.386.333-.626.807-.72 1.42h4.28zm4.625 1.06c0-1.147.213-2.153.64-3.02.44-.867 1.033-1.533 1.78-2s1.58-.7 2.5-.7c.786 0 1.473.16 2.06.48.6.32 1.06.74 1.38 1.26v-1.58h3.42V141h-3.42v-1.58c-.334.52-.8.94-1.4 1.26-.587.32-1.274.48-2.06.48a4.58 4.58 0 0 1-2.48-.7c-.747-.48-1.34-1.153-1.78-2.02-.427-.88-.64-1.893-.64-3.04zm8.36.02c0-.853-.24-1.527-.72-2.02-.467-.493-1.04-.74-1.72-.74a2.34 2.34 0 0 0-1.74.74c-.467.48-.7 1.147-.7 2s.233 1.533.7 2.04a2.34 2.34 0 0 0 1.74.74c.68 0 1.253-.247 1.72-.74.48-.493.72-1.167.72-2.02zm9.314-9.22V141h-3.42v-14.8h3.42zm8.698 11.9v2.9h-1.74c-1.24 0-2.206-.3-2.9-.9-.693-.613-1.04-1.607-1.04-2.98v-4.44h-1.36v-2.84h1.36v-2.72h3.42v2.72h2.24v2.84h-2.24v4.48c0 .333.08.573.24.72s.427.22.8.22h1.22zm8.765-8.38c1.28 0 2.307.427 3.08 1.28.774.84 1.16 2 1.16 3.48V141h-3.4v-6.06c0-.747-.193-1.327-.58-1.74s-.906-.62-1.56-.62-1.173.207-1.56.62-.58.993-.58 1.74V141h-3.42v-14.8h3.42v5.14c.347-.493.82-.887 1.42-1.18s1.274-.44 2.02-.44zm18.017.12l-7 16.46h-3.68l2.56-5.68-4.54-10.78h3.82l2.58 6.98 2.56-6.98h3.7zm-73.962 22.12l-4.98 14.04h-4.28l-4.98-14.04h3.64l3.48 10.6 3.5-10.6h3.62zm.749 8.44c0-1.147.213-2.153.64-3.02.44-.867 1.033-1.533 1.78-2s1.58-.7 2.5-.7c.787 0 1.473.16 2.06.48.6.32 1.06.74 1.38 1.26v-1.58h3.42V166h-3.42v-1.58c-.333.52-.8.94-1.4 1.26-.587.32-1.273.48-2.06.48-.907 0-1.733-.233-2.48-.7-.747-.48-1.34-1.153-1.78-2.02-.427-.88-.64-1.893-.64-3.04zm8.36.02c0-.853-.24-1.527-.72-2.02-.467-.493-1.04-.74-1.72-.74a2.34 2.34 0 0 0-1.74.74c-.467.48-.7 1.147-.7 2s.233 1.533.7 2.04a2.34 2.34 0 0 0 1.74.74c.68 0 1.253-.247 1.72-.74.48-.493.72-1.167.72-2.02zm10.134-5.74c.787 0 1.473.16 2.06.48.6.32 1.06.74 1.38 1.26v-1.58H544v11.14c0 1.027-.207 1.953-.62 2.78-.4.84-1.02 1.507-1.86 2-.827.493-1.86.74-3.1.74-1.653 0-2.993-.393-4.02-1.18-1.027-.773-1.613-1.827-1.76-3.16h3.38c.107.427.36.76.76 1 .4.253.893.38 1.48.38.707 0 1.267-.207 1.68-.62.427-.4.64-1.047.64-1.94v-1.58c-.333.52-.793.947-1.38 1.28-.587.32-1.273.48-2.06.48-.92 0-1.753-.233-2.5-.7-.747-.48-1.34-1.153-1.78-2.02-.427-.88-.64-1.893-.64-3.04s.213-2.153.64-3.02c.44-.867 1.033-1.533 1.78-2s1.58-.7 2.5-.7zm3.44 5.74c0-.853-.24-1.527-.72-2.02-.467-.493-1.04-.74-1.72-.74a2.34 2.34 0 0 0-1.74.74c-.467.48-.7 1.147-.7 2s.233 1.533.7 2.04a2.34 2.34 0 0 0 1.74.74c.68 0 1.253-.247 1.72-.74.48-.493.72-1.167.72-2.02zm7.614-6.74c-.6 0-1.093-.173-1.48-.52-.373-.36-.56-.8-.56-1.32 0-.533.187-.973.56-1.32.387-.36.88-.54 1.48-.54.587 0 1.067.18 1.44.54.387.347.58.787.58 1.32 0 .52-.193.96-.58 1.32-.373.347-.853.52-1.44.52zm1.7 1.16V166h-3.42v-11.16h3.42zm9.279-.12c1.306 0 2.346.427 3.12 1.28.786.84 1.18 2 1.18 3.48V166h-3.4v-6.06c0-.747-.194-1.327-.58-1.74s-.907-.62-1.56-.62-1.174.207-1.56.62-.58.993-.58 1.74V166h-3.42v-11.16h3.42v1.48c.346-.493.813-.88 1.4-1.16.586-.293 1.246-.44 1.98-.44zm5.996 5.68c0-1.147.214-2.153.64-3.02.44-.867 1.034-1.533 1.78-2s1.58-.7 2.5-.7c.787 0 1.474.16 2.06.48.6.32 1.06.74 1.38 1.26v-1.58h3.42V166h-3.42v-1.58c-.333.52-.8.94-1.4 1.26-.586.32-1.273.48-2.06.48-.906 0-1.733-.233-2.48-.7-.746-.48-1.34-1.153-1.78-2.02-.426-.88-.64-1.893-.64-3.04zm8.36.02c0-.853-.24-1.527-.72-2.02-.466-.493-1.04-.74-1.72-.74a2.34 2.34 0 0 0-1.74.74c-.466.48-.7 1.147-.7 2s.234 1.533.7 2.04a2.34 2.34 0 0 0 1.74.74c.68 0 1.254-.247 1.72-.74.48-.493.72-1.167.72-2.02zm9.315-9.22V166h-3.42v-14.8h3.42zm10.136 5.22c.334-.52.794-.94 1.38-1.26s1.274-.48 2.06-.48c.92 0 1.754.233 2.5.7s1.334 1.133 1.76 2c.44.867.66 1.873.66 3.02s-.22 2.16-.66 3.04c-.426.867-1.013 1.54-1.76 2.02-.746.467-1.58.7-2.5.7-.773 0-1.46-.16-2.06-.48-.586-.32-1.046-.733-1.38-1.24v6.88h-3.42v-16.48h3.42v1.58zm4.88 3.98c0-.853-.24-1.52-.72-2-.466-.493-1.046-.74-1.74-.74a2.34 2.34 0 0 0-1.74.74c-.466.493-.7 1.167-.7 2.02s.234 1.527.7 2.02a2.34 2.34 0 0 0 1.74.74 2.34 2.34 0 0 0 1.74-.74c.48-.507.72-1.187.72-2.04zm17.435-8.44V166h-3.42v-5.78h-5.32V166h-3.42v-14.04h3.42v5.5h5.32v-5.5h3.42z" fill="#e489a8"/><g filter="url(#M)" class="D"><circle cx="490" cy="73" r="25"/></g><use xlink:href="#Q" x="140" opacity=".69" class="J"/><path d="M476.659 69.52c.053-1.427.52-2.527 1.4-3.3s2.073-1.16 3.58-1.16c1 0 1.853.173 2.56.52.72.347 1.26.82 1.62 1.42.373.6.56 1.273.56 2.02 0 .88-.22 1.6-.66 2.16-.44.547-.954.92-1.54 1.12v.08c.76.253 1.36.673 1.8 1.26s.66 1.34.66 2.26c0 .827-.194 1.56-.58 2.2-.374.627-.927 1.12-1.66 1.48-.72.36-1.58.54-2.58.54-1.6 0-2.88-.393-3.84-1.18-.947-.787-1.447-1.973-1.5-3.56h3.32c.013.587.18 1.053.5 1.4.32.333.786.5 1.4.5.52 0 .92-.147 1.2-.44.293-.307.44-.707.44-1.2 0-.64-.207-1.1-.62-1.38-.4-.293-1.047-.44-1.94-.44h-.64v-2.78h.64c.68 0 1.226-.113 1.64-.34.426-.24.64-.66.64-1.26 0-.48-.134-.853-.4-1.12s-.634-.4-1.1-.4c-.507 0-.887.153-1.14.46-.24.307-.38.687-.42 1.14h-3.34zm12.929 10.64c-.6 0-1.093-.173-1.48-.52-.373-.36-.56-.8-.56-1.32 0-.533.187-.98.56-1.34.387-.36.88-.54 1.48-.54.587 0 1.067.18 1.44.54.387.36.58.807.58 1.34 0 .52-.193.96-.58 1.32-.373.347-.853.52-1.44.52zm5.105-8c-1.254-.667-1.88-1.713-1.88-3.14a3.57 3.57 0 0 1 .56-1.96c.373-.6.94-1.073 1.7-1.42.76-.36 1.693-.54 2.8-.54s2.033.18 2.78.54c.76.347 1.326.82 1.7 1.42.373.587.56 1.24.56 1.96s-.174 1.347-.52 1.88c-.334.533-.787.953-1.36 1.26.72.347 1.273.827 1.66 1.44.386.6.58 1.307.58 2.12 0 .947-.24 1.767-.72 2.46-.48.68-1.134 1.2-1.96 1.56-.814.36-1.72.54-2.72.54s-1.914-.18-2.74-.54c-.814-.36-1.46-.88-1.94-1.56-.48-.693-.72-1.513-.72-2.46 0-.827.193-1.54.58-2.14.386-.613.933-1.087 1.64-1.42zm4.9-2.62c0-.547-.16-.967-.48-1.26-.307-.307-.72-.46-1.24-.46s-.94.153-1.26.46c-.307.307-.46.733-.46 1.28 0 .52.16.933.48 1.24.32.293.733.44 1.24.44s.92-.153 1.24-.46.48-.72.48-1.24zm-1.72 4.1c-.627 0-1.134.173-1.52.52-.387.333-.58.8-.58 1.4 0 .56.186 1.02.56 1.38.386.36.9.54 1.54.54s1.14-.18 1.5-.54c.373-.36.56-.82.56-1.38 0-.587-.194-1.053-.58-1.4-.374-.347-.867-.52-1.48-.52z" fill="#fff"/><g filter="url(#N)" class="D"><circle cx="648" cy="72" r="10"/></g><use xlink:href="#R" x="370" class="H J"/><g filter="url(#O)" class="D"><circle cx="578" cy="72.5" r="41.5"/></g><path opacity=".69" d="M578 31c-22.905 0-41.5 18.595-41.5 41.5S555.095 114 578 114s41.5-18.595 41.5-41.5S600.905 31 578 31z" class="J"/><path d="M556.829 79.1v-4.14l9.48-13.56h5.73v13.26h2.46v4.44h-2.46V83h-5.13v-3.9h-10.08zm10.44-12.06l-5.04 7.62h5.04v-7.62zm11.153 16.2c-.9 0-1.64-.26-2.22-.78-.56-.54-.84-1.2-.84-1.98 0-.8.28-1.47.84-2.01.58-.54 1.32-.81 2.22-.81.88 0 1.6.27 2.16.81.58.54.87 1.21.87 2.01a2.6 2.6 0 0 1-.87 1.98c-.56.52-1.28.78-2.16.78zm19.477-17.67h-9.36v4.14c.4-.44.96-.8 1.68-1.08a6.4 6.4 0 0 1 2.34-.42c1.5 0 2.74.34 3.72 1.02a5.97 5.97 0 0 1 2.19 2.64c.46 1.08.69 2.25.69 3.51 0 2.34-.66 4.2-1.98 5.58-1.32 1.36-3.18 2.04-5.58 2.04-1.6 0-2.99-.27-4.17-.81-1.18-.56-2.09-1.33-2.73-2.31s-.99-2.11-1.05-3.39h5.01a2.77 2.77 0 0 0 .87 1.56c.46.4 1.09.6 1.89.6.94 0 1.64-.3 2.1-.9s.69-1.4.69-2.4c0-.98-.24-1.73-.72-2.25s-1.18-.78-2.1-.78c-.68 0-1.24.17-1.68.51a2.24 2.24 0 0 0-.87 1.29h-4.95V61.07h14.01v4.5z" fill="#fff"/><path d="M609.089 130.042v.874h.874a5.04 5.04 0 0 1 5.037 5.042c0 2.784-2.261 5.042-5.045 5.042H599l.008-10.958c0-2.784 2.261-5.042 5.044-5.042a5.04 5.04 0 0 1 5.037 5.042z" fill="#ed2454"/><defs><filter id="A" x="307" y="34" width="86" height="86" filterUnits="userSpaceOnUse" class="B"><feFlood result="A" class="C"/><feColorMatrix in="SourceAlpha" values="0 0 0 0 0 0 0 0 0 0 0 0 0 0 0 0 0 0 127 0" result="B"/><feOffset dy="4"/><feGaussianBlur stdDeviation="9"/><feComposite in2="B" operator="out"/><feColorMatrix values="0 0 0 0 0.447059 0 0 0 0 0.313726 0 0 0 0 0.345098 0 0 0 0.8 0"/><feBlend in2="A"/><feBlend in="SourceGraphic"/></filter><filter id="B" x="677" y="34" width="86" height="86" filterUnits="userSpaceOnUse" class="B"><feFlood result="A" class="C"/><feColorMatrix in="SourceAlpha" values="0 0 0 0 0 0 0 0 0 0 0 0 0 0 0 0 0 0 127 0" result="B"/><feOffset dy="4"/><feGaussianBlur stdDeviation="9"/><feComposite in2="B" operator="out"/><feColorMatrix values="0 0 0 0 0.447059 0 0 0 0 0.313726 0 0 0 0 0.345098 0 0 0 0.8 0"/><feBlend in2="A"/><feBlend in="SourceGraphic"/></filter><filter id="C" x="821" y="34" width="86" height="86" filterUnits="userSpaceOnUse" class="B"><feFlood result="A" class="C"/><feColorMatrix in="SourceAlpha" values="0 0 0 0 0 0 0 0 0 0 0 0 0 0 0 0 0 0 127 0" result="B"/><feOffset dy="4"/><feGaussianBlur stdDeviation="9"/><feComposite in2="B" operator="out"/><feColorMatrix values="0 0 0 0 0.447059 0 0 0 0 0.313726 0 0 0 0 0.345098 0 0 0 0.8 0"/><feBlend in2="A"/><feBlend in="SourceGraphic"/></filter><filter id="D" x="965" y="34" width="86" height="86" filterUnits="userSpaceOnUse" class="B"><feFlood result="A" class="C"/><feColorMatrix in="SourceAlpha" values="0 0 0 0 0 0 0 0 0 0 0 0 0 0 0 0 0 0 127 0" result="B"/><feOffset dy="4"/><feGaussianBlur stdDeviation="9"/><feComposite in2="B" operator="out"/><feColorMatrix values="0 0 0 0 0.447059 0 0 0 0 0.313726 0 0 0 0 0.345098 0 0 0 0.8 0"/><feBlend in2="A"/><feBlend in="SourceGraphic"/></filter><filter id="E" x="163" y="34" width="86" height="86" filterUnits="userSpaceOnUse" class="B"><feFlood result="A" class="C"/><feColorMatrix in="SourceAlpha" values="0 0 0 0 0 0 0 0 0 0 0 0 0 0 0 0 0 0 127 0" result="B"/><feOffset dy="4"/><feGaussianBlur stdDeviation="9"/><feComposite in2="B" operator="out"/><feColorMatrix values="0 0 0 0 0.447059 0 0 0 0 0.313726 0 0 0 0 0.345098 0 0 0 0.8 0"/><feBlend in2="A"/><feBlend in="SourceGraphic"/></filter><filter id="F" x="19" y="34" width="86" height="86" filterUnits="userSpaceOnUse" class="B"><feFlood result="A" class="C"/><feColorMatrix in="SourceAlpha" values="0 0 0 0 0 0 0 0 0 0 0 0 0 0 0 0 0 0 127 0" result="B"/><feOffset dy="4"/><feGaussianBlur stdDeviation="9"/><feComposite in2="B" operator="out"/><feColorMatrix values="0 0 0 0 0.447059 0 0 0 0 0.313726 0 0 0 0 0.345098 0 0 0 0.8 0"/><feBlend in2="A"/><feBlend in="SourceGraphic"/></filter><filter id="G" x="250" y="48" width="56" height="56" filterUnits="userSpaceOnUse" class="B"><feFlood result="A" class="C"/><feColorMatrix in="SourceAlpha" values="0 0 0 0 0 0 0 0 0 0 0 0 0 0 0 0 0 0 127 0" result="B"/><feOffset dy="4"/><feGaussianBlur stdDeviation="9"/><feComposite in2="B" operator="out"/><feColorMatrix values="0 0 0 0 0.117647 0 0 0 0 0.309804 0 0 0 0 0.454902 0 0 0 0.31 0"/><feBlend in2="A"/><feBlend in="SourceGraphic"/></filter><filter id="H" x="106" y="48" width="56" height="56" filterUnits="userSpaceOnUse" class="B"><feFlood result="A" class="C"/><feColorMatrix in="SourceAlpha" values="0 0 0 0 0 0 0 0 0 0 0 0 0 0 0 0 0 0 127 0" result="B"/><feOffset dy="4"/><feGaussianBlur stdDeviation="9"/><feComposite in2="B" operator="out"/><feColorMatrix values="0 0 0 0 0.117647 0 0 0 0 0.309804 0 0 0 0 0.454902 0 0 0 0.31 0"/><feBlend in2="A"/><feBlend in="SourceGraphic"/></filter><filter id="I" x="764" y="48" width="56" height="56" filterUnits="userSpaceOnUse" class="B"><feFlood result="A" class="C"/><feColorMatrix in="SourceAlpha" values="0 0 0 0 0 0 0 0 0 0 0 0 0 0 0 0 0 0 127 0" result="B"/><feOffset dy="4"/><feGaussianBlur stdDeviation="9"/><feComposite in2="B" operator="out"/><feColorMatrix values="0 0 0 0 0.117647 0 0 0 0 0.309804 0 0 0 0 0.454902 0 0 0 0.31 0"/><feBlend in2="A"/><feBlend in="SourceGraphic"/></filter><filter id="J" x="394" y="48" width="56" height="56" filterUnits="userSpaceOnUse" class="B"><feFlood result="A" class="C"/><feColorMatrix in="SourceAlpha" values="0 0 0 0 0 0 0 0 0 0 0 0 0 0 0 0 0 0 127 0" result="B"/><feOffset dy="4"/><feGaussianBlur stdDeviation="9"/><feComposite in2="B" operator="out"/><feColorMatrix values="0 0 0 0 0.117647 0 0 0 0 0.309804 0 0 0 0 0.454902 0 0 0 0.31 0"/><feBlend in2="A"/><feBlend in="SourceGraphic"/></filter><filter id="K" x="908" y="48" width="56" height="56" filterUnits="userSpaceOnUse" class="B"><feFlood result="A" class="C"/><feColorMatrix in="SourceAlpha" values="0 0 0 0 0 0 0 0 0 0 0 0 0 0 0 0 0 0 127 0" result="B"/><feOffset dy="4"/><feGaussianBlur stdDeviation="9"/><feComposite in2="B" operator="out"/><feColorMatrix values="0 0 0 0 0.117647 0 0 0 0 0.309804 0 0 0 0 0.454902 0 0 0 0.31 0"/><feBlend in2="A"/><feBlend in="SourceGraphic"/></filter><filter id="L" x="422" y="0" width="279" height="220" filterUnits="userSpaceOnUse" class="B"><feFlood result="A" class="C"/><feColorMatrix in="SourceAlpha" values="0 0 0 0 0 0 0 0 0 0 0 0 0 0 0 0 0 0 127 0" result="B"/><feOffset dy="8"/><feGaussianBlur stdDeviation="14"/><feComposite in2="B" operator="out"/><feColorMatrix values="0 0 0 0 1 0 0 0 0 0.67451 0 0 0 0 0.654902 0 0 0 0.22 0"/><feBlend in2="A"/><feBlend in="SourceGraphic"/></filter><filter id="M" x="447" y="34" width="86" height="86" filterUnits="userSpaceOnUse" class="B"><feFlood result="A" class="C"/><feColorMatrix in="SourceAlpha" values="0 0 0 0 0 0 0 0 0 0 0 0 0 0 0 0 0 0 127 0" result="B"/><feOffset dy="4"/><feGaussianBlur stdDeviation="9"/><feComposite in2="B" operator="out"/><feColorMatrix values="0 0 0 0 1 0 0 0 0 0.603922 0 0 0 0 0.580392 0 0 0 0.4 0"/><feBlend in2="A"/><feBlend in="SourceGraphic"/></filter><filter id="N" x="620" y="48" width="56" height="56" filterUnits="userSpaceOnUse" class="B"><feFlood result="A" class="C"/><feColorMatrix in="SourceAlpha" values="0 0 0 0 0 0 0 0 0 0 0 0 0 0 0 0 0 0 127 0" result="B"/><feOffset dy="4"/><feGaussianBlur stdDeviation="9"/><feComposite in2="B" operator="out"/><feColorMatrix values="0 0 0 0 0.937255 0 0 0 0 0.34902 0 0 0 0 0.321569 0 0 0 0.32 0"/><feBlend in2="A"/><feBlend in="SourceGraphic"/></filter><filter id="O" x="518.5" y="17" width="119" height="119" filterUnits="userSpaceOnUse" class="B"><feFlood result="A" class="C"/><feColorMatrix in="SourceAlpha" values="0 0 0 0 0 0 0 0 0 0 0 0 0 0 0 0 0 0 127 0" result="B"/><feOffset dy="4"/><feGaussianBlur stdDeviation="9"/><feComposite in2="B" operator="out"/><feColorMatrix values="0 0 0 0 1 0 0 0 0 0.603922 0 0 0 0 0.580392 0 0 0 0.4 0"/><feBlend in2="A"/><feBlend in="SourceGraphic"/></filter><path id="P" d="M685.572 113.27v6.202c0 .737.192 1.293.574 1.666.392.373.934.56 1.624.56.7 0 1.242-.187 1.624-.56.392-.373.588-.929.588-1.666v-6.202h1.596v6.174c0 .793-.172 1.465-.518 2.016a3.21 3.21 0 0 1-1.386 1.232c-.578.271-1.218.406-1.918.406s-1.339-.135-1.918-.406c-.569-.271-1.022-.681-1.358-1.232s-.504-1.223-.504-2.016v-6.174h1.596zm11.976 1.89c.607 0 1.148.126 1.624.378a2.67 2.67 0 0 1 1.134 1.12c.271.495.406 1.092.406 1.792V123h-1.582v-4.312c0-.691-.172-1.218-.518-1.582-.345-.373-.816-.56-1.414-.56s-1.073.187-1.428.56c-.345.364-.518.891-.518 1.582V123h-1.596v-7.714h1.596v.882a2.66 2.66 0 0 1 .994-.742c.411-.177.845-.266 1.302-.266zm9.19 0c.588 0 1.111.126 1.568.378a2.63 2.63 0 0 1 1.092 1.12c.271.495.406 1.092.406 1.792V123h-1.582v-4.312c0-.691-.172-1.218-.518-1.582-.345-.373-.816-.56-1.414-.56s-1.073.187-1.428.56c-.345.364-.518.891-.518 1.582V123h-1.596v-10.36h1.596v3.542c.271-.327.612-.579 1.022-.756a3.5 3.5 0 0 1 1.372-.266zm12.172 3.794a5.03 5.03 0 0 1-.056.784h-5.894c.047.616.275 1.111.686 1.484s.915.56 1.512.56c.859 0 1.465-.359 1.82-1.078h1.722c-.233.709-.658 1.293-1.274 1.75-.607.448-1.363.672-2.268.672-.737 0-1.4-.163-1.988-.49a3.66 3.66 0 0 1-1.372-1.4c-.327-.607-.49-1.307-.49-2.1s.159-1.489.476-2.086c.327-.607.779-1.073 1.358-1.4.588-.327 1.26-.49 2.016-.49.728 0 1.377.159 1.946.476s1.013.765 1.33 1.344c.317.569.476 1.227.476 1.974zm-1.666-.504c-.009-.588-.219-1.059-.63-1.414s-.919-.532-1.526-.532a2.03 2.03 0 0 0-1.414.532c-.392.345-.625.817-.7 1.414h4.27zm2.705.658c0-.775.158-1.461.476-2.058.326-.597.765-1.059 1.316-1.386.56-.336 1.176-.504 1.848-.504.606 0 1.134.121 1.582.364.457.233.821.527 1.092.882v-1.12h1.61V123h-1.61v-1.148c-.271.364-.64.667-1.106.91s-.999.364-1.596.364c-.663 0-1.27-.168-1.82-.504-.551-.345-.99-.821-1.316-1.428-.318-.616-.476-1.311-.476-2.086zm6.314.028c0-.532-.112-.994-.336-1.386-.215-.392-.5-.691-.854-.896a2.26 2.26 0 0 0-1.148-.308c-.411 0-.794.103-1.148.308-.355.196-.644.49-.868.882-.215.383-.322.84-.322 1.372s.107.999.322 1.4c.224.401.513.709.868.924.364.205.746.308 1.148.308a2.26 2.26 0 0 0 1.148-.308c.354-.205.639-.504.854-.896.224-.401.336-.868.336-1.4zm5.302-6.496V123h-1.596v-10.36h1.596zm3.957 3.948v4.27c0 .289.066.499.196.63.14.121.374.182.7.182h.98V123h-1.26c-.718 0-1.269-.168-1.652-.504s-.574-.882-.574-1.638v-4.27h-.91v-1.302h.91v-1.918h1.61v1.918h1.876v1.302h-1.876zm7.337-1.428c.588 0 1.111.126 1.568.378a2.63 2.63 0 0 1 1.092 1.12c.271.495.406 1.092.406 1.792V123h-1.582v-4.312c0-.691-.172-1.218-.518-1.582-.345-.373-.816-.56-1.414-.56s-1.073.187-1.428.56c-.345.364-.518.891-.518 1.582V123h-1.596v-10.36h1.596v3.542c.271-.327.612-.579 1.022-.756a3.5 3.5 0 0 1 1.372-.266zm12.046.126l-4.732 11.34h-1.652l1.568-3.752-3.038-7.588h1.778l2.17 5.88 2.254-5.88h1.652zm-65.297 15.984l-3.654 9.73h-1.848l-3.668-9.73h1.708l2.884 8.092 2.898-8.092h1.68zm.803 5.838c0-.775.158-1.461.476-2.058.326-.597.765-1.059 1.316-1.386.56-.336 1.176-.504 1.848-.504.606 0 1.134.121 1.582.364.457.233.821.527 1.092.882v-1.12h1.61V141h-1.61v-1.148c-.271.364-.64.667-1.106.91s-.999.364-1.596.364c-.663 0-1.27-.168-1.82-.504-.551-.345-.99-.821-1.316-1.428-.318-.616-.476-1.311-.476-2.086zm6.314.028c0-.532-.112-.994-.336-1.386-.215-.392-.5-.691-.854-.896a2.26 2.26 0 0 0-1.148-.308c-.411 0-.794.103-1.148.308-.355.196-.644.49-.868.882-.215.383-.322.84-.322 1.372s.107.999.322 1.4c.224.401.513.709.868.924.364.205.746.308 1.148.308a2.26 2.26 0 0 0 1.148-.308c.354-.205.639-.504.854-.896.224-.401.336-.868.336-1.4zm6.814-3.976c.597 0 1.125.121 1.582.364.467.233.831.527 1.092.882v-1.12h1.61v7.84c0 .709-.149 1.339-.448 1.89-.299.56-.733.999-1.302 1.316-.56.317-1.232.476-2.016.476-1.045 0-1.913-.247-2.604-.742-.691-.485-1.083-1.148-1.176-1.988h1.582c.121.401.378.723.77.966.401.252.877.378 1.428.378.644 0 1.162-.196 1.554-.588.401-.392.602-.961.602-1.708v-1.288c-.271.364-.639.672-1.106.924-.457.243-.98.364-1.568.364-.672 0-1.288-.168-1.848-.504-.551-.345-.989-.821-1.316-1.428-.317-.616-.476-1.311-.476-2.086s.159-1.461.476-2.058a3.56 3.56 0 0 1 1.316-1.386c.56-.336 1.176-.504 1.848-.504zm2.674 3.976c0-.532-.112-.994-.336-1.386-.215-.392-.499-.691-.854-.896s-.737-.308-1.148-.308-.793.103-1.148.308c-.355.196-.644.49-.868.882-.215.383-.322.84-.322 1.372s.107.999.322 1.4c.224.401.513.709.868.924.364.205.747.308 1.148.308.411 0 .793-.103 1.148-.308s.639-.504.854-.896c.224-.401.336-.868.336-1.4zm4.518-4.872a.99.99 0 0 1-1.022-1.022.99.99 0 0 1 1.022-1.022.97.97 0 0 1 .714.294.99.99 0 0 1 .294.728.99.99 0 0 1-.294.728.97.97 0 0 1-.714.294zm.784 1.022V141h-1.596v-7.714h1.596zm5.988-.126c.606 0 1.148.126 1.624.378a2.68 2.68 0 0 1 1.134 1.12c.27.495.406 1.092.406 1.792V141h-1.582v-4.312c0-.691-.173-1.218-.518-1.582-.346-.373-.817-.56-1.414-.56s-1.074.187-1.428.56c-.346.364-.518.891-.518 1.582V141h-1.596v-7.714h1.596v.882c.261-.317.592-.565.994-.742a3.25 3.25 0 0 1 1.302-.266zm4.667 3.948c0-.775.159-1.461.476-2.058.327-.597.766-1.059 1.316-1.386.56-.336 1.176-.504 1.848-.504.607 0 1.134.121 1.582.364.458.233.822.527 1.092.882v-1.12h1.61V141h-1.61v-1.148c-.27.364-.639.667-1.106.91s-.998.364-1.596.364a3.43 3.43 0 0 1-1.82-.504c-.55-.345-.989-.821-1.316-1.428-.317-.616-.476-1.311-.476-2.086zm6.314.028c0-.532-.112-.994-.336-1.386-.214-.392-.499-.691-.854-.896s-.737-.308-1.148-.308a2.26 2.26 0 0 0-1.148.308c-.354.196-.644.49-.868.882-.214.383-.322.84-.322 1.372s.108.999.322 1.4c.224.401.514.709.868.924.364.205.747.308 1.148.308.411 0 .794-.103 1.148-.308s.64-.504.854-.896c.224-.401.336-.868.336-1.4zm5.303-6.496V141h-1.596v-10.36h1.596zm7.328 3.78c.27-.355.639-.653 1.106-.896s.994-.364 1.582-.364c.672 0 1.283.168 1.834.504.56.327.998.789 1.316 1.386s.476 1.283.476 2.058-.159 1.47-.476 2.086c-.318.607-.756 1.083-1.316 1.428-.551.336-1.162.504-1.834.504-.588 0-1.111-.117-1.568-.35-.458-.243-.831-.541-1.12-.896v4.788h-1.596v-11.382h1.596v1.134zm4.69 2.688c0-.532-.112-.989-.336-1.372a2.14 2.14 0 0 0-.868-.882 2.26 2.26 0 0 0-1.148-.308c-.402 0-.784.103-1.148.308-.355.205-.644.504-.868.896-.215.392-.322.854-.322 1.386s.107.999.322 1.4c.224.392.513.691.868.896.364.205.746.308 1.148.308a2.26 2.26 0 0 0 1.148-.308c.364-.215.653-.523.868-.924.224-.401.336-.868.336-1.4zm10.972-5.838V141h-1.596v-4.256h-4.578V141h-1.596v-9.73h1.596v4.172h4.578v-4.172h1.596z"/><path id="Q" d="M350 48c-13.798 0-25 11.202-25 25s11.202 25 25 25 25-11.202 25-25-11.202-25-25-25z"/><path id="R" d="M278 62c-5.519 0-10 4.481-10 10s4.481 10 10 10 10-4.481 10-10-4.481-10-10-10z"/></defs></svg>